<?xml version="1.0" encoding="UTF-8" standalone="no"?>
<!-- Created with Inkscape (http://www.inkscape.org/) -->

<svg
   xmlns:dc="http://purl.org/dc/elements/1.1/"
   xmlns:cc="http://creativecommons.org/ns#"
   xmlns:rdf="http://www.w3.org/1999/02/22-rdf-syntax-ns#"
   xmlns:svg="http://www.w3.org/2000/svg"
   xmlns="http://www.w3.org/2000/svg"
   xmlns:sodipodi="http://sodipodi.sourceforge.net/DTD/sodipodi-0.dtd"
   xmlns:inkscape="http://www.inkscape.org/namespaces/inkscape"
   id="svg2"
   version="1.1"
   inkscape:version="0.91 r13725"
   width="43.125"
   height="37.5"
   viewBox="0 0 43.125 37.5"
   sodipodi:docname="aeronaval.svg">
  <metadata
     id="metadata8">
    <rdf:RDF>
      <cc:Work
         rdf:about="">
        <dc:format>image/svg+xml</dc:format>
        <dc:type
           rdf:resource="http://purl.org/dc/dcmitype/StillImage" />
        <dc:title></dc:title>
      </cc:Work>
    </rdf:RDF>
  </metadata>
  <defs
     id="defs6" />
  <sodipodi:namedview
     pagecolor="#ffffff"
     bordercolor="#666666"
     borderopacity="1"
     objecttolerance="10"
     gridtolerance="10"
     guidetolerance="10"
     inkscape:pageopacity="0"
     inkscape:pageshadow="2"
     inkscape:window-width="640"
     inkscape:window-height="480"
     id="namedview4"
     showgrid="false"
     inkscape:zoom="6.2933333"
     inkscape:cx="21.5625"
     inkscape:cy="18.75"
     inkscape:window-x="0"
     inkscape:window-y="0"
     inkscape:window-maximized="0"
     inkscape:current-layer="svg2" />
  <path
     style="fill:#000000"
     d="m 17.8125,31.875 c 0,-0.515625 0.421875,-0.9375 0.9375,-0.9375 0.515625,0 0.9375,-2.109375 0.9375,-4.6875 0,-2.578125 0.421875,-4.6875 0.9375,-4.6875 0.515625,0 0.9375,2.109375 0.9375,4.6875 0,2.578125 0.421875,4.6875 0.9375,4.6875 0.515625,0 0.9375,0.421875 0.9375,0.9375 0,0.515625 -1.265625,0.9375 -2.8125,0.9375 -1.546875,0 -2.8125,-0.421875 -2.8125,-0.9375 z M 11.306764,29.111731 C 10.148942,28.107558 8.7706121,27.142287 8.2438082,26.966686 7.7170043,26.791085 7.5003566,25.819712 7.7623691,24.808081 c 0.4495683,-1.735787 0.5140667,-1.722333 1.145731,0.238995 0.3681395,1.143079 1.4675439,2.331665 2.4431229,2.641301 0.975577,0.309636 1.773777,0.927079 1.773777,1.372095 0,0.445015 0.949219,0.991947 2.109375,1.215403 1.976327,0.380657 1.985375,0.414337 0.143447,0.533954 -1.081261,0.07022 -2.913237,-0.693925 -4.071058,-1.698098 z m 15.030685,0.666891 c 0.773438,-0.773438 2.290243,-1.686818 3.370678,-2.029735 1.080436,-0.342917 2.18142,-1.453264 2.446632,-2.467436 0.629888,-2.408693 2.532741,-2.385366 2.532741,0.03105 0,1.03125 -0.602678,1.875 -1.339285,1.875 -0.736608,0 -1.916441,0.577154 -2.62185,1.282564 -0.705411,0.70541 -2.2979,1.604819 -3.538865,1.998686 -2.0056,0.636553 -2.100051,0.559872 -0.850051,-0.690128 z M 2.8125,17.677183 l 0,-2.947818 7.265625,0.726434 c 9.298135,0.929649 12.703306,0.935791 18.671626,0.03368 7.866867,-1.18907 11.624902,0.519791 8.348464,3.79623 -1.530075,1.530074 -9.586202,1.844074 -10.070062,0.392495 -0.173578,-0.520734 -2.001703,-1.143766 -4.0625,-1.384515 C 20.904857,18.052946 17.53125,17.434379 15.46875,16.919101 9.3548136,15.391644 3.75,15.659777 3.75,17.479722 c 0,1.331695 0.9278318,1.479556 6.796875,1.083158 3.738281,-0.252486 5.847656,-0.284332 4.6875,-0.07077 -1.160156,0.213567 -2.109375,0.780833 -2.109375,1.260596 0,0.479763 -2.320312,0.872296 -5.15625,0.872296 l -5.15625,0 0,-2.947817 z m 33.75,-0.333433 c 0,-1.55575 -4.817746,-1.906593 -10.429688,-0.75952 -3.054518,0.624339 -3.082919,0.66979 -0.820312,1.3128 1.289062,0.366338 4.347656,0.708122 6.796875,0.75952 3.374867,0.07082 4.453125,-0.247053 4.453125,-1.3128 z M 19.253065,12.243023 c -0.34325,-0.555391 -0.340777,-1.902446 0.0055,-2.9934552 C 19.638513,8.0525558 19.422447,6.9780734 18.71375,6.540074 16.892893,5.4147228 18.431739,2.7970127 20.829987,2.9401707 L 22.96875,3.0678413 20.805345,3.481205 c -1.189873,0.22735 -1.989856,0.9081795 -1.777741,1.5129543 0.212116,0.6047749 1.022689,0.9888305 1.801273,0.8534569 1.043604,-0.1814527 1.29728,0.3728669 0.965325,2.109375 -0.366187,1.9155822 -0.07969,2.3555088 1.534007,2.3555088 1.09136,0 1.984291,0.421875 1.984291,0.9375 0,0.515625 -0.598309,0.9375 -1.329575,0.9375 -0.731265,0 -1.954218,0.239698 -2.717671,0.532663 -0.763453,0.292964 -1.668938,0.07825 -2.012189,-0.47714 z"
     id="path3338"
     inkscape:connector-curvature="0" />
</svg>
