<?xml version="1.0" encoding="UTF-8" standalone="no"?>
<!-- Created with Inkscape (http://www.inkscape.org/) -->

<svg
   xmlns:dc="http://purl.org/dc/elements/1.1/"
   xmlns:cc="http://creativecommons.org/ns#"
   xmlns:rdf="http://www.w3.org/1999/02/22-rdf-syntax-ns#"
   xmlns:svg="http://www.w3.org/2000/svg"
   xmlns="http://www.w3.org/2000/svg"
   xmlns:sodipodi="http://sodipodi.sourceforge.net/DTD/sodipodi-0.dtd"
   xmlns:inkscape="http://www.inkscape.org/namespaces/inkscape"
   id="svg2"
   version="1.1"
   inkscape:version="0.91 r13725"
   width="51.5625"
   height="22.5"
   viewBox="0 0 51.5625 22.5"
   sodipodi:docname="anfibio.svg">
  <metadata
     id="metadata8">
    <rdf:RDF>
      <cc:Work
         rdf:about="">
        <dc:format>image/svg+xml</dc:format>
        <dc:type
           rdf:resource="http://purl.org/dc/dcmitype/StillImage" />
        <dc:title></dc:title>
      </cc:Work>
    </rdf:RDF>
  </metadata>
  <defs
     id="defs6" />
  <sodipodi:namedview
     pagecolor="#ffffff"
     bordercolor="#666666"
     borderopacity="1"
     objecttolerance="10"
     gridtolerance="10"
     guidetolerance="10"
     inkscape:pageopacity="0"
     inkscape:pageshadow="2"
     inkscape:window-width="640"
     inkscape:window-height="480"
     id="namedview4"
     showgrid="false"
     inkscape:zoom="9.3284848"
     inkscape:cx="25.78125"
     inkscape:cy="11.25"
     inkscape:window-x="0"
     inkscape:window-y="0"
     inkscape:window-maximized="0"
     inkscape:current-layer="svg2" />
  <path
     style="fill:#000000"
     d="M 22.905484,16.209054 C 22.023589,15.32716 20.709967,13.188583 19.986323,11.456662 18.382543,7.6182732 17.133918,7.9026172 14.44814,12.717848 11.935873,17.221997 8.4735799,18.113187 6.1843994,14.844924 3.4259692,10.906714 5.3954623,9.6010491 8.434042,13.353536 l 1.70334,2.103537 1.728184,-3.143706 c 3.245777,-5.9043318 4.709721,-7.266795 6.591325,-6.1344159 0.934648,0.5624857 2.680186,2.7773294 3.878975,4.9218749 C 23.534656,13.245372 24.897175,15 25.363688,15 c 0.466513,0 1.669695,-1.610254 2.673738,-3.578342 3.530562,-6.920473 6.776774,-7.1557137 9.834209,-0.712648 2.011663,4.239266 3.0442,4.800632 4.510715,2.452368 1.218426,-1.95101 3.55515,-2.625481 3.55515,-1.026157 0,0.486872 -1.029126,2.068903 -2.286945,3.515625 -2.834163,3.259805 -4.792331,2.396827 -7.555792,-3.329886 -2.037933,-4.2232084 -3.753055,-4.9558285 -4.690118,-2.003401 -0.711971,2.243222 -4.992221,7.494941 -6.108518,7.494941 -0.43296,0 -1.508749,-0.721551 -2.390643,-1.603446 z"
     id="path3338"
     inkscape:connector-curvature="0" />
</svg>
