<?xml version="1.0" encoding="UTF-8" standalone="no"?>
<!-- Created with Inkscape (http://www.inkscape.org/) -->

<svg
   xmlns:dc="http://purl.org/dc/elements/1.1/"
   xmlns:cc="http://creativecommons.org/ns#"
   xmlns:rdf="http://www.w3.org/1999/02/22-rdf-syntax-ns#"
   xmlns:svg="http://www.w3.org/2000/svg"
   xmlns="http://www.w3.org/2000/svg"
   xmlns:sodipodi="http://sodipodi.sourceforge.net/DTD/sodipodi-0.dtd"
   xmlns:inkscape="http://www.inkscape.org/namespaces/inkscape"
   id="svg2"
   version="1.1"
   inkscape:version="0.91 r13725"
   width="50.625"
   height="30.9375"
   viewBox="0 0 50.625 30.9375"
   sodipodi:docname="art_autopropulsada.svg">
  <metadata
     id="metadata8">
    <rdf:RDF>
      <cc:Work
         rdf:about="">
        <dc:format>image/svg+xml</dc:format>
        <dc:type
           rdf:resource="http://purl.org/dc/dcmitype/StillImage" />
        <dc:title></dc:title>
      </cc:Work>
    </rdf:RDF>
  </metadata>
  <defs
     id="defs6" />
  <sodipodi:namedview
     pagecolor="#ffffff"
     bordercolor="#666666"
     borderopacity="1"
     objecttolerance="10"
     gridtolerance="10"
     guidetolerance="10"
     inkscape:pageopacity="0"
     inkscape:pageshadow="2"
     inkscape:window-width="640"
     inkscape:window-height="480"
     id="namedview4"
     showgrid="false"
     inkscape:zoom="7.6282828"
     inkscape:cx="25.3125"
     inkscape:cy="15.46875"
     inkscape:window-x="0"
     inkscape:window-y="0"
     inkscape:window-maximized="0"
     inkscape:current-layer="svg2" />
  <path
     style="fill:#000000"
     d="M 10.741299,25.047191 C 6.1467776,21.09515 6.6045638,10.676431 11.511796,7.5115258 14.273032,5.7306746 32.689498,5.0104767 37.628392,6.4902052 42.027728,7.8082785 44.0625,11.248769 44.0625,17.369309 c 0,3.543993 -0.501289,4.83871 -2.740385,7.077806 l -2.740384,2.740385 -12.676087,0 c -11.84825,0 -12.838588,-0.139778 -15.164345,-2.140309 z M 40.135724,23.40098 C 42.8651,20.858179 43.011323,13.412599 40.395331,10.181985 38.669964,8.0512472 38.125232,7.96875 25.78125,7.96875 c -12.343982,0 -12.888714,0.082497 -14.614081,2.213235 -2.4657616,3.045086 -2.389665,9.430562 0.150875,12.660335 1.924289,2.446338 2.062841,2.47018 14.354474,2.47018 11.194612,0 12.612586,-0.187405 14.463206,-1.91152 z M 21.619291,20.681791 C 20.556806,19.619306 19.6875,17.90625 19.6875,16.875 c 0,-2.515883 3.2505,-5.628399 5.859375,-5.610644 2.675695,0.01821 3.876939,0.831262 5.345917,3.618342 1.001629,1.900381 0.905632,2.586872 -0.655493,4.6875 -2.350757,3.163146 -6.084817,3.644784 -8.618008,1.111593 z"
     id="path3338"
     inkscape:connector-curvature="0" />
</svg>
