<?xml version="1.0" encoding="UTF-8" standalone="no"?>
<!-- Created with Inkscape (http://www.inkscape.org/) -->

<svg
   xmlns:dc="http://purl.org/dc/elements/1.1/"
   xmlns:cc="http://creativecommons.org/ns#"
   xmlns:rdf="http://www.w3.org/1999/02/22-rdf-syntax-ns#"
   xmlns:svg="http://www.w3.org/2000/svg"
   xmlns="http://www.w3.org/2000/svg"
   xmlns:sodipodi="http://sodipodi.sourceforge.net/DTD/sodipodi-0.dtd"
   xmlns:inkscape="http://www.inkscape.org/namespaces/inkscape"
   id="svg2"
   version="1.1"
   inkscape:version="0.91 r13725"
   width="48.75"
   height="31.875"
   viewBox="0 0 48.75 31.875"
   sodipodi:docname="art_antiaerea_autodefesa.svg">
  <metadata
     id="metadata8">
    <rdf:RDF>
      <cc:Work
         rdf:about="">
        <dc:format>image/svg+xml</dc:format>
        <dc:type
           rdf:resource="http://purl.org/dc/dcmitype/StillImage" />
        <dc:title></dc:title>
      </cc:Work>
    </rdf:RDF>
  </metadata>
  <defs
     id="defs6" />
  <sodipodi:namedview
     pagecolor="#ffffff"
     bordercolor="#666666"
     borderopacity="1"
     objecttolerance="10"
     gridtolerance="10"
     guidetolerance="10"
     inkscape:pageopacity="0"
     inkscape:pageshadow="2"
     inkscape:window-width="640"
     inkscape:window-height="480"
     id="namedview4"
     showgrid="false"
     inkscape:zoom="7.4039216"
     inkscape:cx="24.375"
     inkscape:cy="15.9375"
     inkscape:window-x="0"
     inkscape:window-y="0"
     inkscape:window-maximized="0"
     inkscape:current-layer="svg2" />
  <path
     style="fill:#000000"
     d="m 11.015365,28.515366 c -0.300923,-0.300925 0.303248,-1.988425 1.342603,-3.75 l 1.889737,-3.202866 -2.291052,0 c -3.5174473,0 -5.9508799,-3.20693 -4.8233516,-6.356514 C 7.99476,12.799628 8.3643355,12.660822 13.70561,12.737564 l 5.659521,0.08131 2.706427,-5.0031881 c 1.488534,-2.7517537 2.932161,-4.9958002 3.208059,-4.9867699 0.275898,0.00903 1.79489,2.223874 3.375536,4.921875 2.319748,3.959569 3.313995,4.86957 5.15625,4.719347 9.202569,-0.750409 9.501809,-0.661021 10.662433,3.185029 0.792156,2.625034 -2.293715,5.907334 -5.553807,5.907334 l -2.329969,0 1.857715,3.046875 c 1.990069,3.263948 2.295037,4.453125 1.142019,4.453125 -0.397487,0 -1.761166,-1.900992 -3.030395,-4.224427 -3.136731,-5.742058 -8.239622,-7.848751 -14.658379,-6.051611 -3.659739,1.024664 -4.820724,1.954323 -7.179735,5.749177 -3.061027,4.92416 -2.916592,4.769054 -3.70592,3.979727 z m 5.298629,-10.855649 c 0.781172,-1.11528 1.233204,-2.330532 1.004514,-2.70056 -0.72822,-1.178284 -5.518461,-1.692768 -7.230405,-0.776563 -1.6372109,0.876208 -2.2263113,3.679198 -1.025603,4.879906 1.415758,1.415759 5.882542,0.551672 7.251494,-1.402782 z m 25.774888,0.740359 c 1.231723,-1.484134 0.535638,-3.969272 -1.310184,-4.67758 -0.695106,-0.266738 -2.800499,-0.06068 -4.678651,0.457901 -3.022868,0.834655 -3.27301,1.124114 -2.179309,2.521866 2.582221,3.300084 6.212185,4.054601 8.168144,1.697813 z M 21.5625,16.875 C 22.699649,16.140118 22.565098,15.963464 20.859375,15.951856 19.699219,15.94396 18.75,16.359375 18.75,16.875 c 0,1.174614 0.994913,1.174614 2.8125,0 z m 10.3125,0 c 0,-0.515625 -0.738281,-0.93104 -1.640625,-0.923144 C 28.8323,15.964124 28.798222,16.098351 30,16.875 c 1.769262,1.143384 1.875,1.143384 1.875,0 z M 29.357182,14.392818 C 30.008721,13.74128 26.300585,6.5625 25.3125,6.5625 c -0.32573,0 -1.519763,1.6503128 -2.653408,3.667361 -1.535099,2.731341 -1.758619,3.789203 -0.875757,4.144737 1.753262,0.706052 6.873697,0.718369 7.573847,0.01822 z"
     id="path3338"
     inkscape:connector-curvature="0" />
</svg>
