<?xml version="1.0" encoding="UTF-8" standalone="no"?>
<!-- Created with Inkscape (http://www.inkscape.org/) -->

<svg
   xmlns:dc="http://purl.org/dc/elements/1.1/"
   xmlns:cc="http://creativecommons.org/ns#"
   xmlns:rdf="http://www.w3.org/1999/02/22-rdf-syntax-ns#"
   xmlns:svg="http://www.w3.org/2000/svg"
   xmlns="http://www.w3.org/2000/svg"
   xmlns:sodipodi="http://sodipodi.sourceforge.net/DTD/sodipodi-0.dtd"
   xmlns:inkscape="http://www.inkscape.org/namespaces/inkscape"
   id="svg2"
   version="1.1"
   inkscape:version="0.91 r13725"
   width="49.6875"
   height="30"
   viewBox="0 0 49.6875 30"
   sodipodi:docname="art_autopropulsada2.svg">
  <metadata
     id="metadata8">
    <rdf:RDF>
      <cc:Work
         rdf:about="">
        <dc:format>image/svg+xml</dc:format>
        <dc:type
           rdf:resource="http://purl.org/dc/dcmitype/StillImage" />
        <dc:title></dc:title>
      </cc:Work>
    </rdf:RDF>
  </metadata>
  <defs
     id="defs6" />
  <sodipodi:namedview
     pagecolor="#ffffff"
     bordercolor="#666666"
     borderopacity="1"
     objecttolerance="10"
     gridtolerance="10"
     guidetolerance="10"
     inkscape:pageopacity="0"
     inkscape:pageshadow="2"
     inkscape:window-width="640"
     inkscape:window-height="480"
     id="namedview4"
     showgrid="false"
     inkscape:zoom="7.8666667"
     inkscape:cx="24.84375"
     inkscape:cy="15"
     inkscape:window-x="0"
     inkscape:window-y="0"
     inkscape:window-maximized="0"
     inkscape:current-layer="svg2" />
  <path
     style="fill:#000000"
     d="M 14.634103,20.356565 C 3.9532114,14.333471 3.8089442,15.261549 16.506604,8.3106748 l 7.584465,-4.15184 9.574501,5.271134 9.574501,5.2711352 -2.685768,1.633313 c -1.477173,0.898323 -5.823708,3.349271 -9.658966,5.446552 l -6.973197,3.813239 -9.288037,-5.237643 z m 23.169315,-4.546267 c 1.500163,-1.003305 0.80506,-1.618577 -6.080829,-5.382461 L 23.947979,6.1781705 17.84131,9.5225698 C 8.1878608,14.80941 8.2207398,14.551584 16.582508,19.393664 l 7.339632,4.250189 6.09375,-3.350379 c 3.351562,-1.842709 6.855951,-3.860138 7.787528,-4.483176 z M 19.70339,19.147246 C 15.990165,15.434021 18.689869,8.8347458 23.92214,8.8347458 c 3.008693,0 6.09375,3.0850572 6.09375,6.0937502 0,1.289062 -0.84375,3.1875 -1.875,4.21875 -1.03125,1.03125 -2.929688,1.875 -4.21875,1.875 -1.289063,0 -3.1875,-0.84375 -4.21875,-1.875 z"
     id="path3338"
     inkscape:connector-curvature="0" />
</svg>
