<?xml version="1.0" encoding="UTF-8" standalone="no"?>
<!-- Created with Inkscape (http://www.inkscape.org/) -->

<svg
   xmlns:dc="http://purl.org/dc/elements/1.1/"
   xmlns:cc="http://creativecommons.org/ns#"
   xmlns:rdf="http://www.w3.org/1999/02/22-rdf-syntax-ns#"
   xmlns:svg="http://www.w3.org/2000/svg"
   xmlns="http://www.w3.org/2000/svg"
   xmlns:sodipodi="http://sodipodi.sourceforge.net/DTD/sodipodi-0.dtd"
   xmlns:inkscape="http://www.inkscape.org/namespaces/inkscape"
   id="svg2"
   version="1.1"
   inkscape:version="0.91 r13725"
   width="26.25"
   height="26.25"
   viewBox="0 0 26.25 26.25"
   sodipodi:docname="art_antiaerea.svg">
  <metadata
     id="metadata8">
    <rdf:RDF>
      <cc:Work
         rdf:about="">
        <dc:format>image/svg+xml</dc:format>
        <dc:type
           rdf:resource="http://purl.org/dc/dcmitype/StillImage" />
        <dc:title></dc:title>
      </cc:Work>
    </rdf:RDF>
  </metadata>
  <defs
     id="defs6" />
  <sodipodi:namedview
     pagecolor="#ffffff"
     bordercolor="#666666"
     borderopacity="1"
     objecttolerance="10"
     gridtolerance="10"
     guidetolerance="10"
     inkscape:pageopacity="0"
     inkscape:pageshadow="2"
     inkscape:window-width="640"
     inkscape:window-height="480"
     id="namedview4"
     showgrid="false"
     inkscape:zoom="8.9904762"
     inkscape:cx="13.125"
     inkscape:cy="13.125"
     inkscape:window-x="0"
     inkscape:window-y="0"
     inkscape:window-maximized="0"
     inkscape:current-layer="svg2" />
  <path
     style="fill:#000000"
     d="M 5.1396828,20.859375 C 5.4987155,19.957031 6.8583551,16.371094 8.1611042,12.890625 10.966719,5.3950476 13.278132,4.4562604 15.54857,9.8901834 20.624085,22.037602 20.743296,22.5 18.799496,22.5 c -0.98898,0 -2.06594,-0.84375 -2.393246,-1.875 -0.446883,-1.408004 -1.418469,-1.875 -3.900944,-1.875 -2.5174013,0 -3.4227846,0.447187 -3.7961663,1.875 C 8.4259971,21.707739 7.4303751,22.5 6.3528561,22.5 4.9520706,22.5 4.6496325,22.091001 5.1396828,20.859375 Z m 8.9084612,-6.09375 c -0.0079,-0.644531 -0.384425,-1.756214 -0.836731,-2.470406 -0.659608,-1.041521 -1.027873,-0.914554 -1.860644,0.641493 -1.4213146,2.65575 -1.325105,3.000788 0.836731,3.000788 1.03125,0 1.86854,-0.527344 1.860644,-1.171875 z"
     id="path3338"
     inkscape:connector-curvature="0" />
</svg>
