<?xml version="1.0" encoding="UTF-8" standalone="no"?>
<!-- Created with Inkscape (http://www.inkscape.org/) -->

<svg
   xmlns:dc="http://purl.org/dc/elements/1.1/"
   xmlns:cc="http://creativecommons.org/ns#"
   xmlns:rdf="http://www.w3.org/1999/02/22-rdf-syntax-ns#"
   xmlns:svg="http://www.w3.org/2000/svg"
   xmlns="http://www.w3.org/2000/svg"
   xmlns:sodipodi="http://sodipodi.sourceforge.net/DTD/sodipodi-0.dtd"
   xmlns:inkscape="http://www.inkscape.org/namespaces/inkscape"
   id="svg2"
   version="1.1"
   inkscape:version="0.91 r13725"
   width="59"
   height="33"
   viewBox="0 0 59 33"
   sodipodi:docname="aviação.svg">
  <metadata
     id="metadata8">
    <rdf:RDF>
      <cc:Work
         rdf:about="">
        <dc:format>image/svg+xml</dc:format>
        <dc:type
           rdf:resource="http://purl.org/dc/dcmitype/StillImage" />
        <dc:title></dc:title>
      </cc:Work>
    </rdf:RDF>
  </metadata>
  <defs
     id="defs6" />
  <sodipodi:namedview
     pagecolor="#ffffff"
     bordercolor="#666666"
     borderopacity="1"
     objecttolerance="10"
     gridtolerance="10"
     guidetolerance="10"
     inkscape:pageopacity="0"
     inkscape:pageshadow="2"
     inkscape:window-width="640"
     inkscape:window-height="480"
     id="namedview4"
     showgrid="false"
     inkscape:zoom="7.1515152"
     inkscape:cx="29.5"
     inkscape:cy="16.5"
     inkscape:window-x="0"
     inkscape:window-y="0"
     inkscape:window-maximized="0"
     inkscape:current-layer="svg2" />
  <path
     style="fill:#000000"
     d="m 28.663108,21.394068 c -0.141227,-5.438731 -0.574029,-7.744022 -1.451244,-7.729956 -0.6875,0.01102 -5.525,1.127004 -10.75,2.479956 -5.225,1.352952 -10.0624995,2.468932 -10.7499995,2.479956 -0.8810181,0.01413 -1.25,-2.014245 -1.25,-6.871516 l 0,-6.8915611 11.2499995,2.8696679 c 6.1875,1.578317 11.55761,2.8795192 11.933578,2.8915602 0.375967,0.01204 0.871043,-1.2156072 1.100168,-2.7281072 l 0.41659,-2.75 0.149832,2.75 c 0.181275,3.3270952 0.260055,3.3287162 12.149832,0.25 13.588428,-3.5185618 13,-3.6996167 13,4.0000002 0,4.929624 -0.340974,6.5 -1.411336,6.5 -0.776235,0 -6.172532,-1.125 -11.991772,-2.5 -5.819239,-1.375 -10.790209,-2.5 -11.046599,-2.5 -0.256391,0 -0.619534,3.4875 -0.806985,7.75 l -0.34082,7.75 -0.201244,-7.75 z m -10.701244,-7.610511 7,-1.767719 -8.713812,-2.1858852 c -4.792596,-1.202237 -8.9550955,-2.185885 -9.2499991,-2.185885 -0.2949036,0 -0.5361884,2.033573 -0.5361884,4.5190522 0,4.187298 0.1651778,4.477541 2.25,3.953604 1.2375,-0.310996 5.3999995,-1.360921 9.2499995,-2.333167 z m 34.5,-1.639489 c 0,-2.4750002 -0.241285,-4.5000002 -0.536188,-4.5000002 -1.878339,0 -17.438206,4.3589402 -17.027159,4.7699872 0.54482,0.544819 14.240744,4.034337 16.313347,4.156397 0.825721,0.04863 1.25,-1.453789 1.25,-4.426384 z"
     id="path3338"
     inkscape:connector-curvature="0" />
</svg>
