<?xml version="1.0" encoding="UTF-8" standalone="no"?>
<!-- Created with Inkscape (http://www.inkscape.org/) -->

<svg
   xmlns:dc="http://purl.org/dc/elements/1.1/"
   xmlns:cc="http://creativecommons.org/ns#"
   xmlns:rdf="http://www.w3.org/1999/02/22-rdf-syntax-ns#"
   xmlns:svg="http://www.w3.org/2000/svg"
   xmlns="http://www.w3.org/2000/svg"
   xmlns:sodipodi="http://sodipodi.sourceforge.net/DTD/sodipodi-0.dtd"
   xmlns:inkscape="http://www.inkscape.org/namespaces/inkscape"
   id="svg2"
   version="1.1"
   inkscape:version="0.91 r13725"
   width="53.4375"
   height="31.875"
   viewBox="0 0 53.4375 31.875"
   sodipodi:docname="cav_bld.svg">
  <metadata
     id="metadata8">
    <rdf:RDF>
      <cc:Work
         rdf:about="">
        <dc:format>image/svg+xml</dc:format>
        <dc:type
           rdf:resource="http://purl.org/dc/dcmitype/StillImage" />
        <dc:title></dc:title>
      </cc:Work>
    </rdf:RDF>
  </metadata>
  <defs
     id="defs6" />
  <sodipodi:namedview
     pagecolor="#ffffff"
     bordercolor="#666666"
     borderopacity="1"
     objecttolerance="10"
     gridtolerance="10"
     guidetolerance="10"
     inkscape:pageopacity="0"
     inkscape:pageshadow="2"
     inkscape:window-width="640"
     inkscape:window-height="480"
     id="namedview4"
     showgrid="false"
     inkscape:zoom="7.4039216"
     inkscape:cx="26.71875"
     inkscape:cy="15.9375"
     inkscape:window-x="0"
     inkscape:window-y="0"
     inkscape:window-maximized="0"
     inkscape:current-layer="svg2" />
  <path
     style="fill:#000000"
     d="m 2.6694915,29.887439 c 0,-0.465248 1.7250062,-1.987459 3.833347,-3.382694 3.5611835,-2.356679 3.7275875,-2.653651 2.3437505,-4.182775 -0.96042,-1.061251 -1.4895975,-3.38339 -1.4895975,-6.536655 0,-3.942562 0.4460991,-5.336768 2.301136,-7.1918057 C 11.886159,6.365479 12.38504,6.2922203 25.361253,6.2875697 c 12.598635,-0.00452 13.626775,-0.1432524 17.151989,-2.314491 4.003807,-2.4660115 5.15625,-2.8243643 5.15625,-1.603338 0,0.4206773 -1.691098,1.7153183 -3.757997,2.8769799 -3.572528,2.0078737 -3.688199,2.2117613 -2.34375,4.131232 0.81952,1.1700284 1.414247,4.0646874 1.414247,6.8834324 0,4.312816 -0.337255,5.148094 -2.97466,7.367324 -2.946129,2.479003 -3.097904,2.500532 -15.82331,2.244446 -10.302179,-0.207322 -13.289336,0.02742 -15.0722155,1.184442 -4.0755144,2.644853 -6.442315,3.68449 -6.442315,2.829842 z M 37.67825,23.063993 c 2.500039,-1.139093 4.366242,-4.430578 4.366242,-7.700883 0,-2.985355 -2.69289,-6.5047398 -4.458689,-5.827139 -1.933776,0.742059 -22.728811,13.73754 -22.728811,14.203959 0,0.877428 20.761624,0.262496 22.821258,-0.675937 z M 23.831964,8.3633939 C 12.533328,8.091149 12.50932,8.0951928 10.303145,10.642143 8.5063103,12.716525 8.1879046,13.900832 8.6003349,16.975729 9.5333885,23.932161 10.821804,23.832833 23.657982,15.814886 L 35.150686,8.6361229 23.831964,8.3633939 Z"
     id="path3338"
     inkscape:connector-curvature="0" />
</svg>
