<?xml version="1.0" encoding="UTF-8" standalone="no"?>
<!-- Created with Inkscape (http://www.inkscape.org/) -->

<svg
   xmlns:dc="http://purl.org/dc/elements/1.1/"
   xmlns:cc="http://creativecommons.org/ns#"
   xmlns:rdf="http://www.w3.org/1999/02/22-rdf-syntax-ns#"
   xmlns:svg="http://www.w3.org/2000/svg"
   xmlns="http://www.w3.org/2000/svg"
   xmlns:sodipodi="http://sodipodi.sourceforge.net/DTD/sodipodi-0.dtd"
   xmlns:inkscape="http://www.inkscape.org/namespaces/inkscape"
   id="svg2"
   version="1.1"
   inkscape:version="0.91 r13725"
   width="53.4375"
   height="42.1875"
   viewBox="0 0 53.4375 42.1875"
   sodipodi:docname="cav_mec.svg">
  <metadata
     id="metadata8">
    <rdf:RDF>
      <cc:Work
         rdf:about="">
        <dc:format>image/svg+xml</dc:format>
        <dc:type
           rdf:resource="http://purl.org/dc/dcmitype/StillImage" />
        <dc:title></dc:title>
      </cc:Work>
    </rdf:RDF>
  </metadata>
  <defs
     id="defs6" />
  <sodipodi:namedview
     pagecolor="#ffffff"
     bordercolor="#666666"
     borderopacity="1"
     objecttolerance="10"
     gridtolerance="10"
     guidetolerance="10"
     inkscape:pageopacity="0"
     inkscape:pageshadow="2"
     inkscape:window-width="640"
     inkscape:window-height="480"
     id="namedview4"
     showgrid="false"
     inkscape:zoom="5.5940741"
     inkscape:cx="26.71875"
     inkscape:cy="21.09375"
     inkscape:window-x="0"
     inkscape:window-y="0"
     inkscape:window-maximized="0"
     inkscape:current-layer="svg2" />
  <path
     style="fill:#000000"
     d="m 14.777542,36.316208 c 0,-4.848828 2.155979,-5.922252 3.295205,-1.640625 l 0.685969,2.578125 0.900039,-2.578125 c 1.471061,-4.213804 3.556287,-3.251825 3.556287,1.640625 0,4.3817 -1.441011,5.794907 -2.150875,2.109375 l -0.406284,-2.109375 -0.12767,2.109375 c -0.07022,1.160156 -0.731142,2.109375 -1.468717,2.109375 -0.737575,0 -1.523873,-0.949219 -1.747329,-2.109375 l -0.406284,-2.109375 -0.12767,2.109375 C 16.53983,42.397185 14.777542,40.541 14.777542,36.316208 Z m 10.3125,1.506552 c 0,-3.031558 2.287451,-4.515637 4.337576,-2.814184 1.844205,1.530553 1.588005,2.713882 -0.587576,2.713882 -1.03125,0 -1.875,0.467011 -1.875,1.037802 0,0.570791 0.632812,0.794969 1.40625,0.498174 0.773437,-0.296797 1.40625,-0.130995 1.40625,0.368447 0,0.499442 -1.054688,0.908077 -2.34375,0.908077 -1.959906,0 -2.34375,-0.444187 -2.34375,-2.712198 z m 7.1875,2.087198 c -2.085089,-2.085088 0.725187,-6.439796 3.474924,-5.384623 2.183292,0.837809 1.888779,2.179197 -0.349924,1.593763 -1.452331,-0.379794 -1.875,-0.02876 -1.875,1.557194 0,1.620885 0.390686,1.923519 1.875,1.452416 1.075604,-0.341383 1.875,-0.168469 1.875,0.405574 0,1.089528 -3.986613,1.389063 -5,0.375676 z M 4.4141511,29.470159 C 10.420581,25.301153 10.549884,25.102182 8.8395558,22.660345 6.8671986,19.844411 6.7983659,12.573778 8.718116,9.8329496 10.868826,6.7623804 16.634895,5.6555465 28.763693,5.9850726 39.241464,6.269742 39.749757,6.1919545 43.293526,3.7614713 45.313256,2.3762467 47.34926,1.4798961 47.81798,1.7695811 c 0.46872,0.2896851 -0.76191,1.6016898 -2.734734,2.9155662 -1.972825,1.3138762 -3.72353,2.4955609 -3.890457,2.6259659 -0.166926,0.130405 0.360418,1.5209797 1.171875,3.0901668 2.446124,4.730281 1.933509,10.132278 -1.265007,13.330793 l -2.740384,2.740385 -13.246854,0 c -12.585206,0 -13.419128,0.117065 -16.6959906,2.34375 -1.897026,1.289062 -4.0894877,2.321622 -4.8721371,2.294576 -0.958164,-0.03311 -0.6740167,-0.569035 0.8698598,-1.640625 z M 40.021998,22.127278 c 2.946013,-3.745249 2.201426,-12.5298204 -1.062036,-12.5298204 -0.988957,0 -17.626026,10.2908654 -21.83867,13.5083174 -1.713982,1.309072 -0.894607,1.434612 9.541331,1.461868 11.232352,0.02933 11.447644,-0.01 13.359375,-2.440365 z M 24.40525,16.159958 C 30.436295,12.292771 35.377932,8.7769698 35.386664,8.347068 35.395383,7.9171662 30.30185,7.7062287 24.06767,7.878318 13.475195,8.1707144 12.615552,8.3361671 10.94267,10.404443 7.9928649,14.051451 9.0548878,24.30747 12.296882,23.482142 12.925439,23.322129 18.374204,20.027145 24.40525,16.159958 Z"
     id="path3338"
     inkscape:connector-curvature="0" />
</svg>
