<?xml version="1.0" encoding="UTF-8" standalone="no"?>
<!-- Created with Inkscape (http://www.inkscape.org/) -->

<svg
   xmlns:dc="http://purl.org/dc/elements/1.1/"
   xmlns:cc="http://creativecommons.org/ns#"
   xmlns:rdf="http://www.w3.org/1999/02/22-rdf-syntax-ns#"
   xmlns:svg="http://www.w3.org/2000/svg"
   xmlns="http://www.w3.org/2000/svg"
   xmlns:sodipodi="http://sodipodi.sourceforge.net/DTD/sodipodi-0.dtd"
   xmlns:inkscape="http://www.inkscape.org/namespaces/inkscape"
   id="svg2"
   version="1.1"
   inkscape:version="0.91 r13725"
   width="57.1875"
   height="38.4375"
   viewBox="0 0 57.1875 38.4375"
   sodipodi:docname="cemiterio.svg">
  <metadata
     id="metadata8">
    <rdf:RDF>
      <cc:Work
         rdf:about="">
        <dc:format>image/svg+xml</dc:format>
        <dc:type
           rdf:resource="http://purl.org/dc/dcmitype/StillImage" />
        <dc:title></dc:title>
      </cc:Work>
    </rdf:RDF>
  </metadata>
  <defs
     id="defs6" />
  <sodipodi:namedview
     pagecolor="#ffffff"
     bordercolor="#666666"
     borderopacity="1"
     objecttolerance="10"
     gridtolerance="10"
     guidetolerance="10"
     inkscape:pageopacity="0"
     inkscape:pageshadow="2"
     inkscape:window-width="640"
     inkscape:window-height="480"
     id="namedview4"
     showgrid="false"
     inkscape:zoom="6.1398374"
     inkscape:cx="28.59375"
     inkscape:cy="19.21875"
     inkscape:window-x="0"
     inkscape:window-y="0"
     inkscape:window-maximized="0"
     inkscape:current-layer="svg2" />
  <path
     style="fill:#000000"
     d="m 3.75,19.6875 0,-15.9375 24.375,0 24.375,0 0,15.9375 0,15.9375 -24.375,0 -24.375,0 0,-15.9375 z m 46.875,8.530116 0,-5.532385 -2.841191,2.654071 C 38.910479,33.628233 16.947633,33.463778 7.734375,25.039418 L 5.625,23.110661 l 0,5.31967 0,5.319669 22.5,0 22.5,0 0,-5.532384 z m -12.314776,0.147327 c 2.078704,-0.777767 2.118246,-0.927545 0.636161,-2.409629 -1.436649,-1.436649 -1.446385,-1.714242 -0.1071,-3.053529 1.339287,-1.339285 1.621602,-1.324827 3.105469,0.159041 1.173642,1.173641 1.305346,1.741224 0.46875,2.020089 -1.379479,0.459827 -1.567713,2.106585 -0.240795,2.106585 2.160515,0 6.811666,-5.338438 6.811666,-7.818205 0,-12.8169244 -34.46273,-14.714478 -41.4410193,-2.281786 -1.2999187,2.315967 -1.2571614,2.72059 0.5426412,5.135151 2.5053761,3.361137 6.6040871,5.744208 11.7453621,6.828985 4.578117,0.965954 15.107681,0.574659 18.478865,-0.686702 z M 29.171251,26.953125 C 29.111438,26.050781 28.355874,25.3125 27.49222,25.3125 c -1.38448,0 -1.356748,-0.205783 0.234375,-1.739167 0.992561,-0.956542 1.94528,-1.378417 2.117155,-0.9375 0.171875,0.440917 0.910157,0.801667 1.640625,0.801667 0.730469,0 1.328125,0.421875 1.328125,0.9375 0,0.515625 -0.601879,0.9375 -1.337509,0.9375 -0.73563,0 -1.530441,0.738281 -1.766248,1.640625 -0.408324,1.5625 -0.433919,1.5625 -0.537492,0 z M 17.057922,25.730078 c -1.012371,-1.147077 -0.971955,-1.637474 0.234375,-2.843804 1.318604,-1.318604 1.598282,-1.317123 2.930918,0.01552 1.309523,1.309524 1.316963,1.629465 0.06696,2.879465 -1.691616,1.691616 -1.694164,1.691576 -3.232256,-0.05117 z m 0.9375,-9.375 c -1.012371,-1.147077 -0.971955,-1.637474 0.234375,-2.843804 1.318604,-1.318604 1.598282,-1.317123 2.930918,0.01552 1.309523,1.309524 1.316963,1.629465 0.06696,2.879465 -1.691616,1.691616 -1.694164,1.691576 -3.232256,-0.05117 z M 30,16.865825 C 30,16.355246 29.367187,15.9375 28.59375,15.9375 27.820312,15.9375 27.1875,15.515625 27.1875,15 c 0,-0.515625 0.632812,-0.9375 1.40625,-0.9375 0.773437,0 1.41271,-0.527344 1.420606,-1.171875 0.0099,-0.810705 0.226633,-0.85403 0.703125,-0.140572 0.378823,0.567216 1.225957,1.20331 1.882522,1.413541 0.832797,0.266663 0.620193,0.873337 -0.703125,2.006398 C 30.853595,17.063278 30,17.376402 30,16.865825 Z m 9.557922,-0.510747 c -1.012371,-1.147077 -0.971955,-1.637474 0.234375,-2.843804 1.318604,-1.318604 1.598282,-1.317123 2.930918,0.01552 1.309523,1.309524 1.316963,1.629465 0.06696,2.879465 -1.691616,1.691616 -1.694164,1.691576 -3.232256,-0.05117 z M 50.625,10.78125 l 0,-5.15625 -22.5,0 -22.5,0 0,4.850919 0,4.85092 2.1210533,-1.992626 C 12.312553,9.0442089 18.603314,7.1223462 28.125,7.1083308 c 7.66107,-0.011276 9.652014,0.3319986 14.240391,2.4553045 2.933777,1.3576277 5.882913,3.3471407 6.553637,4.4211397 0.670724,1.073999 1.328954,1.952725 1.462735,1.952725 0.13378,0 0.243237,-2.320312 0.243237,-5.15625 z"
     id="path3338"
     inkscape:connector-curvature="0" />
</svg>
