<?xml version="1.0" encoding="UTF-8" standalone="no"?>
<!-- Created with Inkscape (http://www.inkscape.org/) -->

<svg
   xmlns:dc="http://purl.org/dc/elements/1.1/"
   xmlns:cc="http://creativecommons.org/ns#"
   xmlns:rdf="http://www.w3.org/1999/02/22-rdf-syntax-ns#"
   xmlns:svg="http://www.w3.org/2000/svg"
   xmlns="http://www.w3.org/2000/svg"
   xmlns:sodipodi="http://sodipodi.sourceforge.net/DTD/sodipodi-0.dtd"
   xmlns:inkscape="http://www.inkscape.org/namespaces/inkscape"
   id="svg2"
   version="1.1"
   inkscape:version="0.91 r13725"
   width="50.625"
   height="20.625"
   viewBox="0 0 50.625 20.625"
   sodipodi:docname="classe9_Motomecanizacao_aviacao.svg">
  <metadata
     id="metadata8">
    <rdf:RDF>
      <cc:Work
         rdf:about="">
        <dc:format>image/svg+xml</dc:format>
        <dc:type
           rdf:resource="http://purl.org/dc/dcmitype/StillImage" />
        <dc:title></dc:title>
      </cc:Work>
    </rdf:RDF>
  </metadata>
  <defs
     id="defs6" />
  <sodipodi:namedview
     pagecolor="#ffffff"
     bordercolor="#666666"
     borderopacity="1"
     objecttolerance="10"
     gridtolerance="10"
     guidetolerance="10"
     inkscape:pageopacity="0"
     inkscape:pageshadow="2"
     inkscape:window-width="640"
     inkscape:window-height="480"
     id="namedview4"
     showgrid="false"
     inkscape:zoom="9.5012346"
     inkscape:cx="25.3125"
     inkscape:cy="10.3125"
     inkscape:window-x="0"
     inkscape:window-y="0"
     inkscape:window-maximized="0"
     inkscape:current-layer="svg2" />
  <path
     style="fill:#000000"
     d="m 4.6875,16.691734 c 0,-0.685915 0.9492187,-1.663563 2.109375,-2.172552 C 8.1750929,13.914526 8.90625,12.781353 8.90625,11.25 8.90625,9.7186472 8.1750929,8.585474 6.796875,7.980817 5.6367187,7.471829 4.6875,6.494181 4.6875,5.8082662 4.6875,4.101339 8.4433073,5.2544951 10.462775,7.5814649 11.853107,9.183502 13.379602,9.375 24.75965,9.375 32.404352,9.375 37.5,9.0096653 37.5,8.4615751 37.5,7.6470186 42.242032,4.6875 43.547194,4.6875 c 0.283418,0 0.515306,0.6328125 0.515306,1.40625 0,0.7734375 -0.617969,1.40625 -1.373265,1.40625 -2.141199,0 -3.573266,3.389261 -2.376735,5.625 0.551908,1.03125 1.576303,1.875 2.276433,1.875 0.70013,0 1.515796,0.632813 1.812591,1.40625 0.296797,0.773437 0.110045,1.40625 -0.415004,1.40625 C 42.341093,17.8125 37.5,14.99579 37.5,14.038425 37.5,13.490334 32.404352,13.125 24.75965,13.125 13.379602,13.125 11.853107,13.316498 10.462775,14.918535 8.4433073,17.245505 4.6875,18.398661 4.6875,16.691734 Z"
     id="path3338"
     inkscape:connector-curvature="0" />
</svg>
