<?xml version="1.0" encoding="UTF-8" standalone="no"?>
<!-- Created with Inkscape (http://www.inkscape.org/) -->

<svg
   xmlns:dc="http://purl.org/dc/elements/1.1/"
   xmlns:cc="http://creativecommons.org/ns#"
   xmlns:rdf="http://www.w3.org/1999/02/22-rdf-syntax-ns#"
   xmlns:svg="http://www.w3.org/2000/svg"
   xmlns="http://www.w3.org/2000/svg"
   xmlns:sodipodi="http://sodipodi.sourceforge.net/DTD/sodipodi-0.dtd"
   xmlns:inkscape="http://www.inkscape.org/namespaces/inkscape"
   id="svg2"
   version="1.1"
   inkscape:version="0.91 r13725"
   width="24.375"
   height="26.25"
   viewBox="0 0 24.375 26.25"
   sodipodi:docname="classe10_outros.svg">
  <metadata
     id="metadata8">
    <rdf:RDF>
      <cc:Work
         rdf:about="">
        <dc:format>image/svg+xml</dc:format>
        <dc:type
           rdf:resource="http://purl.org/dc/dcmitype/StillImage" />
        <dc:title></dc:title>
      </cc:Work>
    </rdf:RDF>
  </metadata>
  <defs
     id="defs6" />
  <sodipodi:namedview
     pagecolor="#ffffff"
     bordercolor="#666666"
     borderopacity="1"
     objecttolerance="10"
     gridtolerance="10"
     guidetolerance="10"
     inkscape:pageopacity="0"
     inkscape:pageshadow="2"
     inkscape:window-width="640"
     inkscape:window-height="480"
     id="namedview4"
     showgrid="false"
     inkscape:zoom="8.9904762"
     inkscape:cx="12.1875"
     inkscape:cy="13.125"
     inkscape:window-x="0"
     inkscape:window-y="0"
     inkscape:window-maximized="0"
     inkscape:current-layer="svg2" />
  <path
     style="fill:#000000"
     d="m 5.0847457,20.471306 c 0,-0.268058 1.0647556,-2.174062 2.3661236,-4.235562 L 9.8169927,12.487562 7.4317223,8.9887493 C 5.3436902,5.9259383 5.2434976,5.4484237 6.6276996,5.1568059 c 0.8696864,-0.1832218 2.3548651,0.6605282 3.3003971,1.875 l 1.7191493,2.2081306 1.719149,-2.2081306 c 0.945532,-1.2144718 2.430711,-2.0582218 3.300397,-1.875 1.382823,0.2913274 1.279796,0.7753234 -0.821032,3.856975 l -2.40228,3.5238441 2.896921,4.21053 c 2.682668,3.899125 2.756516,4.210531 0.998496,4.210531 -1.044135,0 -2.589484,-1.054688 -3.434111,-2.34375 -0.844626,-1.289063 -1.837751,-2.34375 -2.206943,-2.34375 -0.369193,0 -1.235712,1.054687 -1.9255973,2.34375 -1.0537814,1.969009 -4.6875,3.408054 -4.6875,1.85637 z"
     id="path3338"
     inkscape:connector-curvature="0" />
</svg>
