<?xml version="1.0" encoding="UTF-8" standalone="no"?>
<!-- Created with Inkscape (http://www.inkscape.org/) -->

<svg
   xmlns:dc="http://purl.org/dc/elements/1.1/"
   xmlns:cc="http://creativecommons.org/ns#"
   xmlns:rdf="http://www.w3.org/1999/02/22-rdf-syntax-ns#"
   xmlns:svg="http://www.w3.org/2000/svg"
   xmlns="http://www.w3.org/2000/svg"
   xmlns:sodipodi="http://sodipodi.sourceforge.net/DTD/sodipodi-0.dtd"
   xmlns:inkscape="http://www.inkscape.org/namespaces/inkscape"
   id="svg2"
   version="1.1"
   inkscape:version="0.91 r13725"
   width="37.5"
   height="32.8125"
   viewBox="0 0 37.5 32.8125"
   sodipodi:docname="colonizacao.svg">
  <metadata
     id="metadata8">
    <rdf:RDF>
      <cc:Work
         rdf:about="">
        <dc:format>image/svg+xml</dc:format>
        <dc:type
           rdf:resource="http://purl.org/dc/dcmitype/StillImage" />
        <dc:title></dc:title>
      </cc:Work>
    </rdf:RDF>
  </metadata>
  <defs
     id="defs6" />
  <sodipodi:namedview
     pagecolor="#ffffff"
     bordercolor="#666666"
     borderopacity="1"
     objecttolerance="10"
     gridtolerance="10"
     guidetolerance="10"
     inkscape:pageopacity="0"
     inkscape:pageshadow="2"
     inkscape:window-width="640"
     inkscape:window-height="480"
     id="namedview4"
     showgrid="false"
     inkscape:zoom="7.192381"
     inkscape:cx="18.75"
     inkscape:cy="16.40625"
     inkscape:window-x="0"
     inkscape:window-y="0"
     inkscape:window-maximized="0"
     inkscape:current-layer="svg2" />
  <path
     style="fill:#000000"
     d="m 4.7907839,22.107136 c 0,-7.495741 -0.1737282,-8.408111 -1.40625,-7.385208 C 0.525613,17.094621 2.1266172,14.406608 7.3646698,8.0394606 13.363754,0.74723617 12.546215,0.76434197 17.688419,7.823452 l 1.698169,2.331211 3.07285,-4.2788674 C 24.149506,3.5224184 25.70287,1.596928 25.911359,1.596928 c 0.208488,0 2.502587,2.8051023 5.097997,6.2335606 4.616756,6.0985944 6.116387,9.2183114 3.312678,6.8914394 -1.232522,-1.022903 -1.40625,-0.110533 -1.40625,7.385208 l 0,8.552292 -14.0625,0 -14.0625001,0 0,-8.552292 z M 18.853284,20.750217 c 0,-8.5401 -0.142821,-9.179293 -2.968761,-13.2866565 L 12.915762,3.1486143 9.8047199,6.8258962 C 6.7259223,10.465065 6.6935332,10.602774 6.6797309,20.112553 l -0.013947,9.609375 6.0937501,0 6.09375,0 0,-8.971711 z m 13.125,-0.218599 c 0,-8.815438 -0.119329,-9.352572 -2.925448,-13.168302 C 27.443839,5.1754205 26.003843,3.5102789 25.852843,3.6630011 25.701843,3.8157234 24.276107,5.580719 22.684541,7.5852136 19.893162,11.10081 19.790784,11.556864 19.790784,20.475839 l 0,9.246089 6.09375,0 6.09375,0 0,-9.19031 z"
     id="path3338"
     inkscape:connector-curvature="0" />
</svg>
