<?xml version="1.0" encoding="UTF-8" standalone="no"?>
<!-- Created with Inkscape (http://www.inkscape.org/) -->

<svg
   xmlns:dc="http://purl.org/dc/elements/1.1/"
   xmlns:cc="http://creativecommons.org/ns#"
   xmlns:rdf="http://www.w3.org/1999/02/22-rdf-syntax-ns#"
   xmlns:svg="http://www.w3.org/2000/svg"
   xmlns="http://www.w3.org/2000/svg"
   xmlns:sodipodi="http://sodipodi.sourceforge.net/DTD/sodipodi-0.dtd"
   xmlns:inkscape="http://www.inkscape.org/namespaces/inkscape"
   id="svg2"
   version="1.1"
   inkscape:version="0.91 r13725"
   width="25.3125"
   height="25.3125"
   viewBox="0 0 25.3125 25.3125"
   sodipodi:docname="comando_controle.svg">
  <metadata
     id="metadata8">
    <rdf:RDF>
      <cc:Work
         rdf:about="">
        <dc:format>image/svg+xml</dc:format>
        <dc:type
           rdf:resource="http://purl.org/dc/dcmitype/StillImage" />
        <dc:title></dc:title>
      </cc:Work>
    </rdf:RDF>
  </metadata>
  <defs
     id="defs6" />
  <sodipodi:namedview
     pagecolor="#ffffff"
     bordercolor="#666666"
     borderopacity="1"
     objecttolerance="10"
     gridtolerance="10"
     guidetolerance="10"
     inkscape:pageopacity="0"
     inkscape:pageshadow="2"
     inkscape:window-width="640"
     inkscape:window-height="480"
     id="namedview4"
     showgrid="false"
     inkscape:zoom="9.3234568"
     inkscape:cx="12.65625"
     inkscape:cy="12.65625"
     inkscape:window-x="0"
     inkscape:window-y="0"
     inkscape:window-maximized="0"
     inkscape:current-layer="svg2" />
  <path
     style="fill:#000000"
     d="M 4.9157685,22.290562 C 2.1441528,20.954151 0.44977226,15.428458 1.7609647,12.002155 3.811963,6.642651 11.70539,4.9706983 14.072832,9.3943069 15.403638,11.880939 13.456702,12.778287 11.187116,10.724341 9.6913781,9.3707164 8.9507674,9.2673277 7.0274414,10.143653 5.1267268,11.009678 4.6875,11.882287 4.6875,14.792401 c 0,5.315644 3.7341537,7.834297 6.5625,4.426349 C 12.568445,17.630122 15,17.326177 15,18.75 15,20.490605 11.265253,23.437958 9.140625,23.37405 7.9804687,23.339152 6.0792833,22.851582 4.9157685,22.290562 Z M 17.728331,10.469771 C 18.233947,9.5250197 19.303477,8.2077385 20.105066,7.542479 21.631433,6.2757065 22.102568,3.75 20.8125,3.75 c -0.4125,0 -1.208634,0.4586339 -1.769186,1.0191865 -0.696536,0.6965359 -1.209393,0.7114269 -1.620008,0.047038 -0.794768,-1.2859616 2.6619,-3.0895159 4.54003,-2.36881 1.925654,0.738943 1.884845,3.9823994 -0.07739,6.1506416 -1.443734,1.5953084 -1.443734,1.7144444 0,1.7144444 0.853353,0 1.551551,0.421875 1.551551,0.9375 0,0.515625 -1.491406,0.9375 -3.314235,0.9375 -2.922577,0 -3.205597,-0.202991 -2.394934,-1.717729 z"
     id="path3338"
     inkscape:connector-curvature="0" />
</svg>
