<?xml version="1.0" encoding="UTF-8" standalone="no"?>
<!-- Created with Inkscape (http://www.inkscape.org/) -->

<svg
   xmlns:dc="http://purl.org/dc/elements/1.1/"
   xmlns:cc="http://creativecommons.org/ns#"
   xmlns:rdf="http://www.w3.org/1999/02/22-rdf-syntax-ns#"
   xmlns:svg="http://www.w3.org/2000/svg"
   xmlns="http://www.w3.org/2000/svg"
   xmlns:sodipodi="http://sodipodi.sourceforge.net/DTD/sodipodi-0.dtd"
   xmlns:inkscape="http://www.inkscape.org/namespaces/inkscape"
   id="svg2"
   version="1.1"
   inkscape:version="0.91 r13725"
   width="35.625"
   height="25.3125"
   viewBox="0 0 35.625 25.3125"
   sodipodi:docname="controle_municao.svg">
  <metadata
     id="metadata8">
    <rdf:RDF>
      <cc:Work
         rdf:about="">
        <dc:format>image/svg+xml</dc:format>
        <dc:type
           rdf:resource="http://purl.org/dc/dcmitype/StillImage" />
        <dc:title></dc:title>
      </cc:Work>
    </rdf:RDF>
  </metadata>
  <defs
     id="defs6" />
  <sodipodi:namedview
     pagecolor="#ffffff"
     bordercolor="#666666"
     borderopacity="1"
     objecttolerance="10"
     gridtolerance="10"
     guidetolerance="10"
     inkscape:pageopacity="0"
     inkscape:pageshadow="2"
     inkscape:window-width="640"
     inkscape:window-height="480"
     id="namedview4"
     showgrid="false"
     inkscape:zoom="9.3234568"
     inkscape:cx="17.8125"
     inkscape:cy="12.65625"
     inkscape:window-x="0"
     inkscape:window-y="0"
     inkscape:window-maximized="0"
     inkscape:current-layer="svg2" />
  <path
     style="fill:#000000"
     d="M 6.2761512,19.583321 C 1.7199946,16.932796 2.5224943,8.6242504 7.5352052,6.5479176 9.853065,5.5878286 10.682226,5.6516096 12.650718,6.9414157 16.503961,9.4661578 15.264077,11.664264 11.361466,9.2270432 8.2312908,7.2722166 6.4199802,8.88935 6.7425517,13.350798 c 0.2584428,3.574492 0.558885,4.02404 2.8668233,4.289598 1.417969,0.163156 2.578125,-0.153251 2.578125,-0.703125 0,-0.549874 0.632813,-0.999771 1.40625,-0.999771 2.017054,0 1.735533,2.570303 -0.407118,3.717015 -2.281802,1.221184 -4.7323279,1.195938 -6.9104808,-0.07119 z M 17.8125,13.59375 c 0,-6.8303691 0.0654,-7.03125 2.289259,-7.03125 1.920293,0 2.502566,0.7177202 3.612738,4.453125 l 1.32348,4.453125 1.186057,-4.453125 C 27.21849,7.2818752 27.77073,6.5625 29.642545,6.5625 c 2.153166,0 2.232455,0.249725 2.232455,7.03125 0,5.625 -0.28125,7.03125 -1.40625,7.03125 -1.06203,0 -1.424367,-1.20477 -1.480263,-4.921875 -0.07927,-5.27182 -0.207947,-5.204303 -1.786622,0.9375 C 26.638591,18.832031 25.62221,20.625 24.94324,20.625 c -0.682289,0 -1.875374,-2.201608 -2.66724,-4.921875 l -1.43275,-4.921875 -0.109125,4.921875 c -0.08207,3.7015 -0.457804,4.921875 -1.515375,4.921875 -1.125,0 -1.40625,-1.40625 -1.40625,-7.03125 z"
     id="path3338"
     inkscape:connector-curvature="0" />
</svg>
