<?xml version="1.0" encoding="UTF-8" standalone="no"?>
<!-- Created with Inkscape (http://www.inkscape.org/) -->

<svg
   xmlns:dc="http://purl.org/dc/elements/1.1/"
   xmlns:cc="http://creativecommons.org/ns#"
   xmlns:rdf="http://www.w3.org/1999/02/22-rdf-syntax-ns#"
   xmlns:svg="http://www.w3.org/2000/svg"
   xmlns="http://www.w3.org/2000/svg"
   xmlns:sodipodi="http://sodipodi.sourceforge.net/DTD/sodipodi-0.dtd"
   xmlns:inkscape="http://www.inkscape.org/namespaces/inkscape"
   id="svg2"
   version="1.1"
   inkscape:version="0.91 r13725"
   width="30"
   height="21.5625"
   viewBox="0 0 30 21.5625"
   sodipodi:docname="contraincendio.svg">
  <metadata
     id="metadata8">
    <rdf:RDF>
      <cc:Work
         rdf:about="">
        <dc:format>image/svg+xml</dc:format>
        <dc:type
           rdf:resource="http://purl.org/dc/dcmitype/StillImage" />
        <dc:title></dc:title>
      </cc:Work>
    </rdf:RDF>
  </metadata>
  <defs
     id="defs6" />
  <sodipodi:namedview
     pagecolor="#ffffff"
     bordercolor="#666666"
     borderopacity="1"
     objecttolerance="10"
     gridtolerance="10"
     guidetolerance="10"
     inkscape:pageopacity="0"
     inkscape:pageshadow="2"
     inkscape:window-width="640"
     inkscape:window-height="480"
     id="namedview4"
     showgrid="false"
     inkscape:zoom="10.944928"
     inkscape:cx="15"
     inkscape:cy="10.78125"
     inkscape:window-x="0"
     inkscape:window-y="0"
     inkscape:window-maximized="0"
     inkscape:current-layer="svg2" />
  <path
     style="fill:#000000"
     d="M 8.7788268,18.591009 C 4.9155325,16.720371 3.6719946,11.245658 6.061021,6.6257908 8.2519608,2.3889806 15.744191,1.7603302 17.82006,5.6391255 18.9899,7.8249911 15.989742,9.2352741 14.777599,7.069294 13.813256,5.3461096 11.130634,5.1818663 9.5625,6.75 7.9937336,8.3187664 8.1542483,14.535338 9.7987613,15.900163 11.24568,17.100998 15,16.405648 15,14.936824 15,14.455946 15.84375,14.0625 16.875,14.0625 c 2.57075,0 2.350063,1.365227 -0.59518,3.681956 -2.70411,2.127054 -4.449627,2.324051 -7.5009932,0.846553 z M 21.5625,10.78125 c 0,-6.4583333 0.266544,-7.96875 1.40625,-7.96875 1.139706,0 1.40625,1.5104167 1.40625,7.96875 0,6.458333 -0.266544,7.96875 -1.40625,7.96875 -1.139706,0 -1.40625,-1.510417 -1.40625,-7.96875 z"
     id="path3338"
     inkscape:connector-curvature="0" />
</svg>
