<?xml version="1.0" encoding="UTF-8" standalone="no"?>
<!-- Created with Inkscape (http://www.inkscape.org/) -->

<svg
   xmlns:dc="http://purl.org/dc/elements/1.1/"
   xmlns:cc="http://creativecommons.org/ns#"
   xmlns:rdf="http://www.w3.org/1999/02/22-rdf-syntax-ns#"
   xmlns:svg="http://www.w3.org/2000/svg"
   xmlns="http://www.w3.org/2000/svg"
   xmlns:sodipodi="http://sodipodi.sourceforge.net/DTD/sodipodi-0.dtd"
   xmlns:inkscape="http://www.inkscape.org/namespaces/inkscape"
   id="svg2"
   version="1.1"
   inkscape:version="0.91 r13725"
   width="49.6875"
   height="29.0625"
   viewBox="0 0 49.6875 29.0625"
   sodipodi:docname="eng_bld_mec.svg">
  <metadata
     id="metadata8">
    <rdf:RDF>
      <cc:Work
         rdf:about="">
        <dc:format>image/svg+xml</dc:format>
        <dc:type
           rdf:resource="http://purl.org/dc/dcmitype/StillImage" />
        <dc:title></dc:title>
      </cc:Work>
    </rdf:RDF>
  </metadata>
  <defs
     id="defs6" />
  <sodipodi:namedview
     pagecolor="#ffffff"
     bordercolor="#666666"
     borderopacity="1"
     objecttolerance="10"
     gridtolerance="10"
     guidetolerance="10"
     inkscape:pageopacity="0"
     inkscape:pageshadow="2"
     inkscape:window-width="640"
     inkscape:window-height="480"
     id="namedview4"
     showgrid="false"
     inkscape:zoom="8.1204301"
     inkscape:cx="24.84375"
     inkscape:cy="14.53125"
     inkscape:window-x="0"
     inkscape:window-y="0"
     inkscape:window-maximized="0"
     inkscape:current-layer="svg2" />
  <path
     style="fill:#000000"
     d="M 8.8102999,22.401299 C 6.4277123,20.018711 6.0699153,18.968861 6.0699153,14.360434 c 0,-4.6084267 0.357797,-5.6582772 2.7403846,-8.0408651 C 11.549768,3.5801 11.55464,3.5791843 23.388106,3.5791843 c 8.517765,0 12.576064,0.3819668 14.471315,1.3620391 5.741445,2.9690166 6.342676,12.9073016 1.066088,17.6223356 -2.835395,2.533642 -3.096445,2.578125 -15.13,2.578125 l -12.244825,0 -2.7403841,-2.740385 z M 37.75679,21.365737 c 2.536442,-2.363057 3.389016,-5.578558 2.597628,-9.79702 -1.004423,-5.3540346 -3.079081,-6.1145327 -16.680602,-6.1145327 -10.728901,0 -12.174557,0.1956565 -13.8539007,1.875 -2.7265417,2.7265417 -2.6307899,10.7934027 0.163419,13.7677017 1.9221747,2.046061 2.7140347,2.169798 13.8857237,2.169798 10.605349,0 12.061202,-0.199277 13.887732,-1.900947 z m -25.124375,-7.005303 0,-7.9687497 11.25,0 11.25,0 0,7.4999997 c 0,4.375 -0.390625,7.5 -0.9375,7.5 -0.528847,0 -0.9375,-2.65625 -0.9375,-6.09375 l 0,-6.0937497 -3.75,0 -3.75,0 0,6.0937497 c 0,4.791667 -0.300481,6.09375 -1.40625,6.09375 -1.105769,0 -1.40625,-1.302083 -1.40625,-6.09375 l 0,-6.0937497 -3.75,0 -3.75,0 0,6.5624997 c 0,5.208334 -0.290179,6.5625 -1.40625,6.5625 -1.139706,0 -1.40625,-1.510417 -1.40625,-7.96875 z"
     id="path3338"
     inkscape:connector-curvature="0" />
</svg>
