<?xml version="1.0" encoding="UTF-8" standalone="no"?>
<!-- Created with Inkscape (http://www.inkscape.org/) -->

<svg
   xmlns:dc="http://purl.org/dc/elements/1.1/"
   xmlns:cc="http://creativecommons.org/ns#"
   xmlns:rdf="http://www.w3.org/1999/02/22-rdf-syntax-ns#"
   xmlns:svg="http://www.w3.org/2000/svg"
   xmlns="http://www.w3.org/2000/svg"
   xmlns:sodipodi="http://sodipodi.sourceforge.net/DTD/sodipodi-0.dtd"
   xmlns:inkscape="http://www.inkscape.org/namespaces/inkscape"
   id="svg2"
   version="1.1"
   inkscape:version="0.91 r13725"
   width="45.9375"
   height="26.25"
   viewBox="0 0 45.9375 26.25"
   sodipodi:docname="especial.svg">
  <metadata
     id="metadata8">
    <rdf:RDF>
      <cc:Work
         rdf:about="">
        <dc:format>image/svg+xml</dc:format>
        <dc:type
           rdf:resource="http://purl.org/dc/dcmitype/StillImage" />
        <dc:title></dc:title>
      </cc:Work>
    </rdf:RDF>
  </metadata>
  <defs
     id="defs6" />
  <sodipodi:namedview
     pagecolor="#ffffff"
     bordercolor="#666666"
     borderopacity="1"
     objecttolerance="10"
     gridtolerance="10"
     guidetolerance="10"
     inkscape:pageopacity="0"
     inkscape:pageshadow="2"
     inkscape:window-width="640"
     inkscape:window-height="480"
     id="namedview4"
     showgrid="false"
     inkscape:zoom="8.9904762"
     inkscape:cx="22.96875"
     inkscape:cy="13.125"
     inkscape:window-x="0"
     inkscape:window-y="0"
     inkscape:window-maximized="0"
     inkscape:current-layer="svg2" />
  <path
     style="fill:#000000"
     d="m 31.366525,16.020439 0,-7.8460839 3.335311,-0.5412467 c 4.351038,-0.7060762 5.633707,-0.1350336 6.97608,3.1057396 1.702427,4.110022 -0.470493,7.974381 -4.477219,7.962365 -2.676125,-0.008 -3.021672,0.286799 -3.021672,2.578125 0,1.674722 -0.495965,2.587187 -1.40625,2.587187 -1.137982,0 -1.40625,-1.496787 -1.40625,-7.846086 z m 7.316098,-2.820459 c -0.21479,-2.207256 -0.746006,-2.927205 -2.159848,-2.927205 -1.371352,0 -1.958122,0.728149 -2.184446,2.710775 -0.327267,2.866892 1.143695,4.481126 3.321778,3.645317 0.826927,-0.317322 1.202687,-1.577386 1.022516,-3.428887 z m -35.4410976,-1.989705 0,-7.9687496 6.09375,0 c 4.7916666,0 6.0937496,0.3004807 6.0937496,1.40625 0,1.0416667 -1.09375,1.40625 -4.21875,1.40625 -3.5937496,0 -4.2187496,0.2777778 -4.2187496,1.875 0,1.5625 0.625,1.875 3.7499996,1.875 2.0625,0 3.75,0.4218746 3.75,0.9374996 0,0.515625 -1.6875,0.9375 -3.75,0.9375 -3.3749996,0 -3.7499996,0.234375 -3.7499996,2.34375 0,2.152777 0.34375,2.34375 4.2187496,2.34375 3.125,0 4.21875,0.364583 4.21875,1.40625 0,1.105769 -1.302083,1.40625 -6.0937496,1.40625 l -6.09375,0 0,-7.96875 z M 19.4134,18.558137 c -1.648501,-0.665185 -1.463949,-3.129112 0.234375,-3.129112 0.773437,0 1.40625,0.421875 1.40625,0.9375 0,0.515625 0.84375,0.9375 1.875,0.9375 2.945625,0 2.196642,-1.715447 -1.40625,-3.220831 -3.997088,-1.67009 -4.449823,-4.7244286 -0.9375,-6.3247503 1.753274,-0.7988453 2.934226,-0.7988453 4.6875,0 3.538681,1.6123307 2.939488,3.1798043 -0.9375,2.4524773 -2.150848,-0.4035016 -3.28125,-0.2566496 -3.28125,0.426269 0,0.573009 0.797013,1.041835 1.77114,1.041835 0.974127,0 2.717787,0.766549 3.874801,1.703441 4.228175,3.423769 -1.516242,7.504047 -7.286566,5.175671 z"
     id="path3338"
     inkscape:connector-curvature="0" />
</svg>
