<?xml version="1.0" encoding="UTF-8" standalone="no"?>
<!-- Created with Inkscape (http://www.inkscape.org/) -->

<svg
   xmlns:dc="http://purl.org/dc/elements/1.1/"
   xmlns:cc="http://creativecommons.org/ns#"
   xmlns:rdf="http://www.w3.org/1999/02/22-rdf-syntax-ns#"
   xmlns:svg="http://www.w3.org/2000/svg"
   xmlns="http://www.w3.org/2000/svg"
   xmlns:sodipodi="http://sodipodi.sourceforge.net/DTD/sodipodi-0.dtd"
   xmlns:inkscape="http://www.inkscape.org/namespaces/inkscape"
   id="svg2"
   version="1.1"
   inkscape:version="0.91 r13725"
   width="30.9375"
   height="25.3125"
   viewBox="0 0 30.9375 25.3125"
   sodipodi:docname="FT_SU.svg">
  <metadata
     id="metadata8">
    <rdf:RDF>
      <cc:Work
         rdf:about="">
        <dc:format>image/svg+xml</dc:format>
        <dc:type
           rdf:resource="http://purl.org/dc/dcmitype/StillImage" />
        <dc:title></dc:title>
      </cc:Work>
    </rdf:RDF>
  </metadata>
  <defs
     id="defs6" />
  <sodipodi:namedview
     pagecolor="#ffffff"
     bordercolor="#666666"
     borderopacity="1"
     objecttolerance="10"
     gridtolerance="10"
     guidetolerance="10"
     inkscape:pageopacity="0"
     inkscape:pageshadow="2"
     inkscape:window-width="640"
     inkscape:window-height="480"
     id="namedview4"
     showgrid="false"
     inkscape:zoom="9.3234568"
     inkscape:cx="15.46875"
     inkscape:cy="12.65625"
     inkscape:window-x="0"
     inkscape:window-y="0"
     inkscape:window-maximized="0"
     inkscape:current-layer="svg2" />
  <path
     style="fill:#000000"
     d="m 5.625,12.65625 0,-8.90625 9.84375,0 9.84375,0 0,8.90625 c 0,8.28125 -0.131579,8.90625 -1.875,8.90625 -1.71875,0 -1.875,-0.625 -1.875,-7.5 l 0,-7.5 -6.5625,0 -6.5625,0 0,7.5 c 0,6.041666 -0.2734375,7.5 -1.40625,7.5 -1.1513158,0 -1.40625,-1.614583 -1.40625,-8.90625 z M 13.125,15 c 0,-5.9375 0.178571,-6.5625 1.875,-6.5625 1.696429,0 1.875,0.625 1.875,6.5625 0,5.9375 -0.178571,6.5625 -1.875,6.5625 -1.696429,0 -1.875,-0.625 -1.875,-6.5625 z"
     id="path3338"
     inkscape:connector-curvature="0" />
</svg>
