<?xml version="1.0" encoding="UTF-8" standalone="no"?>
<!-- Created with Inkscape (http://www.inkscape.org/) -->

<svg
   xmlns:dc="http://purl.org/dc/elements/1.1/"
   xmlns:cc="http://creativecommons.org/ns#"
   xmlns:rdf="http://www.w3.org/1999/02/22-rdf-syntax-ns#"
   xmlns:svg="http://www.w3.org/2000/svg"
   xmlns="http://www.w3.org/2000/svg"
   xmlns:sodipodi="http://sodipodi.sourceforge.net/DTD/sodipodi-0.dtd"
   xmlns:inkscape="http://www.inkscape.org/namespaces/inkscape"
   id="svg2"
   version="1.1"
   inkscape:version="0.91 r13725"
   width="38"
   height="10"
   viewBox="0 0 38 10"
   sodipodi:docname="helice.svg">
  <metadata
     id="metadata8">
    <rdf:RDF>
      <cc:Work
         rdf:about="">
        <dc:format>image/svg+xml</dc:format>
        <dc:type
           rdf:resource="http://purl.org/dc/dcmitype/StillImage" />
        <dc:title></dc:title>
      </cc:Work>
    </rdf:RDF>
  </metadata>
  <defs
     id="defs6" />
  <sodipodi:namedview
     pagecolor="#ffffff"
     bordercolor="#666666"
     borderopacity="1"
     objecttolerance="10"
     gridtolerance="10"
     guidetolerance="10"
     inkscape:pageopacity="0"
     inkscape:pageshadow="2"
     inkscape:window-width="640"
     inkscape:window-height="480"
     id="namedview4"
     showgrid="false"
     inkscape:zoom="12.657895"
     inkscape:cx="19"
     inkscape:cy="5"
     inkscape:window-x="0"
     inkscape:window-y="0"
     inkscape:window-maximized="0"
     inkscape:current-layer="svg2" />
  <path
     style="fill:#000000"
     d="m 1.6504307,8.4285711 c -2.00702724,-2.007027 -2.00702724,-4.850115 0,-6.857143 2.0660605,-2.06606008 4.9203803,-1.98259948 11.6751533,0.341383 5.506294,1.894443 5.623163,1.893435 12.170259,-0.104967 7.293844,-2.22633598 11.118154,-1.84830718 12.083897,1.19448 1.959593,6.174133 -2.7672,8.1764189 -12.082813,5.118319 l -6.470606,-2.12415 -5.942114,2.001753 C 5.9215703,10.411164 3.7160318,10.494173 1.6504307,8.4285711 Z m 9.5625513,-1.586859 c 2.126311,-0.637058 3.86602,-1.465829 3.86602,-1.841712 0,-0.867848 -7.0342585,-3 -9.8974043,-3 -2.3584339,0 -3.6525116,2.124558 -2.7409692,4.5 0.689985,1.798072 3.5408094,1.909121 8.7723535,0.341712 z m 24.36602,-1.828017 c 0,-1.633564 -0.641312,-2.609811 -1.86985,-2.846405 -2.245213,-0.432389 -10.63015,1.790425 -10.63015,2.818011 0,1.130907 6.170036,2.875075 9.5,2.685494 2.48313,-0.141369 3,-0.59916 3,-2.6571 z"
     id="path3338"
     inkscape:connector-curvature="0" />
</svg>
