<?xml version="1.0" encoding="UTF-8" standalone="no"?>
<!-- Created with Inkscape (http://www.inkscape.org/) -->

<svg
   xmlns:dc="http://purl.org/dc/elements/1.1/"
   xmlns:cc="http://creativecommons.org/ns#"
   xmlns:rdf="http://www.w3.org/1999/02/22-rdf-syntax-ns#"
   xmlns:svg="http://www.w3.org/2000/svg"
   xmlns="http://www.w3.org/2000/svg"
   xmlns:sodipodi="http://sodipodi.sourceforge.net/DTD/sodipodi-0.dtd"
   xmlns:inkscape="http://www.inkscape.org/namespaces/inkscape"
   id="svg2"
   version="1.1"
   inkscape:version="0.91 r13725"
   width="54.375"
   height="40.3125"
   viewBox="0 0 54.375 40.3125"
   sodipodi:docname="hospital_Vet.svg">
  <metadata
     id="metadata8">
    <rdf:RDF>
      <cc:Work
         rdf:about="">
        <dc:format>image/svg+xml</dc:format>
        <dc:type
           rdf:resource="http://purl.org/dc/dcmitype/StillImage" />
        <dc:title></dc:title>
      </cc:Work>
    </rdf:RDF>
  </metadata>
  <defs
     id="defs6" />
  <sodipodi:namedview
     pagecolor="#ffffff"
     bordercolor="#666666"
     borderopacity="1"
     objecttolerance="10"
     gridtolerance="10"
     guidetolerance="10"
     inkscape:pageopacity="0"
     inkscape:pageshadow="2"
     inkscape:window-width="640"
     inkscape:window-height="480"
     id="namedview4"
     showgrid="false"
     inkscape:zoom="5.8542636"
     inkscape:cx="27.1875"
     inkscape:cy="20.15625"
     inkscape:window-x="0"
     inkscape:window-y="0"
     inkscape:window-maximized="0"
     inkscape:current-layer="svg2" />
  <path
     style="fill:#000000"
     d="m 2.8125,20.625 0,-17.8125 23.90625,0 23.90625,0 0,17.8125 0,17.8125 -23.90625,0 -23.90625,0 0,-17.8125 z m 46.875,10.73354 0,-5.203962 -3.23898,2.470491 C 37.308765,35.5963 15.902939,35.520494 7.5444571,28.487295 L 4.6875,26.083325 l 0,5.239587 0,5.239588 22.5,0 22.5,0 0,-5.20396 z M 41.25,29.232746 C 49.355554,25.280779 50.387559,20.485853 44.061503,16.169882 37.785823,11.88828 25.656283,10.526491 16.551831,13.081357 11.780563,14.420258 5.625,19.35193 5.625,21.835642 c 0,0.801899 1.0671412,2.726223 2.3714248,4.276276 C 13.666466,32.85038 30.575421,34.437274 41.25,29.232746 Z M 24.824474,29.765625 C 24.588426,29.121094 23.590301,26.273437 22.60642,23.4375 21.62254,20.601562 20.51815,17.542969 20.152222,16.640625 19.655598,15.416003 19.944348,15 21.29099,15 c 1.363403,0 2.198666,1.251727 3.419388,5.124306 0.888413,2.818368 1.957529,5.335817 2.375813,5.594331 0.418284,0.258515 1.52274,-2.047423 2.454345,-5.124305 C 30.78424,16.486654 31.678344,15 32.905082,15 c 1.551403,0 1.514366,0.451927 -0.518618,6.328125 -1.204135,3.480469 -2.489763,7.066406 -2.856952,7.96875 -0.767111,1.885129 -4.065949,2.213782 -4.705038,0.46875 z M 15.575478,11.639721 C 18.000987,10.909749 23.226397,10.3125 27.1875,10.3125 c 8.457414,0 14.744643,1.680122 19.305719,5.159024 l 3.283679,2.504585 -0.279074,-6.40993 L 49.21875,5.15625 26.953125,4.9049075 4.6875,4.653565 l 0,6.627178 0,6.627179 3.2389797,-2.470491 c 1.7814387,-1.358769 5.2234873,-3.067739 7.6489983,-3.79771 z"
     id="path3338"
     inkscape:connector-curvature="0" />
</svg>
