<?xml version="1.0" encoding="UTF-8" standalone="no"?>
<!-- Created with Inkscape (http://www.inkscape.org/) -->

<svg
   xmlns:dc="http://purl.org/dc/elements/1.1/"
   xmlns:cc="http://creativecommons.org/ns#"
   xmlns:rdf="http://www.w3.org/1999/02/22-rdf-syntax-ns#"
   xmlns:svg="http://www.w3.org/2000/svg"
   xmlns="http://www.w3.org/2000/svg"
   xmlns:sodipodi="http://sodipodi.sourceforge.net/DTD/sodipodi-0.dtd"
   xmlns:inkscape="http://www.inkscape.org/namespaces/inkscape"
   id="svg2"
   version="1.1"
   inkscape:version="0.91 r13725"
   width="49.6875"
   height="32.8125"
   viewBox="0 0 49.6875 32.8125"
   sodipodi:docname="justica_militar.svg">
  <metadata
     id="metadata8">
    <rdf:RDF>
      <cc:Work
         rdf:about="">
        <dc:format>image/svg+xml</dc:format>
        <dc:type
           rdf:resource="http://purl.org/dc/dcmitype/StillImage" />
        <dc:title></dc:title>
      </cc:Work>
    </rdf:RDF>
  </metadata>
  <defs
     id="defs6" />
  <sodipodi:namedview
     pagecolor="#ffffff"
     bordercolor="#666666"
     borderopacity="1"
     objecttolerance="10"
     gridtolerance="10"
     guidetolerance="10"
     inkscape:pageopacity="0"
     inkscape:pageshadow="2"
     inkscape:window-width="640"
     inkscape:window-height="480"
     id="namedview4"
     showgrid="false"
     inkscape:zoom="7.192381"
     inkscape:cx="24.84375"
     inkscape:cy="16.40625"
     inkscape:window-x="0"
     inkscape:window-y="0"
     inkscape:window-maximized="0"
     inkscape:current-layer="svg2" />
  <path
     style="fill:#000000"
     d="m 24.375,17.34375 0,-13.59375 -6.09375,0 c -3.351562,0 -6.09375,0.2249622 -6.09375,0.499916 0,0.2749538 1.054688,2.5812416 2.34375,5.125084 1.289063,2.543842 2.34375,4.85013 2.34375,5.125084 C 16.875,14.775038 14.132813,15 10.78125,15 7.4296875,15 4.6875,14.79705 4.6875,14.549001 c 0,-0.248051 1.3561727,-3.201176 3.0137172,-6.5625006 L 10.714934,1.875 l 14.318247,0 14.318247,0 L 42.65625,8.4375 45.961072,15 39.373291,15 32.785509,15 35.625,9.375 38.464491,3.75 l -6.107246,0 -6.107245,0 0,13.59375 c 0,8.4375 -0.355603,13.59375 -0.9375,13.59375 -0.581897,0 -0.9375,-5.15625 -0.9375,-13.59375 z M 42.439278,13.498222 C 43.074652,12.862849 40.291087,6.5625 39.375,6.5625 c -0.916087,0 -3.699652,6.300349 -3.064278,6.935722 0.73238,0.732379 5.396176,0.732379 6.128556,0 z M 14.0625,12.609694 C 14.0625,11.76797 11.237976,6.5625 10.78125,6.5625 10.324524,6.5625 7.5,11.76797 7.5,12.609694 c 0,0.283418 1.4765625,0.515306 3.28125,0.515306 1.804688,0 3.28125,-0.231888 3.28125,-0.515306 z"
     id="path3338"
     inkscape:connector-curvature="0" />
</svg>
