<?xml version="1.0" encoding="UTF-8" standalone="no"?>
<!-- Created with Inkscape (http://www.inkscape.org/) -->

<svg
   xmlns:dc="http://purl.org/dc/elements/1.1/"
   xmlns:cc="http://creativecommons.org/ns#"
   xmlns:rdf="http://www.w3.org/1999/02/22-rdf-syntax-ns#"
   xmlns:svg="http://www.w3.org/2000/svg"
   xmlns="http://www.w3.org/2000/svg"
   xmlns:sodipodi="http://sodipodi.sourceforge.net/DTD/sodipodi-0.dtd"
   xmlns:inkscape="http://www.inkscape.org/namespaces/inkscape"
   id="svg2"
   version="1.1"
   inkscape:version="0.91 r13725"
   width="47.8125"
   height="23.4375"
   viewBox="0 0 47.8125 23.4375"
   sodipodi:docname="lavanderia.svg">
  <metadata
     id="metadata8">
    <rdf:RDF>
      <cc:Work
         rdf:about="">
        <dc:format>image/svg+xml</dc:format>
        <dc:type
           rdf:resource="http://purl.org/dc/dcmitype/StillImage" />
        <dc:title></dc:title>
      </cc:Work>
    </rdf:RDF>
  </metadata>
  <defs
     id="defs6" />
  <sodipodi:namedview
     pagecolor="#ffffff"
     bordercolor="#666666"
     borderopacity="1"
     objecttolerance="10"
     gridtolerance="10"
     guidetolerance="10"
     inkscape:pageopacity="0"
     inkscape:pageshadow="2"
     inkscape:window-width="640"
     inkscape:window-height="480"
     id="namedview4"
     showgrid="false"
     inkscape:zoom="10.060131"
     inkscape:cx="23.90625"
     inkscape:cy="11.71875"
     inkscape:window-x="0"
     inkscape:window-y="0"
     inkscape:window-maximized="0"
     inkscape:current-layer="svg2" />
  <path
     style="fill:#000000"
     d="m 19.273899,19.375006 c -1.959021,-1.432472 -1.481447,-4.130699 0.861088,-4.865019 4.539569,-1.423031 4.56138,-1.43862 3.499012,-2.500988 -0.781044,-0.781044 -1.407897,-0.761268 -2.417053,0.07626 -1.027649,0.852873 -1.527758,0.863429 -2.034841,0.04295 C 17.743727,9.8008622 23.905267,8.3427673 26.0625,10.5 c 0.61875,0.61875 1.125,2.939062 1.125,5.15625 0,3.348956 -0.304369,4.03125 -1.798325,4.03125 -0.989077,0 -2.372277,0.220247 -3.073774,0.489437 -0.701499,0.26919 -2.070174,-0.09168 -3.041502,-0.801931 z M 24.375,16.305948 c 0,-1.49308 -0.839935,-1.635935 -2.698233,-0.458908 -0.710591,0.45008 -1.013486,1.268945 -0.673101,1.8197 0.820728,1.327968 3.371334,0.298452 3.371334,-1.360792 z M 6.5625,12.65625 c 0,-5.625 0.28125,-7.03125 1.40625,-7.03125 1.1057693,0 1.40625,1.3020833 1.40625,6.09375 l 0,6.09375 3.75,0 c 2.0625,0 3.75,0.421875 3.75,0.9375 0,0.515625 -2.320312,0.9375 -5.15625,0.9375 l -5.15625,0 0,-7.03125 z m 24.086811,2.578125 C 28.788466,10.042561 28.719939,9.375 30.047838,9.375 c 0.541935,0 1.655644,1.582031 2.474908,3.515625 l 1.489571,3.515625 1.105304,-3.224654 C 36.221066,9.9623653 38.4375,8.1302763 38.4375,10.437407 c 0,0.670261 -0.690128,3.02573 -1.533617,5.234375 -2.076445,5.437095 -4.202325,5.288425 -6.254572,-0.437407 z"
     id="path3338"
     inkscape:connector-curvature="0" />
</svg>
