<?xml version="1.0" encoding="UTF-8" standalone="no"?>
<!-- Created with Inkscape (http://www.inkscape.org/) -->

<svg
   xmlns:dc="http://purl.org/dc/elements/1.1/"
   xmlns:cc="http://creativecommons.org/ns#"
   xmlns:rdf="http://www.w3.org/1999/02/22-rdf-syntax-ns#"
   xmlns:svg="http://www.w3.org/2000/svg"
   xmlns="http://www.w3.org/2000/svg"
   xmlns:sodipodi="http://sodipodi.sourceforge.net/DTD/sodipodi-0.dtd"
   xmlns:inkscape="http://www.inkscape.org/namespaces/inkscape"
   id="svg2"
   version="1.1"
   inkscape:version="0.91 r13725"
   width="43.125"
   height="30"
   viewBox="0 0 43.125 30"
   sodipodi:docname="logistica_bld_mec.svg">
  <metadata
     id="metadata8">
    <rdf:RDF>
      <cc:Work
         rdf:about="">
        <dc:format>image/svg+xml</dc:format>
        <dc:type
           rdf:resource="http://purl.org/dc/dcmitype/StillImage" />
        <dc:title></dc:title>
      </cc:Work>
    </rdf:RDF>
  </metadata>
  <defs
     id="defs6" />
  <sodipodi:namedview
     pagecolor="#ffffff"
     bordercolor="#666666"
     borderopacity="1"
     objecttolerance="10"
     gridtolerance="10"
     guidetolerance="10"
     inkscape:pageopacity="0"
     inkscape:pageshadow="2"
     inkscape:window-width="640"
     inkscape:window-height="480"
     id="namedview4"
     showgrid="false"
     inkscape:zoom="7.8666667"
     inkscape:cx="21.5625"
     inkscape:cy="15"
     inkscape:window-x="0"
     inkscape:window-y="0"
     inkscape:window-maximized="0"
     inkscape:current-layer="svg2" />
  <path
     style="fill:#000000"
     d="M 8.2130709,25.88973 C 6.0890625,24.277016 3.75,18.617557 3.75,15.091142 3.75,11.44046 5.2761304,7.5370038 7.7258686,4.921875 9.5892947,2.9326428 10.43534,2.8125 22.580081,2.8125 l 12.878244,0 2.427087,2.88443 C 39.979333,8.1854131 40.3125,9.4624491 40.3125,15 c 0,5.537551 -0.333167,6.814587 -2.427088,9.30307 L 35.458325,27.1875 22.651037,27.157685 C 13.527227,27.136444 9.3747539,26.77177 8.2130709,25.88973 Z M 36.510209,23.489791 C 40.219462,19.780537 40.123414,10.081208 36.342547,6.558796 34.551984,4.8906322 33.030164,4.6875 22.323224,4.6875 11.677357,4.6875 10.105373,4.8946263 8.4897908,6.5102092 5.0794989,9.9205013 4.8344342,18.316752 8.0039983,23.154118 9.3643214,25.230233 9.8997909,25.3125 22.052862,25.3125 c 11.263815,0 12.832397,-0.197759 14.457347,-1.822709 z M 31.875,20.734342 c 0,-0.455487 -0.8748,-1.056924 -1.943999,-1.336526 -1.492687,-0.390346 -1.873569,-1.123083 -1.640625,-3.156216 0.247631,-2.161327 0.777085,-2.665233 2.881499,-2.742457 2.431964,-0.08924 2.578125,0.136642 2.578125,3.984375 0,2.24344 -0.421875,4.078982 -0.9375,4.078982 -0.515625,0 -0.9375,-0.372671 -0.9375,-0.828158 z m 0,-3.859342 C 31.875,15.84375 31.478023,15 30.992828,15 c -1.258453,0 -2.145205,1.706368 -1.461578,2.8125 0.979798,1.585347 2.34375,1.039767 2.34375,-0.9375 z m -18.75,-1.40625 c 0,-2.320312 0.421875,-4.21875 0.9375,-4.21875 0.515625,0 0.9375,1.658158 0.9375,3.684796 0,3.07589 0.348571,3.751934 2.109375,4.091079 1.525408,0.293806 1.265867,0.441628 -0.9375,0.533954 C 13.16685,19.685746 13.125,19.629554 13.125,15.46875 Z m 7.587282,2.917668 c -0.863181,-1.040069 -0.893329,-1.880306 -0.119354,-3.326491 1.792308,-3.348958 6.040255,-1.866465 5.504721,1.921095 -0.373974,2.644925 -3.647633,3.499237 -5.385367,1.405396 z m 4.131468,-1.576704 c 0,-0.723407 -0.738281,-1.457466 -1.640625,-1.631241 -1.616004,-0.311215 -2.284071,1.678081 -0.996094,2.966059 0.982694,0.982694 2.636719,0.145357 2.636719,-1.334818 z"
     id="path3338"
     inkscape:connector-curvature="0" />
</svg>
