<?xml version="1.0" encoding="UTF-8" standalone="no"?>
<!-- Created with Inkscape (http://www.inkscape.org/) -->

<svg
   xmlns:dc="http://purl.org/dc/elements/1.1/"
   xmlns:cc="http://creativecommons.org/ns#"
   xmlns:rdf="http://www.w3.org/1999/02/22-rdf-syntax-ns#"
   xmlns:svg="http://www.w3.org/2000/svg"
   xmlns="http://www.w3.org/2000/svg"
   xmlns:sodipodi="http://sodipodi.sourceforge.net/DTD/sodipodi-0.dtd"
   xmlns:inkscape="http://www.inkscape.org/namespaces/inkscape"
   id="svg2"
   version="1.1"
   inkscape:version="0.91 r13725"
   width="56.25"
   height="22.5"
   viewBox="0 0 56.25 22.5"
   sodipodi:docname="manutencao.svg">
  <metadata
     id="metadata8">
    <rdf:RDF>
      <cc:Work
         rdf:about="">
        <dc:format>image/svg+xml</dc:format>
        <dc:type
           rdf:resource="http://purl.org/dc/dcmitype/StillImage" />
        <dc:title></dc:title>
      </cc:Work>
    </rdf:RDF>
  </metadata>
  <defs
     id="defs6" />
  <sodipodi:namedview
     pagecolor="#ffffff"
     bordercolor="#666666"
     borderopacity="1"
     objecttolerance="10"
     gridtolerance="10"
     guidetolerance="10"
     inkscape:pageopacity="0"
     inkscape:pageshadow="2"
     inkscape:window-width="640"
     inkscape:window-height="480"
     id="namedview4"
     showgrid="false"
     inkscape:zoom="8.5511111"
     inkscape:cx="28.125"
     inkscape:cy="11.25"
     inkscape:window-x="0"
     inkscape:window-y="0"
     inkscape:window-maximized="0"
     inkscape:current-layer="svg2" />
  <path
     style="fill:#000000"
     d="m 8.4375,16.691734 c 0,-0.685915 0.9492188,-1.663563 2.109375,-2.172552 1.303568,-0.571905 2.22268,-1.910132 2.405978,-3.503102 C 13.187899,8.9733704 12.750126,8.2485653 10.843478,7.5236587 9.5201897,7.0205457 8.4375,6.1765911 8.4375,5.6482039 c 0,-1.8061676 3.550224,-0.9638411 5.760975,1.3668493 2.130251,2.2458234 2.635728,2.3275533 14.395275,2.3275533 11.759547,0 12.265024,-0.08173 14.395275,-2.3275533 C 45.123394,4.7648886 48.75,3.8219573 48.75,5.5171782 c 0,0.456323 -1.080535,1.5376722 -2.40119,2.4029982 -2.923315,1.9154295 -2.775715,5.2532076 0.291815,6.5990056 1.160156,0.508989 2.109375,1.486637 2.109375,2.172552 0,1.629303 -3.529256,0.597345 -6.154173,-1.799486 C 40.909772,13.352699 39.105687,13.125 28.59375,13.125 18.081813,13.125 16.277728,13.352699 14.591673,14.892248 11.966756,17.289079 8.4375,18.321037 8.4375,16.691734 Z"
     id="path3338"
     inkscape:connector-curvature="0" />
</svg>
