<?xml version="1.0" encoding="UTF-8" standalone="no"?>
<!-- Created with Inkscape (http://www.inkscape.org/) -->

<svg
   xmlns:dc="http://purl.org/dc/elements/1.1/"
   xmlns:cc="http://creativecommons.org/ns#"
   xmlns:rdf="http://www.w3.org/1999/02/22-rdf-syntax-ns#"
   xmlns:svg="http://www.w3.org/2000/svg"
   xmlns="http://www.w3.org/2000/svg"
   xmlns:sodipodi="http://sodipodi.sourceforge.net/DTD/sodipodi-0.dtd"
   xmlns:inkscape="http://www.inkscape.org/namespaces/inkscape"
   id="svg2"
   version="1.1"
   inkscape:version="0.91 r13725"
   width="40.3125"
   height="22.5"
   viewBox="0 0 40.3125 22.5"
   sodipodi:docname="manutencao_salvamento.svg">
  <metadata
     id="metadata8">
    <rdf:RDF>
      <cc:Work
         rdf:about="">
        <dc:format>image/svg+xml</dc:format>
        <dc:type
           rdf:resource="http://purl.org/dc/dcmitype/StillImage" />
        <dc:title></dc:title>
      </cc:Work>
    </rdf:RDF>
  </metadata>
  <defs
     id="defs6" />
  <sodipodi:namedview
     pagecolor="#ffffff"
     bordercolor="#666666"
     borderopacity="1"
     objecttolerance="10"
     gridtolerance="10"
     guidetolerance="10"
     inkscape:pageopacity="0"
     inkscape:pageshadow="2"
     inkscape:window-width="640"
     inkscape:window-height="480"
     id="namedview4"
     showgrid="false"
     inkscape:zoom="10.488889"
     inkscape:cx="20.15625"
     inkscape:cy="11.25"
     inkscape:window-x="0"
     inkscape:window-y="0"
     inkscape:window-maximized="0"
     inkscape:current-layer="svg2" />
  <path
     style="fill:#000000"
     d="m 6.5625,12.65625 c 0,-6.787643 0.077587,-7.03125 2.2394148,-7.03125 1.8447072,0 2.3554242,0.6183872 2.8976112,3.508485 1.021133,5.443111 1.72337,5.73252 2.83084,1.166659 0.783486,-3.2301496 1.500332,-4.2759221 3.088706,-4.5059731 1.977117,-0.2863541 2.068428,0.013693 2.068428,6.7968751 0,4.10597 -0.395067,7.096454 -0.9375,7.096454 -0.515625,0 -0.94396,-2.214844 -0.951856,-4.921875 -0.01607,-5.5086188 -1.335792,-4.709204 -2.374402,1.438279 -0.836854,4.95329 -3.263158,4.334919 -4.741062,-1.208314 L 9.5590781,10.78125 9.4670391,15.234375 C 9.3989897,18.526802 9.0084638,19.6875 7.96875,19.6875 c -1.125,0 -1.40625,-1.40625 -1.40625,-7.03125 z m 16.907985,5.217882 C 22.936718,16.87678 22.5,15.822093 22.5,15.530382 c 0,-1.045732 2.03629,-0.50302 3.462006,0.922695 1.755412,1.755413 4.378189,1.424867 4.768325,-0.600947 0.192996,-1.002142 -0.891758,-1.822087 -3.407844,-2.575925 C 23.242363,12.05377 22.005532,10.175656 23.473847,7.4320854 24.858533,4.8447758 31.416993,4.8924716 32.8125,7.5 33.663181,9.0895121 33.525459,9.375 31.907985,9.375 30.858593,9.375 30,8.953125 30,8.4375 c 0,-1.2235792 -3.466387,-1.2173503 -4.22344,0.00759 -0.321253,0.5197991 1.341348,1.7704318 3.694671,2.7791838 3.335142,1.429608 4.278769,2.316975 4.278769,4.023661 0,3.117296 -1.721357,4.439566 -5.779515,4.439566 -2.530039,0 -3.804335,-0.513503 -4.5,-1.813368 z"
     id="path3338"
     inkscape:connector-curvature="0" />
</svg>
