<?xml version="1.0" encoding="UTF-8" standalone="no"?>
<!-- Created with Inkscape (http://www.inkscape.org/) -->

<svg
   xmlns:dc="http://purl.org/dc/elements/1.1/"
   xmlns:cc="http://creativecommons.org/ns#"
   xmlns:rdf="http://www.w3.org/1999/02/22-rdf-syntax-ns#"
   xmlns:svg="http://www.w3.org/2000/svg"
   xmlns="http://www.w3.org/2000/svg"
   xmlns:sodipodi="http://sodipodi.sourceforge.net/DTD/sodipodi-0.dtd"
   xmlns:inkscape="http://www.inkscape.org/namespaces/inkscape"
   id="svg2"
   version="1.1"
   inkscape:version="0.91 r13725"
   width="53.4375"
   height="29.0625"
   viewBox="0 0 53.4375 29.0625"
   sodipodi:docname="montanha.svg">
  <metadata
     id="metadata8">
    <rdf:RDF>
      <cc:Work
         rdf:about="">
        <dc:format>image/svg+xml</dc:format>
        <dc:type
           rdf:resource="http://purl.org/dc/dcmitype/StillImage" />
        <dc:title></dc:title>
      </cc:Work>
    </rdf:RDF>
  </metadata>
  <defs
     id="defs6" />
  <sodipodi:namedview
     pagecolor="#ffffff"
     bordercolor="#666666"
     borderopacity="1"
     objecttolerance="10"
     gridtolerance="10"
     guidetolerance="10"
     inkscape:pageopacity="0"
     inkscape:pageshadow="2"
     inkscape:window-width="640"
     inkscape:window-height="480"
     id="namedview4"
     showgrid="false"
     inkscape:zoom="8.1204301"
     inkscape:cx="26.71875"
     inkscape:cy="14.53125"
     inkscape:window-x="0"
     inkscape:window-y="0"
     inkscape:window-maximized="0"
     inkscape:current-layer="svg2" />
  <path
     style="fill:#000000"
     d="M 4.3159592,27.10015 C 2.8213881,24.681883 8.6933864,9.0532309 11.096549,9.0532309 c 1.04026,0 3.332528,2.7350831 5.10716,6.0937501 0.876751,1.659338 1.501442,2.188685 1.523586,1.291048 0.05621,-2.278515 3.431989,-9.3633865 5.919787,-12.4240828 l 2.190986,-2.6955347 2.483291,2.9512247 c 1.365811,1.6231736 3.413773,5.5031527 4.551025,8.6221758 l 2.067732,5.67095 1.196887,-2.64539 c 0.658289,-1.454965 2.027504,-3.679284 3.042699,-4.942931 1.51309,-1.8833921 2.096712,-2.0893103 3.23772,-1.1423578 2.027006,1.6822648 5.163963,9.4591458 5.513987,13.6698138 0.458758,5.518691 -1.669005,5.24195 -2.325661,-0.30248 -0.593842,-5.014064 -2.909691,-10.396186 -4.473328,-10.396186 -1.522523,0 -4.574393,7.624282 -4.597,11.484375 -0.02942,5.022512 -2.414781,4.673965 -3.208014,-0.46875 -0.822584,-5.333004 -4.0312,-14.7856657 -5.807616,-17.1093751 -1.433388,-1.875 -1.433388,-1.875 -2.887251,0 -2.778941,3.5839111 -5.006701,9.7025861 -5.60026,15.3814401 -0.761755,7.288088 -2.680286,7.648617 -3.403679,0.639617 C 15.08198,17.434293 12.625084,12.485724 10.837449,13.080419 9.4857125,13.530102 6.6315119,20.9815 6.5658151,24.232278 6.5147331,26.759902 5.167236,28.477545 4.3159592,27.10015 Z"
     id="path3338"
     inkscape:connector-curvature="0" />
</svg>
