<?xml version="1.0" encoding="UTF-8"?>
<!DOCTYPE svg PUBLIC "-//W3C//DTD SVG 1.1//EN" "http://www.w3.org/Graphics/SVG/1.1/DTD/svg11.dtd">
<!-- Creator: CorelDRAW -->
<svg xmlns="http://www.w3.org/2000/svg" xml:space="preserve" width="60px" height="60px" style="shape-rendering:geometricPrecision; text-rendering:geometricPrecision; image-rendering:optimizeQuality; fill-rule:evenodd; clip-rule:evenodd"
viewBox="0 0 60 60"
 xmlns:xlink="http://www.w3.org/1999/xlink">
 <defs>
  <style type="text/css">
   <![CDATA[
    .fil0 {fill:#1F1A17;fill-rule:nonzero}
   ]]>
  </style>
 </defs>
 <g id="Camada_x0020_1">
  <metadata id="CorelCorpID_0Corel-Layer"/>
  <path class="fil0" d="M13.8083 29.152c0,-1.20236 0.322441,-2.14488 0.968504,-2.82402 0.647244,-0.680315 1.47992,-1.02165 2.50276,-1.02165 0.668504,0 1.27205,0.16063 1.80945,0.479528 0.53622,0.320079 0.946063,0.766535 1.22835,1.33819 0.281102,0.570472 0.421654,1.22008 0.421654,1.94409 0,0.735827 -0.146457,1.3937 -0.444094,1.97244 -0.296457,0.579921 -0.716929,1.01929 -1.26024,1.31811 -0.545669,0.298819 -1.13031,0.446457 -1.75984,0.446457 -0.683858,0 -1.29331,-0.162992 -1.82953,-0.493701 -0.538583,-0.329528 -0.944882,-0.779528 -1.22126,-1.35 -0.277559,-0.569291 -0.415748,-1.17283 -0.415748,-1.80945zm0.989764 0.0153543c0,0.874016 0.233858,1.56142 0.702756,2.06339 0.47126,0.50315 1.05945,0.754724 1.76929,0.754724 0.721654,0 1.31575,-0.252756 1.7811,-0.76063 0.465354,-0.507874 0.700394,-1.22835 0.700394,-2.16142 0,-0.58937 -0.101575,-1.10433 -0.3,-1.54488 -0.199606,-0.440551 -0.491339,-0.780709 -0.874016,-1.02402 -0.385039,-0.240945 -0.814961,-0.362598 -1.29331,-0.362598 -0.679134,0 -1.26378,0.232677 -1.75276,0.700394 -0.488976,0.465354 -0.733465,1.24488 -0.733465,2.33504z"/>
  <path id="1" class="fil0" d="M21.8634 34.6937l0 -7.26142 0.810236 0 0 0.682677c0.190157,-0.266929 0.406299,-0.467717 0.647244,-0.601181 0.239764,-0.133465 0.531496,-0.200787 0.874016,-0.200787 0.448819,0 0.844488,0.116929 1.18701,0.346063 0.343701,0.231496 0.602362,0.556299 0.775984,0.976772 0.174803,0.420472 0.263386,0.881102 0.263386,1.38189 0,0.53622 -0.0968504,1.02047 -0.290551,1.45157 -0.19252,0.429921 -0.472441,0.759449 -0.840945,0.988583 -0.367323,0.227953 -0.753543,0.34252 -1.15866,0.34252 -0.297638,0 -0.562205,-0.0625984 -0.798425,-0.187795 -0.23622,-0.124016 -0.42874,-0.283465 -0.579921,-0.473622l0 2.55472 -0.88937 0zm0.804331 -4.6063c0,0.674409 0.137008,1.17402 0.409843,1.49764 0.274016,0.322441 0.605906,0.484252 0.994488,0.484252 0.394488,0 0.733465,-0.166535 1.01575,-0.501969 0.282283,-0.334252 0.424016,-0.852756 0.424016,-1.55433 0,-0.669685 -0.13937,-1.16929 -0.413386,-1.50354 -0.275197,-0.333071 -0.604724,-0.499606 -0.98622,-0.499606 -0.379134,0 -0.715748,0.177165 -1.00748,0.531496 -0.291732,0.354331 -0.437008,0.870472 -0.437008,1.54606z"/>
  <polygon id="12" class="fil0" points="30.4406,32.6823 30.4406,25.435 35.6799,25.435 35.6799,26.2902 31.3984,26.2902 31.3984,28.5094 35.4083,28.5094 35.4083,29.3598 31.3984,29.3598 31.3984,31.8272 35.8476,31.8272 35.8476,32.6823 "/>
  <path id="123" class="fil0" d="M36.7039 31.115l0.879921 -0.138189c0.0484252,0.351969 0.186614,0.622441 0.413386,0.811417 0.224409,0.186614 0.539764,0.281102 0.946063,0.281102 0.408661,0 0.712205,-0.0838583 0.909449,-0.249213 0.197244,-0.166535 0.297638,-0.362598 0.297638,-0.585827 0,-0.201969 -0.0885827,-0.359055 -0.263386,-0.475984 -0.121654,-0.0791339 -0.425197,-0.178346 -0.909449,-0.3 -0.651969,-0.165354 -1.10551,-0.307087 -1.35709,-0.42874 -0.251575,-0.119291 -0.444094,-0.287008 -0.574016,-0.499606 -0.129921,-0.212598 -0.194882,-0.446457 -0.194882,-0.703937 0,-0.233858 0.0531496,-0.45 0.161811,-0.649606 0.106299,-0.200787 0.252756,-0.366142 0.437008,-0.497244 0.138189,-0.101575 0.327165,-0.188976 0.564567,-0.259843 0.239764,-0.0708661 0.496063,-0.106299 0.770079,-0.106299 0.411024,0 0.772441,0.0602362 1.08425,0.178346 0.312992,0.11811 0.542126,0.27874 0.690945,0.48189 0.148819,0.20315 0.249213,0.473622 0.304724,0.812598l-0.86811 0.120472c-0.0413386,-0.270472 -0.155906,-0.48189 -0.344882,-0.633071 -0.188976,-0.152362 -0.457087,-0.227953 -0.80315,-0.227953 -0.408661,0 -0.700394,0.0673228 -0.874016,0.201969 -0.174803,0.135827 -0.263386,0.294094 -0.263386,0.474803 0,0.115748 0.0377953,0.219685 0.109843,0.311811 0.0732283,0.0968504 0.185433,0.173622 0.341339,0.238583 0.0885827,0.0318898 0.350787,0.10748 0.785433,0.225591 0.629528,0.168898 1.0689,0.305906 1.31693,0.413386 0.249213,0.106299 0.445276,0.263386 0.587008,0.467717 0.141732,0.204331 0.212598,0.457087 0.212598,0.76063 0,0.297638 -0.0874016,0.575197 -0.259843,0.838583 -0.173622,0.262205 -0.424016,0.464173 -0.748819,0.608268 -0.325984,0.142913 -0.695669,0.21378 -1.10787,0.21378 -0.682677,0 -1.20236,-0.141732 -1.56024,-0.425197 -0.357874,-0.283465 -0.585827,-0.703937 -0.683858,-1.26024z"/>
  <path id="1234" class="fil0" d="M42.1228 34.6937l0 -7.26142 0.810236 0 0 0.682677c0.190157,-0.266929 0.406299,-0.467717 0.647244,-0.601181 0.239764,-0.133465 0.531496,-0.200787 0.874016,-0.200787 0.448819,0 0.844488,0.116929 1.18701,0.346063 0.343701,0.231496 0.602362,0.556299 0.775984,0.976772 0.174803,0.420472 0.263386,0.881102 0.263386,1.38189 0,0.53622 -0.0968504,1.02047 -0.290551,1.45157 -0.19252,0.429921 -0.472441,0.759449 -0.840945,0.988583 -0.367323,0.227953 -0.753543,0.34252 -1.15866,0.34252 -0.297638,0 -0.562205,-0.0625984 -0.798425,-0.187795 -0.23622,-0.124016 -0.42874,-0.283465 -0.579921,-0.473622l0 2.55472 -0.88937 0zm0.804331 -4.6063c0,0.674409 0.137008,1.17402 0.409843,1.49764 0.274016,0.322441 0.605906,0.484252 0.994488,0.484252 0.394488,0 0.733465,-0.166535 1.01575,-0.501969 0.282283,-0.334252 0.424016,-0.852756 0.424016,-1.55433 0,-0.669685 -0.13937,-1.16929 -0.413386,-1.50354 -0.275197,-0.333071 -0.604724,-0.499606 -0.98622,-0.499606 -0.379134,0 -0.715748,0.177165 -1.00748,0.531496 -0.291732,0.354331 -0.437008,0.870472 -0.437008,1.54606z"/>
 </g>
</svg>
