<?xml version="1.0" encoding="UTF-8" standalone="no"?>
<!-- Created with Inkscape (http://www.inkscape.org/) -->

<svg
   xmlns:dc="http://purl.org/dc/elements/1.1/"
   xmlns:cc="http://creativecommons.org/ns#"
   xmlns:rdf="http://www.w3.org/1999/02/22-rdf-syntax-ns#"
   xmlns:svg="http://www.w3.org/2000/svg"
   xmlns="http://www.w3.org/2000/svg"
   xmlns:sodipodi="http://sodipodi.sourceforge.net/DTD/sodipodi-0.dtd"
   xmlns:inkscape="http://www.inkscape.org/namespaces/inkscape"
   id="svg2"
   version="1.1"
   inkscape:version="0.91 r13725"
   width="59.0625"
   height="29.0625"
   viewBox="0 0 59.0625 29.0625"
   sodipodi:docname="op_pscicologicas.svg">
  <metadata
     id="metadata8">
    <rdf:RDF>
      <cc:Work
         rdf:about="">
        <dc:format>image/svg+xml</dc:format>
        <dc:type
           rdf:resource="http://purl.org/dc/dcmitype/StillImage" />
        <dc:title></dc:title>
      </cc:Work>
    </rdf:RDF>
  </metadata>
  <defs
     id="defs6" />
  <sodipodi:namedview
     pagecolor="#ffffff"
     bordercolor="#666666"
     borderopacity="1"
     objecttolerance="10"
     gridtolerance="10"
     guidetolerance="10"
     inkscape:pageopacity="0"
     inkscape:pageshadow="2"
     inkscape:window-width="640"
     inkscape:window-height="480"
     id="namedview4"
     showgrid="false"
     inkscape:zoom="8.1204301"
     inkscape:cx="29.53125"
     inkscape:cy="14.53125"
     inkscape:window-x="0"
     inkscape:window-y="0"
     inkscape:window-maximized="0"
     inkscape:current-layer="svg2" />
  <path
     style="fill:#000000"
     d="M 34.469015,24.297356 C 29.320498,21.223004 29.293432,21.218331 16.42214,21.181889 l -12.8906252,-0.0365 0,-6.09375 0,-6.0937501 11.9680032,0 11.968003,0 6.313247,-3.6892491 6.313247,-3.689249 0,3.175764 0,3.175764 5.859375,0.3328479 5.859375,0.3328481 -5.826578,0.1806371 -5.826579,0.180637 -0.267171,9.2092171 -0.267172,9.209217 -5.15625,-3.07897 z m 4.49786,-15.2938681 -0.27911,-5.5794039 -5.15625,3.2144796 -5.15625,3.2144793 -12.002119,0.021175 -12.002118,0.021174 0.2833684,4.9218751 0.2833684,4.921875 11.9577672,0.159671 c 11.471324,0.153176 12.1578,0.275348 16.875,3.003259 l 4.917233,2.843588 0.27911,-5.581384 c 0.153511,-3.069762 0.153511,-8.092116 0,-11.1607881 z M 42.67214,22.358767 c 1.160156,-0.223456 3.058594,-0.223456 4.21875,0 1.160156,0.223456 0.210937,0.406284 -2.109375,0.406284 -2.320313,0 -3.269531,-0.182828 -2.109375,-0.406284 z m 0.95429,-2.83031 c 1.685015,-0.208652 4.216265,-0.204346 5.625,0.0096 1.408734,0.213913 0.03008,0.384628 -3.063665,0.379366 -3.09375,-0.0052 -4.246351,-0.180282 -2.561335,-0.388933 z m -0.95429,-2.79469 c 1.160156,-0.223456 3.058594,-0.223456 4.21875,0 1.160156,0.223456 0.210937,0.406284 -2.109375,0.406284 -2.320313,0 -3.269531,-0.182828 -2.109375,-0.406284 z m 0.95429,-2.83031 c 1.685015,-0.208652 4.216265,-0.204346 5.625,0.0096 1.408734,0.213913 0.03008,0.384628 -3.063665,0.379366 -3.09375,-0.0053 -4.246351,-0.180282 -2.561335,-0.388933 z m -0.95429,-2.79469 c 1.160156,-0.223456 3.058594,-0.223456 4.21875,0 1.160156,0.223456 0.210937,0.406284 -2.109375,0.406284 -2.320313,0 -3.269531,-0.182828 -2.109375,-0.406284 z"
     id="path3338"
     inkscape:connector-curvature="0" />
</svg>
