<?xml version="1.0" encoding="UTF-8"?>
<!DOCTYPE svg PUBLIC "-//W3C//DTD SVG 1.1//EN" "http://www.w3.org/Graphics/SVG/1.1/DTD/svg11.dtd">
<!-- Creator: CorelDRAW -->
<svg xmlns="http://www.w3.org/2000/svg" xml:space="preserve" width="60px" height="60px" style="shape-rendering:geometricPrecision; text-rendering:geometricPrecision; image-rendering:optimizeQuality; fill-rule:evenodd; clip-rule:evenodd"
viewBox="0 0 60 60">
 <defs>
  <style type="text/css">
   <![CDATA[
    .str0 {stroke:#1F1A17;stroke-width:0.9}
    .fil0 {fill:none}
   ]]>
  </style>
 </defs>
 <g id="Camada_x0020_1">
  <metadata id="CorelCorpID_0Corel-Layer"/>
  <path fill="black" d="M39.9992 -0.00708661c2.20866,0 3.99921,1.79409 3.99921,4.0063 0,2.2122 -1.79055,4.00512 -3.99921,4.00512 -2.20866,0 -4.00039,-1.79291 -4.00039,-4.00512 0,-2.2122 1.79173,-4.0063 4.00039,-4.0063z"/>
  <path fill="black" d="M30.0012 -0.00708661c2.20866,0 3.99921,1.79409 3.99921,4.0063 0,2.2122 -1.79055,4.00512 -3.99921,4.00512 -2.20866,0 -4.00039,-1.79291 -4.00039,-4.00512 0,-2.2122 1.79173,-4.0063 4.00039,-4.0063z"/>
  <path fill="black" d="M20.002 -0.00708661c2.20866,0 3.99921,1.79409 3.99921,4.0063 0,2.2122 -1.79055,4.00512 -3.99921,4.00512 -2.20866,0 -4.00039,-1.79291 -4.00039,-4.00512 0,-2.2122 1.79173,-4.0063 4.00039,-4.0063z"/>
 </g>
</svg>
