<?xml version="1.0" encoding="UTF-8" standalone="no"?>
<!-- Created with Inkscape (http://www.inkscape.org/) -->

<svg
   xmlns:dc="http://purl.org/dc/elements/1.1/"
   xmlns:cc="http://creativecommons.org/ns#"
   xmlns:rdf="http://www.w3.org/1999/02/22-rdf-syntax-ns#"
   xmlns:svg="http://www.w3.org/2000/svg"
   xmlns="http://www.w3.org/2000/svg"
   xmlns:sodipodi="http://sodipodi.sourceforge.net/DTD/sodipodi-0.dtd"
   xmlns:inkscape="http://www.inkscape.org/namespaces/inkscape"
   id="svg2"
   version="1.1"
   inkscape:version="0.91 r13725"
   width="44.0625"
   height="32.8125"
   viewBox="0 0 44.0625 32.8125"
   sodipodi:docname="postal.svg">
  <metadata
     id="metadata8">
    <rdf:RDF>
      <cc:Work
         rdf:about="">
        <dc:format>image/svg+xml</dc:format>
        <dc:type
           rdf:resource="http://purl.org/dc/dcmitype/StillImage" />
        <dc:title></dc:title>
      </cc:Work>
    </rdf:RDF>
  </metadata>
  <defs
     id="defs6" />
  <sodipodi:namedview
     pagecolor="#ffffff"
     bordercolor="#666666"
     borderopacity="1"
     objecttolerance="10"
     gridtolerance="10"
     guidetolerance="10"
     inkscape:pageopacity="0"
     inkscape:pageshadow="2"
     inkscape:window-width="640"
     inkscape:window-height="480"
     id="namedview4"
     showgrid="false"
     inkscape:zoom="7.192381"
     inkscape:cx="22.03125"
     inkscape:cy="16.40625"
     inkscape:window-x="0"
     inkscape:window-y="0"
     inkscape:window-maximized="0"
     inkscape:current-layer="svg2" />
  <path
     style="fill:#000000"
     d="m 3.610964,16.370498 0,-13.5937501 18.75,0 18.75,0 0,13.5937501 0,13.59375 -18.75,0 -18.75,0 0,-13.59375 z m 29.472273,8.820585 c -4.806514,-5.058998 -7.781444,-6.812922 -9.349067,-5.511911 -1.077863,0.894546 -1.668549,0.894546 -2.746412,0 -1.567623,-1.301011 -4.542553,0.452913 -9.349067,5.511911 l -2.753523,2.898165 13.475796,0 13.475796,0 -2.753523,-2.898165 z M 12.146719,22.302575 c 3.066367,-2.667045 5.458839,-5.092826 5.316604,-5.390625 -0.142235,-0.297799 -2.895328,-3.031451 -6.117984,-6.074783 l -5.859375,-5.5333322 0,10.9239572 c 0,6.008176 0.2442467,10.923956 0.5427703,10.923956 0.2985237,0 3.0516166,-2.182128 6.1179847,-4.849173 z m 27.089245,-5.932077 c 0,-5.929687 -0.329613,-10.7812501 -0.732472,-10.7812501 -0.402859,0 -3.250516,2.5526554 -6.328125,5.6725681 l -5.595653,5.672567 5.625,5.072134 c 3.09375,2.789674 5.941406,5.088582 6.328125,5.108683 0.386719,0.0201 0.703125,-4.815015 0.703125,-10.744702 z m -10.3125,-4.6875 6.984323,-7.0312501 -14.015573,0 -14.0155733,0 6.9843233,7.0312501 c 3.841378,3.867187 7.005441,7.03125 7.03125,7.03125 0.02581,0 3.189872,-3.164063 7.03125,-7.03125 z"
     id="path3338"
     inkscape:connector-curvature="0" />
</svg>
