<?xml version="1.0" encoding="UTF-8" standalone="no"?>
<!-- Created with Inkscape (http://www.inkscape.org/) -->

<svg
   xmlns:dc="http://purl.org/dc/elements/1.1/"
   xmlns:cc="http://creativecommons.org/ns#"
   xmlns:rdf="http://www.w3.org/1999/02/22-rdf-syntax-ns#"
   xmlns:svg="http://www.w3.org/2000/svg"
   xmlns="http://www.w3.org/2000/svg"
   xmlns:sodipodi="http://sodipodi.sourceforge.net/DTD/sodipodi-0.dtd"
   xmlns:inkscape="http://www.inkscape.org/namespaces/inkscape"
   id="svg2"
   version="1.1"
   inkscape:version="0.91 r13725"
   width="31.875"
   height="23.4375"
   viewBox="0 0 31.875 23.4375"
   sodipodi:docname="Prisioneiro_guerra.svg">
  <metadata
     id="metadata8">
    <rdf:RDF>
      <cc:Work
         rdf:about="">
        <dc:format>image/svg+xml</dc:format>
        <dc:type
           rdf:resource="http://purl.org/dc/dcmitype/StillImage" />
        <dc:title></dc:title>
      </cc:Work>
    </rdf:RDF>
  </metadata>
  <defs
     id="defs6" />
  <sodipodi:namedview
     pagecolor="#ffffff"
     bordercolor="#666666"
     borderopacity="1"
     objecttolerance="10"
     gridtolerance="10"
     guidetolerance="10"
     inkscape:pageopacity="0"
     inkscape:pageshadow="2"
     inkscape:window-width="640"
     inkscape:window-height="480"
     id="namedview4"
     showgrid="false"
     inkscape:zoom="10.069333"
     inkscape:cx="15.9375"
     inkscape:cy="11.71875"
     inkscape:window-x="0"
     inkscape:window-y="0"
     inkscape:window-maximized="0"
     inkscape:current-layer="svg2" />
  <path
     style="fill:#000000"
     d="m 2.8125,12.65625 0,-7.03125 4.6545152,0 c 4.5431288,0 6.5954848,1.4186209 6.5954848,4.558903 0,1.836979 -2.996139,3.878597 -5.6919643,3.878597 -2.4255953,0 -2.7455357,0.327743 -2.7455357,2.8125 0,1.875 -0.46875,2.8125 -1.40625,2.8125 -1.125,0 -1.40625,-1.40625 -1.40625,-7.03125 z M 9.4017216,11.235699 C 11.758885,9.9741834 10.743386,7.5 7.868448,7.5 6.3179833,7.5 5.625,8.0309082 5.625,9.21875 c 0,2.917728 1.0479125,3.477363 3.7767216,2.016949 z m 8.5741974,6.282003 C 15.45584,14.8352 15.329194,10.333946 17.691712,7.41636 19.978054,4.592847 25.841113,4.3903597 27.798547,7.0673091 29.503314,9.3987178 27.889437,10.0675 24.690269,8.3553595 21.727857,6.7699246 19.333533,8.1302494 18.916633,11.635626 c -0.393394,3.30774 1.420428,5.405605 4.368322,5.052397 C 26.185692,16.340466 27.199224,14.0625 24.453125,14.0625 23.378906,14.0625 22.5,13.640625 22.5,13.125 c 0,-0.515625 1.476562,-0.9375 3.28125,-0.9375 3.01218,0 3.28125,0.227926 3.28125,2.779515 0,4.909376 -7.294153,6.587541 -11.086581,2.550687 z"
     id="path3338"
     inkscape:connector-curvature="0" />
</svg>
