<?xml version="1.0" encoding="UTF-8" standalone="no"?>
<!-- Created with Inkscape (http://www.inkscape.org/) -->

<svg
   xmlns:dc="http://purl.org/dc/elements/1.1/"
   xmlns:cc="http://creativecommons.org/ns#"
   xmlns:rdf="http://www.w3.org/1999/02/22-rdf-syntax-ns#"
   xmlns:svg="http://www.w3.org/2000/svg"
   xmlns="http://www.w3.org/2000/svg"
   xmlns:sodipodi="http://sodipodi.sourceforge.net/DTD/sodipodi-0.dtd"
   xmlns:inkscape="http://www.inkscape.org/namespaces/inkscape"
   id="svg2"
   version="1.1"
   inkscape:version="0.91 r13725"
   width="55.3125"
   height="30.9375"
   viewBox="0 0 55.3125 30.9375"
   sodipodi:docname="sar.svg">
  <metadata
     id="metadata8">
    <rdf:RDF>
      <cc:Work
         rdf:about="">
        <dc:format>image/svg+xml</dc:format>
        <dc:type
           rdf:resource="http://purl.org/dc/dcmitype/StillImage" />
        <dc:title></dc:title>
      </cc:Work>
    </rdf:RDF>
  </metadata>
  <defs
     id="defs6" />
  <sodipodi:namedview
     pagecolor="#ffffff"
     bordercolor="#666666"
     borderopacity="1"
     objecttolerance="10"
     gridtolerance="10"
     guidetolerance="10"
     inkscape:pageopacity="0"
     inkscape:pageshadow="2"
     inkscape:window-width="640"
     inkscape:window-height="480"
     id="namedview4"
     showgrid="false"
     inkscape:zoom="7.6282828"
     inkscape:cx="27.65625"
     inkscape:cy="15.46875"
     inkscape:window-x="0"
     inkscape:window-y="0"
     inkscape:window-maximized="0"
     inkscape:current-layer="svg2" />
  <path
     style="fill:#000000"
     d="m 22.193648,26.800049 c -5.042465,-2.775297 -8.92654,-2.879268 -13.0751644,-0.350006 -1.7294717,1.054394 -3.6279092,1.750401 -4.2187503,1.54668 -1.704751,-0.587793 4.9597594,-4.23337 8.9810717,-4.912766 2.820174,-0.476466 4.665965,-0.113831 8.119155,1.595133 l 4.469209,2.211787 3.116455,-1.820107 c 1.790263,-1.04557 4.962787,-1.847972 7.455202,-1.885587 4.265344,-0.06437 12.253401,2.735987 12.253401,4.295652 0,1.286182 -1.544798,0.926706 -5.144388,-1.197103 -4.150309,-2.448743 -10.570165,-2.030844 -14.60273,0.95056 -1.472327,1.088539 -2.79951,1.947817 -2.949295,1.909507 -0.149785,-0.03831 -2.13166,-1.092997 -4.404166,-2.34375 z M 8.5515002,14.921457 c -1.775196,-2.534447 -0.4176803,-3.283221 2.3887048,-1.317552 1.103727,0.77308 2.591157,1.181353 3.305399,0.907273 C 16.649841,13.588585 15.570419,11.69566 11.794227,10.21233 8.7557971,9.0188006 8.0442267,8.2758431 8.0442267,6.2969169 c 0,-4.1505549 6.4659533,-5.43240091 9.4239343,-1.8682523 1.582438,1.9067218 0.277293,2.9395461 -1.95385,1.5461748 -2.432672,-1.5192298 -4.657584,-1.4388663 -4.657584,0.1682315 0,0.7175396 1.157797,1.5952057 2.572881,1.9503693 3.505908,0.8799273 4.927119,2.2186228 4.927119,4.6410548 0,2.871114 -1.751027,4.291458 -5.29059,4.291458 -2.088349,0 -3.5022265,-0.659078 -4.5146368,-2.104496 z m 11.6802268,1.68938 c 0,-0.228313 1.103566,-3.392375 2.45237,-7.0312496 3.305963,-8.91900561 4.846282,-8.84480841 8.617721,0.415116 2.592361,6.3649596 2.702512,7.0312496 1.162412,7.0312496 -0.935726,0 -1.921965,-0.84375 -2.191643,-1.875 -0.35406,-1.353929 -1.278765,-1.875 -3.327416,-1.875 -2.013725,0 -3.0098,0.544153 -3.432194,1.875 -0.494883,1.559237 -3.28125,2.79894 -3.28125,1.459884 z M 28.300779,9.9180284 C 27.9878,9.1024181 27.718309,7.9422622 27.701912,7.3399026 c -0.03257,-1.1961748 -2.782685,2.0679088 -2.782685,3.3027344 0,0.417074 0.888886,0.758316 1.975302,0.758316 1.416052,0 1.814191,-0.419848 1.40625,-1.4829246 z m 7.868448,0.07667 0,-7.03125 4.5,0 c 2.475,0 5.00625,0.50625 5.625,1.125 1.542069,1.5420692 1.411656,4.0325132 -0.284896,5.440526 -1.242754,1.0313936 -1.178119,1.5451356 0.545212,4.3335416 1.890406,3.058743 1.89577,3.163432 0.162064,3.163432 -0.986174,0 -2.374977,-1.087353 -3.086229,-2.41634 -0.711251,-1.328981 -2.048165,-2.820387 -2.970918,-3.314229 -1.464915,-0.783999 -1.677733,-0.47749 -1.677733,2.416339 0,2.320987 -0.421441,3.314235 -1.40625,3.314235 -1.125,0 -1.40625,-1.40625 -1.40625,-7.0312496 z m 7.96875,-3.281245 c 0,-0.8371767 -1.043301,-1.526295 -2.578125,-1.7028959 -2.099375,-0.2415597 -2.578125,0.074663 -2.578125,1.7028959 0,1.6282326 0.47875,1.9444556 2.578125,1.7028959 1.534824,-0.1766009 2.578125,-0.8657192 2.578125,-1.7028959 z"
     id="path3338"
     inkscape:connector-curvature="0" />
</svg>
