<?xml version="1.0" encoding="UTF-8" standalone="no"?>
<!-- Created with Inkscape (http://www.inkscape.org/) -->

<svg
   xmlns:dc="http://purl.org/dc/elements/1.1/"
   xmlns:cc="http://creativecommons.org/ns#"
   xmlns:rdf="http://www.w3.org/1999/02/22-rdf-syntax-ns#"
   xmlns:svg="http://www.w3.org/2000/svg"
   xmlns="http://www.w3.org/2000/svg"
   xmlns:sodipodi="http://sodipodi.sourceforge.net/DTD/sodipodi-0.dtd"
   xmlns:inkscape="http://www.inkscape.org/namespaces/inkscape"
   id="svg2"
   version="1.1"
   inkscape:version="0.91 r13725"
   width="48.75"
   height="22.5"
   viewBox="0 0 48.75 22.5"
   sodipodi:docname="SAR_solo.svg">
  <metadata
     id="metadata8">
    <rdf:RDF>
      <cc:Work
         rdf:about="">
        <dc:format>image/svg+xml</dc:format>
        <dc:type
           rdf:resource="http://purl.org/dc/dcmitype/StillImage" />
        <dc:title></dc:title>
      </cc:Work>
    </rdf:RDF>
  </metadata>
  <defs
     id="defs6" />
  <sodipodi:namedview
     pagecolor="#ffffff"
     bordercolor="#666666"
     borderopacity="1"
     objecttolerance="10"
     gridtolerance="10"
     guidetolerance="10"
     inkscape:pageopacity="0"
     inkscape:pageshadow="2"
     inkscape:window-width="640"
     inkscape:window-height="480"
     id="namedview4"
     showgrid="false"
     inkscape:zoom="9.8666667"
     inkscape:cx="24.375"
     inkscape:cy="11.25"
     inkscape:window-x="0"
     inkscape:window-y="0"
     inkscape:window-maximized="0"
     inkscape:current-layer="svg2" />
  <path
     style="fill:#000000"
     d="M 5.8238769,16.387288 C 3.9869356,14.846883 3.8405576,14.380186 4.9629298,13.642333 c 0.9365717,-0.615706 1.6761296,-0.446119 2.4057161,0.55165 1.2623362,1.726347 4.6794961,1.294421 4.6794961,-0.591484 0,-0.733599 -1.361356,-1.686579 -3.0252348,-2.117734 C 4.9537339,10.430336 3.3598102,7.4672607 5.5562201,5.0402552 8.1030673,2.2260206 14.391892,3.30591 14.391892,6.557478 c 0,1.6572728 -0.434106,1.7035288 -2.701034,0.2878084 C 10.733531,6.2474255 9.1599969,6.0695408 8.1879534,6.44929 6.7134928,7.0253189 7.1172205,7.4738202 10.641892,9.1753719 c 4.63501,2.2375731 5.823746,4.9851961 3.264176,7.5447651 -2.056388,2.05639 -5.3970778,1.91881 -8.0821911,-0.332849 z m 11.3805151,0.972089 c 0,-0.486125 1.111012,-3.881212 2.468915,-7.5446368 1.748942,-4.7183919 2.889415,-6.5794068 3.910887,-6.3817589 1.232192,0.238421 6.745198,11.6934117 6.745198,14.0152547 0,1.620209 -2.707029,0.729216 -3.28125,-1.079993 -0.414716,-1.306657 -1.418469,-1.875 -3.311441,-1.875 -1.75685,0 -3.070794,0.662304 -3.719809,1.875 -1.033599,1.931298 -2.8125,2.558188 -2.8125,0.991134 z m 7.779516,-5.333149 C 25.309515,11.700619 25.123544,10.588937 24.570638,9.5558212 23.760989,8.0429785 23.405314,7.930134 22.742979,8.975962 c -1.214031,1.916956 -1.025068,3.642281 0.398913,3.642281 0.6875,0 1.516407,-0.266407 1.842016,-0.592015 z m 7.611556,4.946396 c -0.268171,-0.698841 -0.3604,-3.968372 -0.204953,-7.2656248 l 0.282631,-5.995006 3.58729,-0.2952398 c 3.872808,-0.3187384 8.13146,1.7761045 8.13146,3.9998877 0,0.7247205 -0.674054,1.9917277 -1.497898,2.8155719 -1.372198,1.372198 -1.372198,1.689741 0,3.783979 0.823844,1.257345 1.497898,2.7228 1.497898,3.256567 0,2.067021 -2.441667,0.796115 -4.461743,-2.322371 -2.797204,-4.318172 -4.913257,-4.313174 -4.913257,0.0116 0,3.243671 -1.477488,4.470502 -2.421428,2.010631 z m 8.350281,-8.4814755 c 0.693044,-1.8060429 -0.152669,-2.4354053 -3.272603,-2.4354053 -2.03125,0 -2.65625,0.4411764 -2.65625,1.875 0,1.4429241 0.625,1.875 2.712198,1.875 1.491709,0 2.939204,-0.5915672 3.216655,-1.3145947 z"
     id="path3338"
     inkscape:connector-curvature="0" />
</svg>
