<?xml version="1.0" encoding="UTF-8" standalone="no"?>
<!-- Created with Inkscape (http://www.inkscape.org/) -->

<svg
   xmlns:dc="http://purl.org/dc/elements/1.1/"
   xmlns:cc="http://creativecommons.org/ns#"
   xmlns:rdf="http://www.w3.org/1999/02/22-rdf-syntax-ns#"
   xmlns:svg="http://www.w3.org/2000/svg"
   xmlns="http://www.w3.org/2000/svg"
   xmlns:sodipodi="http://sodipodi.sourceforge.net/DTD/sodipodi-0.dtd"
   xmlns:inkscape="http://www.inkscape.org/namespaces/inkscape"
   id="svg2"
   version="1.1"
   inkscape:version="0.91 r13725"
   width="34.6875"
   height="30"
   viewBox="0 0 34.6875 30"
   sodipodi:docname="saude.svg">
  <metadata
     id="metadata8">
    <rdf:RDF>
      <cc:Work
         rdf:about="">
        <dc:format>image/svg+xml</dc:format>
        <dc:type
           rdf:resource="http://purl.org/dc/dcmitype/StillImage" />
        <dc:title></dc:title>
      </cc:Work>
    </rdf:RDF>
  </metadata>
  <defs
     id="defs6" />
  <sodipodi:namedview
     pagecolor="#ffffff"
     bordercolor="#666666"
     borderopacity="1"
     objecttolerance="10"
     gridtolerance="10"
     guidetolerance="10"
     inkscape:pageopacity="0"
     inkscape:pageshadow="2"
     inkscape:window-width="640"
     inkscape:window-height="480"
     id="namedview4"
     showgrid="false"
     inkscape:zoom="7.8666667"
     inkscape:cx="17.34375"
     inkscape:cy="15"
     inkscape:window-x="0"
     inkscape:window-y="0"
     inkscape:window-maximized="0"
     inkscape:current-layer="svg2" />
  <path
     style="fill:#000000"
     d="m 15.9375,22.5 0,-6.5625 -7.03125,0 C 4.84375,15.9375 1.875,15.541667 1.875,15 c 0,-0.541667 2.96875,-0.9375 7.03125,-0.9375 l 7.03125,0 0,-6.5625 c 0,-3.75 0.401785,-6.5625 0.9375,-6.5625 0.535715,0 0.9375,2.8125 0.9375,6.5625 l 0,6.5625 7.5,0 c 4.375,0 7.5,0.390625 7.5,0.9375 0,0.546875 -3.125,0.9375 -7.5,0.9375 l -7.5,0 0,6.5625 c 0,3.75 -0.401785,6.5625 -0.9375,6.5625 -0.535715,0 -0.9375,-2.8125 -0.9375,-6.5625 z"
     id="path3338"
     inkscape:connector-curvature="0" />
</svg>
