<?xml version="1.0" encoding="UTF-8" standalone="no"?>
<!-- Created with Inkscape (http://www.inkscape.org/) -->

<svg
   xmlns:dc="http://purl.org/dc/elements/1.1/"
   xmlns:cc="http://creativecommons.org/ns#"
   xmlns:rdf="http://www.w3.org/1999/02/22-rdf-syntax-ns#"
   xmlns:svg="http://www.w3.org/2000/svg"
   xmlns="http://www.w3.org/2000/svg"
   xmlns:sodipodi="http://sodipodi.sourceforge.net/DTD/sodipodi-0.dtd"
   xmlns:inkscape="http://www.inkscape.org/namespaces/inkscape"
   id="svg2"
   version="1.1"
   inkscape:version="0.91 r13725"
   width="60"
   height="22.5"
   viewBox="0 0 60 22.5"
   sodipodi:docname="suprimento_material_belico.svg">
  <metadata
     id="metadata8">
    <rdf:RDF>
      <cc:Work
         rdf:about="">
        <dc:format>image/svg+xml</dc:format>
        <dc:type
           rdf:resource="http://purl.org/dc/dcmitype/StillImage" />
        <dc:title></dc:title>
      </cc:Work>
    </rdf:RDF>
  </metadata>
  <defs
     id="defs6" />
  <sodipodi:namedview
     pagecolor="#ffffff"
     bordercolor="#666666"
     borderopacity="1"
     objecttolerance="10"
     gridtolerance="10"
     guidetolerance="10"
     inkscape:pageopacity="0"
     inkscape:pageshadow="2"
     inkscape:window-width="640"
     inkscape:window-height="480"
     id="namedview4"
     showgrid="false"
     inkscape:zoom="8.0166667"
     inkscape:cx="30"
     inkscape:cy="11.25"
     inkscape:window-x="0"
     inkscape:window-y="0"
     inkscape:window-maximized="0"
     inkscape:current-layer="svg2" />
  <path
     style="fill:#000000"
     d="M 5.3320312,19.082032 C 4.9775391,18.727539 4.6875,15.132813 4.6875,11.09375 l 0,-7.34375 2.6768747,0 c 2.4289959,0 2.8046713,0.4557654 4.0569633,4.921875 l 1.38009,4.921875 1.425998,-4.6875 c 1.195265,-3.929043 1.828207,-4.7354986 3.911785,-4.9841459 l 2.485789,-0.296646 0,8.0310209 c 0,6.396408 -0.277119,8.031021 -1.361515,8.031021 -1.015353,0 -1.432478,-1.489732 -1.640625,-5.859375 L 17.34375,7.96875 16.001472,13.454188 c -2.011151,8.218901 -4.758852,8.2879 -6.3213467,0.158739 L 8.9556564,9.84375 8.4622032,14.458551 c -0.4635762,4.33539 -1.6563917,6.097261 -3.130172,4.623481 z M 24.375,11.671965 l 0,-8.0155347 5.293584,0.2811598 c 6.041828,0.3209016 8.20664,2.1826111 6.225936,5.3542217 -0.899731,1.4406992 -0.851766,2.0234392 0.241214,2.9305322 C 39.84907,15.304139 35.695836,19.6875 29.0625,19.6875 l -4.6875,0 0,-8.015535 z m 8.90625,2.859285 c 0,-1.430123 -0.722924,-1.944703 -3.046875,-2.168773 -2.738756,-0.264066 -3.046875,-0.04475 -3.046875,2.168773 0,2.21352 0.308119,2.432839 3.046875,2.168773 2.323951,-0.22407 3.046875,-0.73865 3.046875,-2.168773 z M 33.116866,8.7581337 C 34.183806,7.6911948 31.743512,5.625 29.416458,5.625 27.8125,5.625 27.1875,6.1507501 27.1875,7.5 c 0,1.4338236 0.625,1.875 2.65625,1.875 1.460938,0 2.933839,-0.2775898 3.273116,-0.6168663 z M 40.3125,11.71875 c 0,-7.8626907 0.03101,-7.96875 2.330252,-7.96875 1.980702,0 2.490203,0.6352243 3.396558,4.2346858 1.02611,4.0750542 2.705103,6.5625632 2.715918,4.0237672 0.0029,-0.674961 0.444581,-2.8092342 0.981567,-4.742828 C 50.525971,4.4239349 51.153975,3.75 53.012816,3.75 c 2.260878,0 2.299684,0.1344689 2.299684,7.96875 0,6.458333 -0.266544,7.96875 -1.40625,7.96875 -1.088799,0 -1.429955,-1.322711 -1.511258,-5.859375 L 52.289985,7.96875 50.825726,13.828125 C 49.768035,18.060578 48.931379,19.6875 47.8125,19.6875 c -1.118879,0 -1.955535,-1.626922 -3.013226,-5.859375 L 43.335015,7.96875 43.230007,13.828125 c -0.0813,4.536664 -0.422458,5.859375 -1.511257,5.859375 -1.139706,0 -1.40625,-1.510417 -1.40625,-7.96875 z"
     id="path3338"
     inkscape:connector-curvature="0" />
</svg>
