<?xml version="1.0" encoding="UTF-8" standalone="no"?>
<!-- Created with Inkscape (http://www.inkscape.org/) -->

<svg
   xmlns:dc="http://purl.org/dc/elements/1.1/"
   xmlns:cc="http://creativecommons.org/ns#"
   xmlns:rdf="http://www.w3.org/1999/02/22-rdf-syntax-ns#"
   xmlns:svg="http://www.w3.org/2000/svg"
   xmlns="http://www.w3.org/2000/svg"
   xmlns:sodipodi="http://sodipodi.sourceforge.net/DTD/sodipodi-0.dtd"
   xmlns:inkscape="http://www.inkscape.org/namespaces/inkscape"
   id="svg2"
   version="1.1"
   inkscape:version="0.91 r13725"
   width="41.25"
   height="35.625"
   viewBox="0 0 41.25 35.625"
   sodipodi:docname="sv_militar_TG.svg">
  <metadata
     id="metadata8">
    <rdf:RDF>
      <cc:Work
         rdf:about="">
        <dc:format>image/svg+xml</dc:format>
        <dc:type
           rdf:resource="http://purl.org/dc/dcmitype/StillImage" />
        <dc:title></dc:title>
      </cc:Work>
    </rdf:RDF>
  </metadata>
  <defs
     id="defs6" />
  <sodipodi:namedview
     pagecolor="#ffffff"
     bordercolor="#666666"
     borderopacity="1"
     objecttolerance="10"
     gridtolerance="10"
     guidetolerance="10"
     inkscape:pageopacity="0"
     inkscape:pageshadow="2"
     inkscape:window-width="640"
     inkscape:window-height="480"
     id="namedview4"
     showgrid="false"
     inkscape:zoom="6.6245614"
     inkscape:cx="20.625"
     inkscape:cy="17.8125"
     inkscape:window-x="0"
     inkscape:window-y="0"
     inkscape:window-maximized="0"
     inkscape:current-layer="svg2" />
  <path
     style="fill:#000000"
     d="M 13.26642,32.061706 C 8.7898846,29.015003 6.5720724,25.585144 6.0429208,20.890524 5.429264,15.446178 7.4740166,10.741524 11.931627,7.3415383 c 2.938474,-2.2412825 4.445724,-2.7017078 8.844326,-2.7017078 4.398602,0 5.905853,0.4604253 8.844326,2.7017078 11.371986,8.6738367 5.38698,26.8295427 -8.844326,26.8295427 -3.030245,0 -5.380006,-0.660031 -7.509533,-2.109375 z M 27.882236,30.528258 C 36.024734,25.562973 35.600259,13.090977 27.112647,7.9160161 16.22096,1.275274 3.1787523,14.167186 9.2915784,25.531718 c 3.4690846,6.449475 12.3109826,8.825879 18.5906576,4.99654 z m -14.385675,-3.31639 c -3.050686,-2.795745 -3.5018576,-3.753172 -3.5018576,-7.431253 0,-13.8759339 19.9015176,-15.5159947 21.7423246,-1.791759 0.937292,6.988039 -4.053575,12.432225 -11.397036,12.432225 -2.497661,0 -4.225966,-0.810485 -6.843431,-3.209213 z m 13.914007,-1.406172 c 3.73375,-3.733749 3.742474,-8.296001 0.02382,-12.457892 -2.248068,-2.516032 -3.396357,-3.04036 -6.658435,-3.04036 -3.262078,0 -4.410368,0.524328 -6.65844,3.04036 -3.026686,3.38745 -3.408819,6.452708 -1.310331,10.510738 1.804264,3.489061 3.819449,4.623625 8.275261,4.659031 2.738153,0.02176 4.236672,-0.620423 6.328125,-2.711877 z m -11.39423,-1.875 c -3.313437,-3.313436 -3.4565,-5.697526 -0.545007,-9.082337 3.012355,-3.502073 7.596889,-3.502073 10.609244,0 1.207458,1.403754 2.195378,3.404955 2.195378,4.447116 0,2.508644 -4.949046,7.375606 -7.5,7.375606 -1.110577,0 -3.252404,-1.233173 -4.759615,-2.740385 z m 8.509615,-1.009615 c 1.03125,-1.03125 1.875,-2.526989 1.875,-3.323864 0,-1.654904 -4.086638,-6.051136 -5.625,-6.051136 -1.538362,0 -5.625,4.396232 -5.625,6.051136 0,2.054275 3.402342,5.198864 5.625,5.198864 1.03125,0 2.71875,-0.84375 3.75,-1.875 z M 10.229078,1.5962301 c 5.800781,-0.1644819 15.292969,-0.1644819 21.09375,0 5.800781,0.1644818 1.054687,0.2990579 -10.546875,0.2990579 -11.6015621,0 -16.3476559,-0.1345761 -10.546875,-0.2990579 z"
     id="path3338"
     inkscape:connector-curvature="0" />
</svg>
