<?xml version="1.0" encoding="UTF-8" standalone="no"?>
<!-- Created with Inkscape (http://www.inkscape.org/) -->

<svg
   xmlns:dc="http://purl.org/dc/elements/1.1/"
   xmlns:cc="http://creativecommons.org/ns#"
   xmlns:rdf="http://www.w3.org/1999/02/22-rdf-syntax-ns#"
   xmlns:svg="http://www.w3.org/2000/svg"
   xmlns="http://www.w3.org/2000/svg"
   xmlns:sodipodi="http://sodipodi.sourceforge.net/DTD/sodipodi-0.dtd"
   xmlns:inkscape="http://www.inkscape.org/namespaces/inkscape"
   id="svg2"
   version="1.1"
   inkscape:version="0.91 r13725"
   width="36.5625"
   height="22.5"
   viewBox="0 0 36.5625 22.5"
   sodipodi:docname="Sv_policia_FN.svg">
  <metadata
     id="metadata8">
    <rdf:RDF>
      <cc:Work
         rdf:about="">
        <dc:format>image/svg+xml</dc:format>
        <dc:type
           rdf:resource="http://purl.org/dc/dcmitype/StillImage" />
        <dc:title></dc:title>
      </cc:Work>
    </rdf:RDF>
  </metadata>
  <defs
     id="defs6" />
  <sodipodi:namedview
     pagecolor="#ffffff"
     bordercolor="#666666"
     borderopacity="1"
     objecttolerance="10"
     gridtolerance="10"
     guidetolerance="10"
     inkscape:pageopacity="0"
     inkscape:pageshadow="2"
     inkscape:window-width="640"
     inkscape:window-height="480"
     id="namedview4"
     showgrid="false"
     inkscape:zoom="10.488889"
     inkscape:cx="18.28125"
     inkscape:cy="11.25"
     inkscape:window-x="0"
     inkscape:window-y="0"
     inkscape:window-maximized="0"
     inkscape:current-layer="svg2" />
  <path
     style="fill:#000000"
     d="m 6.9279661,17.79661 c -1.03125,-1.03125 -1.875,-2.296875 -1.875,-2.8125 0,-1.4421 2.4388076,-1.11114 3.7875469,0.513991 1.472355,1.774079 4.99839,1.423848 5.370858,-0.533472 0.179463,-0.943087 -1.086762,-1.895187 -3.740423,-2.8125 C 6.9761937,10.944068 6.4213527,10.372642 6.1653975,7.7178817 5.9188225,5.1604124 6.2678058,4.519758 8.3358035,3.7335067 11.819708,2.4089285 12.981336,2.550325 15.495981,4.6050639 c 1.772171,1.4480563 1.980398,2.0452109 1.044873,2.9964876 -0.941397,0.9572468 -1.408731,0.8593118 -2.405717,-0.504148 -0.680544,-0.9307001 -2.018259,-1.5408382 -2.9727,-1.3558626 -3.1090041,0.6025414 -2.5374234,2.4769869 1.107605,3.6322863 3.67491,1.1647708 5.907924,3.1758378 5.907924,5.3207168 0,2.19216 -3.672031,4.977066 -6.5625,4.977066 -1.5625,0 -3.6458332,-0.833333 -4.6874999,-1.875 z m 14.0624999,-6.09375 0,-7.9687498 5.123265,0 c 4.105732,0 5.316014,0.3601533 6.09375,1.8133673 2.239586,4.1847057 -0.0783,7.5616325 -5.19023,7.5616325 -3.048468,0 -3.214285,0.169271 -3.214285,3.28125 0,2.291666 -0.424107,3.28125 -1.40625,3.28125 -1.139706,0 -1.40625,-1.510417 -1.40625,-7.96875 z m 8.4375,-3.2180735 c 0,-1.8782746 -3.022113,-3.4361925 -4.67911,-2.4121111 -0.52024,0.3215254 -0.94589,1.4034438 -0.94589,2.4042632 0,1.3968576 0.653505,1.8196714 2.8125,1.8196714 2.154811,0 2.8125,-0.4236858 2.8125,-1.8118235 z"
     id="path3338"
     inkscape:connector-curvature="0" />
</svg>
