<?xml version="1.0" encoding="UTF-8" standalone="no"?>
<!-- Created with Inkscape (http://www.inkscape.org/) -->

<svg
   xmlns:dc="http://purl.org/dc/elements/1.1/"
   xmlns:cc="http://creativecommons.org/ns#"
   xmlns:rdf="http://www.w3.org/1999/02/22-rdf-syntax-ns#"
   xmlns:svg="http://www.w3.org/2000/svg"
   xmlns="http://www.w3.org/2000/svg"
   xmlns:sodipodi="http://sodipodi.sourceforge.net/DTD/sodipodi-0.dtd"
   xmlns:inkscape="http://www.inkscape.org/namespaces/inkscape"
   id="svg2"
   version="1.1"
   inkscape:version="0.91 r13725"
   width="51.5625"
   height="28.125"
   viewBox="0 0 51.5625 28.125"
   sodipodi:docname="transito.svg">
  <metadata
     id="metadata8">
    <rdf:RDF>
      <cc:Work
         rdf:about="">
        <dc:format>image/svg+xml</dc:format>
        <dc:type
           rdf:resource="http://purl.org/dc/dcmitype/StillImage" />
        <dc:title></dc:title>
      </cc:Work>
    </rdf:RDF>
  </metadata>
  <defs
     id="defs6" />
  <sodipodi:namedview
     pagecolor="#ffffff"
     bordercolor="#666666"
     borderopacity="1"
     objecttolerance="10"
     gridtolerance="10"
     guidetolerance="10"
     inkscape:pageopacity="0"
     inkscape:pageshadow="2"
     inkscape:window-width="640"
     inkscape:window-height="480"
     id="namedview4"
     showgrid="false"
     inkscape:zoom="8.3911111"
     inkscape:cx="25.78125"
     inkscape:cy="14.0625"
     inkscape:window-x="0"
     inkscape:window-y="0"
     inkscape:window-maximized="0"
     inkscape:current-layer="svg2" />
  <path
     style="fill:#000000"
     d="m 9.0174788,14.396186 c 0,-5.8749999 -0.084135,-6.0937496 -2.34375,-6.0937496 -1.2890625,0 -2.34375,-0.421875 -2.34375,-0.9375 0,-0.5208334 2.5,-0.9375 5.625,-0.9375 3.1250002,0 5.6250002,0.4166666 5.6250002,0.9375 0,0.515625 -0.84375,0.9375 -1.875,0.9375 -1.682692,0 -1.875,0.625 -1.875,6.0937496 0,4.791667 -0.300481,6.09375 -1.40625,6.09375 -1.1057693,0 -1.4062502,-1.302083 -1.4062502,-6.09375 z m 8.4375002,1.03125 0,-5.0625 3.28125,0 c 2.353723,0 3.28125,0.415178 3.28125,1.46875 0,0.807812 -0.27759,1.191161 -0.616867,0.851884 -1.241919,-1.241919 -3.133133,1.557603 -3.133133,4.637908 0,2.189629 -0.433818,3.166458 -1.40625,3.166458 -1.076389,0 -1.40625,-1.1875 -1.40625,-5.0625 z m 7.82622,3.622881 c -0.886326,-2.309727 0.307051,-3.89016 3.405337,-4.509818 1.655668,-0.331133 2.69649,-1.009658 2.366871,-1.542994 -0.323585,-0.523573 -1.672174,-0.679925 -2.996861,-0.34745 -1.811855,0.454746 -2.30227,0.281412 -1.979621,-0.699684 0.55888,-1.699415 5.171113,-2.2261356 6.903497,-0.788385 0.78709,0.653227 1.349557,2.780924 1.349557,5.105096 l 0,3.985061 -4.260978,0.08553 c -2.936748,0.05895 -4.424705,-0.341138 -4.787802,-1.287353 z m 6.032188,-2.16554 c 0.268665,-0.806838 -0.182111,-1.144683 -1.250876,-0.9375 -0.919,0.178149 -1.859922,0.891544 -2.09094,1.585318 -0.268665,0.806838 0.182111,1.144683 1.250876,0.9375 0.918999,-0.178149 1.859922,-0.891544 2.09094,-1.585318 z m 5.829092,-1.36529 0,-4.970448 3.515625,-0.102045 c 4.690959,-0.13616 5.859375,1.04813 5.859375,5.938984 0,3.022962 -0.370411,4.103958 -1.40625,4.103958 -1.012116,0 -1.40625,-1.035519 -1.40625,-3.694672 0,-2.032069 -0.485875,-3.994958 -1.079723,-4.361976 -1.496645,-0.924978 -3.607777,2.248547 -3.607777,5.423332 0,1.448323 -0.421875,2.633316 -0.9375,2.633316 -0.515625,0 -0.9375,-2.236702 -0.9375,-4.970449 z"
     id="path3338"
     inkscape:connector-curvature="0" />
</svg>
