<?xml version="1.0" encoding="UTF-8" standalone="no"?>
<!-- Created with Inkscape (http://www.inkscape.org/) -->

<svg
   xmlns:dc="http://purl.org/dc/elements/1.1/"
   xmlns:cc="http://creativecommons.org/ns#"
   xmlns:rdf="http://www.w3.org/1999/02/22-rdf-syntax-ns#"
   xmlns:svg="http://www.w3.org/2000/svg"
   xmlns="http://www.w3.org/2000/svg"
   xmlns:sodipodi="http://sodipodi.sourceforge.net/DTD/sodipodi-0.dtd"
   xmlns:inkscape="http://www.inkscape.org/namespaces/inkscape"
   id="svg2"
   version="1.1"
   inkscape:version="0.91 r13725"
   width="21.5625"
   height="25.3125"
   viewBox="0 0 21.5625 25.3125"
   sodipodi:docname="veterinaria.svg">
  <metadata
     id="metadata8">
    <rdf:RDF>
      <cc:Work
         rdf:about="">
        <dc:format>image/svg+xml</dc:format>
        <dc:type
           rdf:resource="http://purl.org/dc/dcmitype/StillImage" />
        <dc:title></dc:title>
      </cc:Work>
    </rdf:RDF>
  </metadata>
  <defs
     id="defs6" />
  <sodipodi:namedview
     pagecolor="#ffffff"
     bordercolor="#666666"
     borderopacity="1"
     objecttolerance="10"
     gridtolerance="10"
     guidetolerance="10"
     inkscape:pageopacity="0"
     inkscape:pageshadow="2"
     inkscape:window-width="640"
     inkscape:window-height="480"
     id="namedview4"
     showgrid="false"
     inkscape:zoom="9.3234568"
     inkscape:cx="10.78125"
     inkscape:cy="12.65625"
     inkscape:window-x="0"
     inkscape:window-y="0"
     inkscape:window-maximized="0"
     inkscape:current-layer="svg2" />
  <path
     style="fill:#000000"
     d="M 8.886974,20.390625 C 8.6509252,19.746094 7.6528012,16.898437 6.6689206,14.0625 5.68504,11.226563 4.5806504,8.1679688 4.2147215,7.265625 3.7163898,6.0367898 4.0079325,5.625 5.3762665,5.625 c 1.4196835,0 2.2084974,1.2604279 3.5390634,5.654989 0.9417064,3.110243 2.0113301,5.325087 2.3769431,4.921875 0.365613,-0.403212 1.383325,-2.947958 2.261583,-5.654989 C 14.740086,6.8905879 15.609925,5.625 16.936664,5.625 c 1.74884,0 1.749945,0.092596 0.05317,4.453125 -0.953045,2.449219 -2.245231,6.035156 -2.871525,7.96875 -0.801459,2.474394 -1.681219,3.515625 -2.970433,3.515625 -1.007445,0 -2.0248493,-0.527344 -2.260898,-1.171875 z"
     id="path3338"
     inkscape:connector-curvature="0" />
</svg>
