<?xml version="1.0" encoding="UTF-8" standalone="no"?>
<!-- Created with Inkscape (http://www.inkscape.org/) -->

<svg
   xmlns:dc="http://purl.org/dc/elements/1.1/"
   xmlns:cc="http://creativecommons.org/ns#"
   xmlns:rdf="http://www.w3.org/1999/02/22-rdf-syntax-ns#"
   xmlns:svg="http://www.w3.org/2000/svg"
   xmlns="http://www.w3.org/2000/svg"
   xmlns:sodipodi="http://sodipodi.sourceforge.net/DTD/sodipodi-0.dtd"
   xmlns:inkscape="http://www.inkscape.org/namespaces/inkscape"
   id="svg2"
   version="1.1"
   inkscape:version="0.91 r13725"
   width="44.0625"
   height="25.3125"
   viewBox="0 0 44.0625 25.3125"
   sodipodi:docname="aeroterrestre.svg">
  <metadata
     id="metadata8">
    <rdf:RDF>
      <cc:Work
         rdf:about="">
        <dc:format>image/svg+xml</dc:format>
        <dc:type
           rdf:resource="http://purl.org/dc/dcmitype/StillImage" />
        <dc:title></dc:title>
      </cc:Work>
    </rdf:RDF>
  </metadata>
  <defs
     id="defs6" />
  <sodipodi:namedview
     pagecolor="#ffffff"
     bordercolor="#666666"
     borderopacity="1"
     objecttolerance="10"
     gridtolerance="10"
     guidetolerance="10"
     inkscape:pageopacity="0"
     inkscape:pageshadow="2"
     inkscape:window-width="640"
     inkscape:window-height="480"
     id="namedview4"
     showgrid="false"
     inkscape:zoom="9.3234568"
     inkscape:cx="22.03125"
     inkscape:cy="12.65625"
     inkscape:window-x="0"
     inkscape:window-y="0"
     inkscape:window-maximized="0"
     inkscape:current-layer="svg2" />
  <path
     style="fill:#000000"
     d="m 6.5625,19.6875 c 0,-0.515625 0.421875,-0.9375 0.9375,-0.9375 0.515625,0 0.9375,-1.451664 0.9375,-3.225922 0,-1.774257 0.421875,-3.486654 0.9375,-3.805328 0.515625,-0.318674 0.9375,-1.8201337 0.9375,-3.3365784 0,-2.2517398 0.395121,-2.7571716 2.155417,-2.7571716 2.432536,0 4.407083,4.1003916 4.407083,9.151857 0,1.608743 0.421875,3.185719 0.9375,3.504393 C 19.397847,19.261048 18.852267,20.625 16.875,20.625 15.833333,20.625 15,20 15,19.21875 c 0,-0.875 -0.885416,-1.40625 -2.34375,-1.40625 -1.458334,0 -2.34375,0.53125 -2.34375,1.40625 0,0.78125 -0.8333334,1.40625 -1.875,1.40625 -1.03125,0 -1.875,-0.421875 -1.875,-0.9375 z m 7.735949,-4.298449 c 0.301646,-0.301646 0.09992,-1.835086 -0.448272,-3.407643 L 12.853456,9.1222131 11.713425,11.826731 c -0.627017,1.487486 -0.962897,3.020925 -0.7464,3.407644 0.467504,0.83508 2.554139,0.931961 3.331424,0.154676 z m 8.238071,3.184173 c -2.45616,-2.636378 -2.418454,-4.850936 0.132544,-7.784843 2.308804,-2.6553572 3.199785,-2.8659601 4.906086,-1.1596597 1.254465,1.2544637 3.36235,4.8769897 3.36235,5.7783967 0,0.291709 -1.648004,0.530382 -3.662231,0.530382 -3.185914,0 -3.599221,0.240953 -3.177766,1.852601 0.398365,1.523352 0.813574,1.676469 2.336275,0.861544 2.181294,-1.167394 3.679262,-0.201972 1.664072,1.072474 -2.140343,1.353595 -3.487838,1.074736 -5.56133,-1.150895 z M 27.1875,12.1875 c 0,-2.131725 -2.351138,-2.5545234 -3.116353,-0.560406 -0.588352,1.533221 0.103031,2.435406 1.866353,2.435406 0.6875,0 1.25,-0.84375 1.25,-1.875 z m 6.194052,6.954575 C 33.068573,18.326465 32.8125,16.041308 32.8125,14.063949 c 0,-2.029031 -0.506855,-3.76415 -1.163504,-3.983034 -0.846126,-0.2820412 -0.736527,-0.8148123 0.401785,-1.9531248 1.936746,-1.9367454 2.391304,-1.9446337 4.261977,-0.073961 1.166183,1.166184 1.232317,1.6514065 0.303332,2.22555 -0.786447,0.486052 -1.075498,2.358773 -0.855168,5.540504 0.219825,3.174432 -0.03099,4.806085 -0.738745,4.8057 -0.589365,-3.2e-4 -1.327646,-0.667899 -1.640625,-1.483508 z"
     id="path3338"
     inkscape:connector-curvature="0" />
</svg>
