<?xml version="1.0" encoding="UTF-8" standalone="no"?>
<!-- Created with Inkscape (http://www.inkscape.org/) -->

<svg
   xmlns:dc="http://purl.org/dc/elements/1.1/"
   xmlns:cc="http://creativecommons.org/ns#"
   xmlns:rdf="http://www.w3.org/1999/02/22-rdf-syntax-ns#"
   xmlns:svg="http://www.w3.org/2000/svg"
   xmlns="http://www.w3.org/2000/svg"
   xmlns:sodipodi="http://sodipodi.sourceforge.net/DTD/sodipodi-0.dtd"
   xmlns:inkscape="http://www.inkscape.org/namespaces/inkscape"
   id="svg2"
   version="1.1"
   inkscape:version="0.91 r13725"
   width="89.0625"
   height="30.9375"
   viewBox="0 0 89.0625 30.9375"
   sodipodi:docname="aopio_desembarque.svg">
  <metadata
     id="metadata8">
    <rdf:RDF>
      <cc:Work
         rdf:about="">
        <dc:format>image/svg+xml</dc:format>
        <dc:type
           rdf:resource="http://purl.org/dc/dcmitype/StillImage" />
        <dc:title></dc:title>
      </cc:Work>
    </rdf:RDF>
  </metadata>
  <defs
     id="defs6" />
  <sodipodi:namedview
     pagecolor="#ffffff"
     bordercolor="#666666"
     borderopacity="1"
     objecttolerance="10"
     gridtolerance="10"
     guidetolerance="10"
     inkscape:pageopacity="0"
     inkscape:pageshadow="2"
     inkscape:window-width="640"
     inkscape:window-height="480"
     id="namedview4"
     showgrid="false"
     inkscape:zoom="5.4007018"
     inkscape:cx="44.53125"
     inkscape:cy="15.46875"
     inkscape:window-x="0"
     inkscape:window-y="0"
     inkscape:window-maximized="0"
     inkscape:current-layer="svg2" />
  <path
     style="fill:#000000"
     d="m 21.77105,18.12998 c 0,-7.662474 0.07839,-7.953924 2.109375,-7.841894 1.160156,0.06399 2.815038,-0.184287 3.677513,-0.5517383 2.038623,-0.868539 5.463112,2.4925893 5.463112,5.3620313 0,3.695335 -2.678678,6.534801 -5.740787,6.085379 -2.427975,-0.356351 -2.696713,-0.131697 -2.696713,2.254338 0,1.730673 -0.487897,2.650132 -1.40625,2.650132 -1.13956,0 -1.40625,-1.509249 -1.40625,-7.958248 z m 7.518952,-0.514664 c 1.357768,-2.537012 0.298698,-5.589588 -1.939267,-5.589588 -2.238681,0 -3.466794,4.121153 -1.819582,6.105924 1.566682,1.887735 2.544084,1.753474 3.758849,-0.516336 z m 50.313079,7.867444 c -0.354492,-0.354493 -0.644531,-1.570405 -0.644531,-2.702027 0,-1.690396 -0.419134,-1.977372 -2.349137,-1.608429 -3.350154,0.640422 -5.150863,-1.278762 -5.150863,-5.489756 0,-4.229239 3.332757,-7.3206413 6.176499,-5.7292033 0.874397,0.4893373 2.391575,0.6800393 3.371507,0.4237813 1.660311,-0.4341823 1.763011,0.06402 1.507468,7.312755 -0.251356,7.130001 -1.154912,9.548909 -2.910943,7.792879 z M 78.4898,15.697603 c 0,-2.578125 -0.365854,-3.203125 -1.875,-3.203125 -2.23637,0 -3.081473,3.606479 -1.337512,5.707825 1.779734,2.144447 3.212512,1.027352 3.212512,-2.5047 z m -72.0297339,-0.625 c 1.3296197,-3.480469 2.6255428,-7.0664063 2.8798288,-7.9687503 0.256756,-0.9111071 1.3595521,-1.640625 2.4800961,-1.640625 1.647177,0 2.531042,1.3210478 4.812532,7.1929393 1.537127,3.956116 2.935402,7.542053 3.107277,7.96875 0.171875,0.426695 -0.537977,0.775811 -1.577449,0.775811 -1.066582,0 -2.149208,-0.816855 -2.485051,-1.875 -0.446883,-1.408004 -1.418469,-1.875 -3.900944,-1.875 -2.5174011,0 -3.4227841,0.447187 -3.7961664,1.875 -0.2696775,1.03125 -1.2659638,1.875 -2.2139687,1.875 -1.6046656,0 -1.556771,-0.436817 0.6938452,-6.328125 z m 7.0331509,-1.875 c -0.464092,-0.902344 -1.037659,-2.262111 -1.274594,-3.021704 -0.269174,-0.8629443 -0.825983,-0.2474353 -1.484164,1.640625 -1.0024021,2.875491 -0.9407281,3.021704 1.274594,3.021704 1.913559,0 2.177759,-0.292052 1.484164,-1.640625 z m 27.965333,0.234375 0,-7.9687503 5.010949,0 c 6.416735,0 8.426551,1.9383563 8.426551,8.1269423 0,5.692842 -2.400592,7.810558 -8.85386,7.810558 l -4.58364,0 0,-7.96875 z m 9.1875,4.03125 c 0.61875,-0.61875 1.125,-2.432813 1.125,-4.03125 0,-3.4538283 -1.454797,-5.1562503 -4.40625,-5.1562503 -1.988636,0 -2.15625,0.400815 -2.15625,5.1562503 0,4.755435 0.167614,5.15625 2.15625,5.15625 1.185937,0 2.6625,-0.50625 3.28125,-1.125 z m 6.75,-4.191167 c 0,-7.1838333 0.15007,-7.8088333 1.875,-7.8088333 1.372631,0 1.875,0.625 1.875,2.3326969 0,1.6489931 0.480861,2.2924004 1.640625,2.1952101 3.726907,-0.312324 4.915873,0.2728053 5.562979,2.7377183 1.611586,6.138754 -0.229424,8.596319 -6.335479,8.457234 l -4.618125,-0.105193 0,-7.808833 z m 8.253598,2.149622 c -0.21479,-2.207256 -0.746006,-2.927205 -2.159848,-2.927205 -1.371352,0 -1.958122,0.728149 -2.184446,2.710775 -0.327267,2.866892 1.143695,4.481126 3.321778,3.645317 0.826927,-0.317322 1.202687,-1.577386 1.022516,-3.428887 z"
     id="path3338"
     inkscape:connector-curvature="0" />
</svg>
