<?xml version="1.0" encoding="UTF-8" standalone="no"?>
<!-- Created with Inkscape (http://www.inkscape.org/) -->

<svg
   xmlns:dc="http://purl.org/dc/elements/1.1/"
   xmlns:cc="http://creativecommons.org/ns#"
   xmlns:rdf="http://www.w3.org/1999/02/22-rdf-syntax-ns#"
   xmlns:svg="http://www.w3.org/2000/svg"
   xmlns="http://www.w3.org/2000/svg"
   xmlns:sodipodi="http://sodipodi.sourceforge.net/DTD/sodipodi-0.dtd"
   xmlns:inkscape="http://www.inkscape.org/namespaces/inkscape"
   id="svg2"
   version="1.1"
   inkscape:version="0.91 r13725"
   width="43.125"
   height="30.9375"
   viewBox="0 0 43.125 30.9375"
   sodipodi:docname="cacador.svg">
  <metadata
     id="metadata8">
    <rdf:RDF>
      <cc:Work
         rdf:about="">
        <dc:format>image/svg+xml</dc:format>
        <dc:type
           rdf:resource="http://purl.org/dc/dcmitype/StillImage" />
        <dc:title></dc:title>
      </cc:Work>
    </rdf:RDF>
  </metadata>
  <defs
     id="defs6" />
  <sodipodi:namedview
     pagecolor="#ffffff"
     bordercolor="#666666"
     borderopacity="1"
     objecttolerance="10"
     gridtolerance="10"
     guidetolerance="10"
     inkscape:pageopacity="0"
     inkscape:pageshadow="2"
     inkscape:window-width="640"
     inkscape:window-height="480"
     id="namedview4"
     showgrid="false"
     inkscape:zoom="7.6282828"
     inkscape:cx="21.5625"
     inkscape:cy="15.46875"
     inkscape:window-x="0"
     inkscape:window-y="0"
     inkscape:window-maximized="0"
     inkscape:current-layer="svg2" />
  <path
     style="fill:#000000"
     d="M 15.772157,28.248466 C 11.34445,26.669347 9.1302089,24.715036 7.2287156,20.707936 5.7479228,17.587397 5.1243023,12.16166 6.4940358,14.31594 c 0.3900783,0.613504 3.0203372,1.273746 5.8450192,1.467204 l 5.135786,0.351741 -5.390625,0.173421 c -2.9648436,0.09538 -5.3906249,0.42607 -5.3906249,0.734863 0,0.308792 0.677726,1.989643 1.5060578,3.735222 1.5792256,3.327971 5.6225451,6.293917 9.9783171,7.319519 2.548885,0.600155 2.580041,0.551016 2.747107,-4.332697 l 0.168983,-4.939736 0.359966,4.669376 c 0.197981,2.568158 0.86022,4.987479 1.471643,5.376269 1.884798,1.198506 -3.31657,0.745767 -7.153508,-0.622656 z m 12.088871,-1.357049 c 4.187606,-1.901917 7.895063,-5.946101 7.895063,-8.612127 0,-1.387621 -0.903407,-1.754015 -4.921875,-1.996168 l -4.921875,-0.29659 5.820337,-0.455527 c 5.815815,-0.455174 5.81991,-0.453706 5.270197,1.888222 -1.349785,5.750444 -7.136272,11.303732 -11.700967,11.229411 -0.695512,-0.01132 0.456091,-0.802074 2.55912,-1.757221 z m 7.895063,-14.50201 c 0,-3.696494 -7.186485,-9.0958617 -12.299978,-9.24125 -1.521788,-0.043268 -3.023767,-0.494307 -3.337729,-1.0023093 -0.758444,-1.22718731 5.867358,0.020786 9.165515,1.7263293 2.989883,1.5461281 7.409692,6.594065 7.409692,8.46273 0,0.733876 -0.210938,1.33432 -0.46875,1.33432 -0.257813,0 -0.46875,-0.575919 -0.46875,-1.27982 z M 6.7005999,12.262977 c 0,-3.6211453 7.4343781,-10.000942 11.3846741,-9.7697371 0.695512,0.040707 -0.0011,0.5176317 -1.547933,1.0598323 -3.510108,1.2303401 -5.86513,3.2176735 -8.0994749,6.8349048 -0.9554963,1.546875 -1.7372662,2.390625 -1.7372662,1.875 z"
     id="path3338"
     inkscape:connector-curvature="0" />
</svg>
