<?xml version="1.0" encoding="UTF-8" standalone="no"?>
<!-- Created with Inkscape (http://www.inkscape.org/) -->

<svg
   xmlns:dc="http://purl.org/dc/elements/1.1/"
   xmlns:cc="http://creativecommons.org/ns#"
   xmlns:rdf="http://www.w3.org/1999/02/22-rdf-syntax-ns#"
   xmlns:svg="http://www.w3.org/2000/svg"
   xmlns="http://www.w3.org/2000/svg"
   xmlns:sodipodi="http://sodipodi.sourceforge.net/DTD/sodipodi-0.dtd"
   xmlns:inkscape="http://www.inkscape.org/namespaces/inkscape"
   id="svg2"
   version="1.1"
   inkscape:version="0.91 r13725"
   width="78"
   height="20"
   viewBox="0 0 78 20"
   sodipodi:docname="ccbn.svg">
  <metadata
     id="metadata8">
    <rdf:RDF>
      <cc:Work
         rdf:about="">
        <dc:format>image/svg+xml</dc:format>
        <dc:type
           rdf:resource="http://purl.org/dc/dcmitype/StillImage" />
        <dc:title></dc:title>
      </cc:Work>
    </rdf:RDF>
  </metadata>
  <defs
     id="defs6" />
  <sodipodi:namedview
     pagecolor="#ffffff"
     bordercolor="#666666"
     borderopacity="1"
     objecttolerance="10"
     gridtolerance="10"
     guidetolerance="10"
     inkscape:pageopacity="0"
     inkscape:pageshadow="2"
     inkscape:window-width="640"
     inkscape:window-height="480"
     id="namedview4"
     showgrid="false"
     inkscape:zoom="6.1666667"
     inkscape:cx="39"
     inkscape:cy="10"
     inkscape:window-x="0"
     inkscape:window-y="0"
     inkscape:window-maximized="0"
     inkscape:current-layer="svg2" />
  <path
     style="fill:#000000"
     d="M 2.7984063,17.114415 C 0.04849041,14.3645 -0.19791089,13.61038 0.27695161,9.3974106 1.1937024,1.2640226 8.4445245,-2.4224155 14.365141,2.2347426 15.814314,3.3746616 17,4.7246616 17,5.2347426 17,6.6447566 13.743973,6.2830876 11.55887,4.6303586 10.491249,3.8228506 9.2537487,3.1621626 8.8088707,3.1621626 6.9049889,3.1621626 4,7.3907896 4,10.162163 c 0,2.896866 2.9308103,7 4.9999997,7 0.55,0 1.9000003,-0.9 3.0000003,-2 2.208327,-2.208327 3.565095,-2.512709 4.49482,-1.008382 0.337069,0.54539 -0.515919,2.12039 -1.895529,3.5 -3.541384,3.541384 -7.9202746,3.341245 -11.8008847,-0.539366 z M 32.5,19.007431 C 29.112175,17.154434 27.99871,14.964882 28.031803,10.221033 28.075843,3.9078976 31.494286,0.16216219 37.211752,0.16216219 40.106214,0.16216219 44,2.7759196 44,4.7188666 c 0,1.885002 -2.734548,1.851605 -4.642857,-0.0567 C 35.984454,1.2894776 32,4.2681466 32,10.162167 c 0,6.230735 3.983097,8.886134 7.5,5 2.30147,-2.543095 4.5,-2.570799 4.5,-0.0567 0,4.028945 -6.953989,6.388447 -11.5,3.901972 z M 48,10.088838 c 0,-9.0532664 0.177211,-10.03975401 1.75,-9.74181061 1.152721,0.2183672 1.856981,1.43837021 2.06345,3.57455021 0.280705,2.904253 0.522757,3.13102 2.317058,2.170739 1.528715,-0.818144 2.576497,-0.696927 4.420673,0.511423 C 65.458991,11.129912 60.87081,22.702483 53.5,19.344117 51.979202,18.651195 51,18.588324 51,19.183602 c 0,0.538208 -0.675,0.978561 -1.5,0.978561 -1.234061,0 -1.5,-1.785925 -1.5,-10.073325 z m 9.801065,3.48815 C 58.139167,10.112283 56.130924,7.7909556 53.626748,8.7518976 52.589544,9.1499106 52,10.545389 52,12.602485 c 0,3.835306 0.721941,4.743638 3.458849,4.351861 1.468099,-0.210153 2.125675,-1.158344 2.342216,-3.377358 z M 65,13.275744 c 0,-6.9933974 0.01551,-7.0333564 2.75,-7.0841124 1.5125,-0.02807 4.046283,-0.09013 5.63063,-0.137911 3.763353,-0.113485 4.585546,1.392261 4.604057,8.4317664 C 77.997867,19.495776 77.75567,20.262459 76.25,19.976818 74.914024,19.72337 74.381707,18.345658 74,14.153494 73.575877,9.4954956 73.196491,8.6621626 71.5,8.6621626 c -1.696491,0 -2.075877,0.833333 -2.5,5.4913314 -0.381707,4.192164 -0.914024,5.569876 -2.25,5.823324 C 65.217747,20.267503 65,19.43371 65,13.275744 Z"
     id="path3338"
     inkscape:connector-curvature="0" />
</svg>
