<?xml version="1.0" encoding="UTF-8" standalone="no"?>
<!-- Created with Inkscape (http://www.inkscape.org/) -->

<svg
   xmlns:dc="http://purl.org/dc/elements/1.1/"
   xmlns:cc="http://creativecommons.org/ns#"
   xmlns:rdf="http://www.w3.org/1999/02/22-rdf-syntax-ns#"
   xmlns:svg="http://www.w3.org/2000/svg"
   xmlns="http://www.w3.org/2000/svg"
   xmlns:sodipodi="http://sodipodi.sourceforge.net/DTD/sodipodi-0.dtd"
   xmlns:inkscape="http://www.inkscape.org/namespaces/inkscape"
   id="svg2"
   version="1.1"
   inkscape:version="0.91 r13725"
   width="35.625"
   height="24.375"
   viewBox="0 0 35.625 24.375"
   sodipodi:docname="classe5_armamento_municao.svg">
  <metadata
     id="metadata8">
    <rdf:RDF>
      <cc:Work
         rdf:about="">
        <dc:format>image/svg+xml</dc:format>
        <dc:type
           rdf:resource="http://purl.org/dc/dcmitype/StillImage" />
        <dc:title></dc:title>
      </cc:Work>
    </rdf:RDF>
  </metadata>
  <defs
     id="defs6" />
  <sodipodi:namedview
     pagecolor="#ffffff"
     bordercolor="#666666"
     borderopacity="1"
     objecttolerance="10"
     gridtolerance="10"
     guidetolerance="10"
     inkscape:pageopacity="0"
     inkscape:pageshadow="2"
     inkscape:window-width="640"
     inkscape:window-height="480"
     id="namedview4"
     showgrid="false"
     inkscape:zoom="9.6820513"
     inkscape:cx="17.8125"
     inkscape:cy="12.1875"
     inkscape:window-x="0"
     inkscape:window-y="0"
     inkscape:window-maximized="0"
     inkscape:current-layer="svg2" />
  <path
     style="fill:#000000"
     d="m 6.9835805,19.592161 c 0,-1.25 0.625,-1.875 1.875,-1.875 1.6604335,0 1.8750005,-0.625 1.8750005,-5.461581 0,-4.4967678 0.383304,-5.8216761 2.169798,-7.4999996 2.882252,-2.7077344 7.241675,-2.649614 9.854283,0.1313786 1.561468,1.6621068 2.038419,3.327821 2.038419,7.119019 0,4.160778 0.298699,5.027331 1.875,5.439543 1.037733,0.271374 1.875,1.278765 1.875,2.255982 0,1.626854 -0.84755,1.765658 -10.78125,1.765658 -10.1562505,0 -10.7812505,-0.108696 -10.7812505,-1.875 z m 20.6250005,0 c 0,-0.515625 -0.84375,-0.9375 -1.875,-0.9375 -1.661142,0 -1.875,-0.625 -1.875,-5.479699 0,-4.044937 -0.429568,-5.8569113 -1.640625,-6.9203622 -2.916212,-2.5607786 -5.393112,-2.7678016 -8.055817,-0.6733172 -2.195852,1.7272577 -2.491058,2.6179986 -2.491058,7.5164224 0,4.931956 -0.210884,5.556956 -1.8750005,5.556956 -1.03125,0 -1.875,0.421875 -1.875,0.9375 0,0.565477 3.9062505,0.9375 9.8437505,0.9375 5.9375,0 9.84375,-0.372023 9.84375,-0.9375 z"
     id="path3338"
     inkscape:connector-curvature="0" />
</svg>
