<?xml version="1.0" encoding="UTF-8" standalone="no"?>
<!-- Created with Inkscape (http://www.inkscape.org/) -->

<svg
   xmlns:dc="http://purl.org/dc/elements/1.1/"
   xmlns:cc="http://creativecommons.org/ns#"
   xmlns:rdf="http://www.w3.org/1999/02/22-rdf-syntax-ns#"
   xmlns:svg="http://www.w3.org/2000/svg"
   xmlns="http://www.w3.org/2000/svg"
   xmlns:sodipodi="http://sodipodi.sourceforge.net/DTD/sodipodi-0.dtd"
   xmlns:inkscape="http://www.inkscape.org/namespaces/inkscape"
   id="svg2"
   version="1.1"
   inkscape:version="0.91 r13725"
   width="57.1875"
   height="41.25"
   viewBox="0 0 57.1875 41.25"
   sodipodi:docname="descontaminacao.svg">
  <metadata
     id="metadata8">
    <rdf:RDF>
      <cc:Work
         rdf:about="">
        <dc:format>image/svg+xml</dc:format>
        <dc:type
           rdf:resource="http://purl.org/dc/dcmitype/StillImage" />
        <dc:title></dc:title>
      </cc:Work>
    </rdf:RDF>
  </metadata>
  <defs
     id="defs6" />
  <sodipodi:namedview
     pagecolor="#ffffff"
     bordercolor="#666666"
     borderopacity="1"
     objecttolerance="10"
     gridtolerance="10"
     guidetolerance="10"
     inkscape:pageopacity="0"
     inkscape:pageshadow="2"
     inkscape:window-width="640"
     inkscape:window-height="480"
     id="namedview4"
     showgrid="false"
     inkscape:zoom="5.7212121"
     inkscape:cx="28.59375"
     inkscape:cy="20.625"
     inkscape:window-x="0"
     inkscape:window-y="0"
     inkscape:window-maximized="0"
     inkscape:current-layer="svg2" />
  <path
     style="fill:#000000"
     d="m 9.2478814,34.394516 c 0,-4.601354 0.081167,-4.744092 2.6977076,-4.744092 3.479981,0 5.005172,1.909214 4.631884,5.798134 -0.273717,2.851566 -0.588528,3.132133 -3.813967,3.399083 l -3.5156246,0.290968 0,-4.744093 z m 5.4500226,0.170106 c 0.245543,-2.540223 -0.02381,-3.039198 -1.640625,-3.039198 -1.593301,0 -1.934398,0.590711 -1.934398,3.349991 0,2.683866 0.326229,3.288192 1.640625,3.039198 1.080514,-0.204689 1.74092,-1.348379 1.934398,-3.349991 z m 4.285016,3.109314 c -1.44441,-3.764071 2.895872,-7.070548 5.607463,-4.27183 0.80555,0.831434 0.494863,1.021366 -1.280002,0.782498 -1.823893,-0.245466 -2.34375,0.100455 -2.34375,1.55957 0,1.432969 0.521445,1.801761 2.211854,1.564334 1.404223,-0.19723 1.983074,0.0595 1.585297,0.703125 -0.918249,1.485758 -5.176594,1.237 -5.780862,-0.337697 z m 7.709013,-0.131437 c -0.752941,-1.962133 -0.72582,-5.547808 0.04781,-6.321441 0.339276,-0.339276 1.164133,-0.162675 1.833016,0.392448 0.934013,0.775162 0.96711,1.408089 0.142662,2.72824 -0.823381,1.318442 -0.786854,2.064296 0.156776,3.201302 1.029604,1.240594 0.998536,1.482376 -0.190475,1.482376 -0.781407,0 -1.676813,-0.667316 -1.989792,-1.482925 z m 4.118448,-1.762955 0,-3.24588 5.15625,0.06158 5.15625,0.06159 0,3.184291 c 0,1.751369 -0.421875,3.1843 -0.9375,3.1843 -0.515625,0 -0.9375,-1.265625 -0.9375,-2.8125 0,-1.546875 -0.421875,-2.8125 -0.9375,-2.8125 -0.515625,0 -0.9375,1.265625 -0.9375,2.8125 0,3.525983 -1.64667,3.714512 -2.047104,0.234375 -0.365279,-3.174613 -2.063414,-3.03342 -2.468292,0.205229 -0.443382,3.546648 -2.047104,2.862743 -2.047104,-0.872985 z m 12.547539,1.894392 c -1.44441,-3.764071 2.895872,-7.070548 5.607463,-4.27183 0.80555,0.831434 0.494863,1.021366 -1.280002,0.782498 -1.823893,-0.245466 -2.34375,0.100455 -2.34375,1.55957 0,1.432969 0.521445,1.801761 2.211854,1.564334 1.404223,-0.19723 1.983074,0.0595 1.585297,0.703125 -0.918249,1.485758 -5.176594,1.237 -5.780862,-0.337697 z M 14.177909,27.642951 C 13.038414,26.503457 17.634388,18.914506 23.531649,12.197896 25.907068,9.492444 26.202946,8.7131086 25.115868,8.0251231 22.764786,6.5371811 20.903444,7.0623546 20.739879,9.2597987 20.385756,14.017331 13.665691,16.255734 10.185381,12.775424 7.5322091,10.122252 7.8129752,6.742243 10.888506,4.3108381 c 2.16537,-1.7118637 3.346523,-1.9488879 7.377641,-1.4804851 2.639734,0.3067285 6.190303,1.1424701 7.890153,1.8572036 2.615862,1.0998872 3.560139,1.1033452 6.146941,0.02251 1.680967,-0.7023529 5.302273,-1.5142343 8.047347,-1.8041809 5.972233,-0.6308132 9.242687,0.7898299 10.581394,4.5964218 0.820144,2.3320648 0.61569,2.9295725 -1.677335,4.9019495 -2.950679,2.538068 -4.189687,2.720639 -7.677805,1.131345 -1.507741,-0.686971 -2.649031,-2.126153 -2.9738,-3.7499997 -0.543575,-2.7178765 -2.381541,-3.3605134 -4.955594,-1.7327014 -1.177679,0.7447558 -1.091153,1.1925031 0.586025,3.0325191 1.08224,1.187314 4.00068,5.247338 6.485422,9.022276 3.688528,5.603784 4.269248,7.020726 3.163976,7.72002 -2.012879,1.273526 -2.006696,1.278781 -5.893238,-5.007499 -1.981099,-3.204324 -4.794524,-7.245668 -6.252058,-8.980765 l -2.65006,-3.15472 -5.817972,7.84222 c -3.199884,4.313222 -6.021437,8.369565 -6.270119,9.014096 -0.561955,1.456476 -1.435397,1.488021 -2.821516,0.101903 z"
     id="path3338"
     inkscape:connector-curvature="0" />
</svg>
