<?xml version="1.0" encoding="UTF-8" standalone="no"?>
<!-- Created with Inkscape (http://www.inkscape.org/) -->

<svg
   xmlns:dc="http://purl.org/dc/elements/1.1/"
   xmlns:cc="http://creativecommons.org/ns#"
   xmlns:rdf="http://www.w3.org/1999/02/22-rdf-syntax-ns#"
   xmlns:svg="http://www.w3.org/2000/svg"
   xmlns="http://www.w3.org/2000/svg"
   xmlns:sodipodi="http://sodipodi.sourceforge.net/DTD/sodipodi-0.dtd"
   xmlns:inkscape="http://www.inkscape.org/namespaces/inkscape"
   id="svg2"
   version="1.1"
   inkscape:version="0.91 r13725"
   width="54.375"
   height="32.8125"
   viewBox="0 0 54.375 32.8125"
   sodipodi:docname="dqbn.svg">
  <metadata
     id="metadata8">
    <rdf:RDF>
      <cc:Work
         rdf:about="">
        <dc:format>image/svg+xml</dc:format>
        <dc:type
           rdf:resource="http://purl.org/dc/dcmitype/StillImage" />
        <dc:title></dc:title>
      </cc:Work>
    </rdf:RDF>
  </metadata>
  <defs
     id="defs6" />
  <sodipodi:namedview
     pagecolor="#ffffff"
     bordercolor="#666666"
     borderopacity="1"
     objecttolerance="10"
     gridtolerance="10"
     guidetolerance="10"
     inkscape:pageopacity="0"
     inkscape:pageshadow="2"
     inkscape:window-width="640"
     inkscape:window-height="480"
     id="namedview4"
     showgrid="false"
     inkscape:zoom="7.192381"
     inkscape:cx="27.1875"
     inkscape:cy="16.40625"
     inkscape:window-x="0"
     inkscape:window-y="0"
     inkscape:window-maximized="0"
     inkscape:current-layer="svg2" />
  <path
     style="fill:#000000"
     d="M 12.618935,28.167907 C 12.024742,27.206482 15.331516,21.757779 21.510166,13.517475 24.353972,9.7247659 24.392011,9.5533569 22.602424,8.5955995 20.038402,7.2233765 19.6875,7.329635 19.6875,9.4782839 c 0,2.7637491 -3.338126,5.6250001 -6.5625,5.6250001 -3.2243737,0 -6.5625,-2.861251 -6.5625,-5.6250001 0,-1.03125 0.84375,-2.71875 1.875,-3.75 2.337145,-2.3371455 10.42501,-2.5650266 15.728102,-0.4431501 3.209364,1.2841332 3.997219,1.2841332 7.63684,0 5.287701,-1.8656094 13.118079,-1.8519521 15.801459,0.02756 4.571437,3.2019596 1.416959,9.7905902 -4.6875,9.7905902 -3.039067,0 -6.353901,-2.934566 -6.353901,-5.6250002 0,-2.1655395 -0.02879,-2.1740831 -3.227732,-0.9578477 l -2.412293,0.9171527 4.056361,5.4109732 c 7.592523,10.12803 9.419625,14.317222 6.244405,14.317222 -0.469481,0 -2.962456,-3.058594 -5.539943,-6.796875 -7.29873,-10.585774 -7.264823,-10.551271 -8.974568,-9.132309 -0.811181,0.67322 -3.80655,4.532695 -6.656375,8.576611 -5.155641,7.315881 -6.257312,8.25768 -7.43342,6.354696 z"
     id="path3338"
     inkscape:connector-curvature="0" />
</svg>
