<?xml version="1.0" encoding="UTF-8" standalone="no"?>
<!-- Created with Inkscape (http://www.inkscape.org/) -->

<svg
   xmlns:dc="http://purl.org/dc/elements/1.1/"
   xmlns:cc="http://creativecommons.org/ns#"
   xmlns:rdf="http://www.w3.org/1999/02/22-rdf-syntax-ns#"
   xmlns:svg="http://www.w3.org/2000/svg"
   xmlns="http://www.w3.org/2000/svg"
   xmlns:sodipodi="http://sodipodi.sourceforge.net/DTD/sodipodi-0.dtd"
   xmlns:inkscape="http://www.inkscape.org/namespaces/inkscape"
   id="svg2"
   version="1.1"
   inkscape:version="0.91 r13725"
   width="36.5625"
   height="25.3125"
   viewBox="0 0 36.5625 25.3125"
   sodipodi:docname="FT_batalhao.svg">
  <metadata
     id="metadata8">
    <rdf:RDF>
      <cc:Work
         rdf:about="">
        <dc:format>image/svg+xml</dc:format>
        <dc:type
           rdf:resource="http://purl.org/dc/dcmitype/StillImage" />
        <dc:title></dc:title>
      </cc:Work>
    </rdf:RDF>
  </metadata>
  <defs
     id="defs6" />
  <sodipodi:namedview
     pagecolor="#ffffff"
     bordercolor="#666666"
     borderopacity="1"
     objecttolerance="10"
     gridtolerance="10"
     guidetolerance="10"
     inkscape:pageopacity="0"
     inkscape:pageshadow="2"
     inkscape:window-width="640"
     inkscape:window-height="480"
     id="namedview4"
     showgrid="false"
     inkscape:zoom="9.3234568"
     inkscape:cx="18.28125"
     inkscape:cy="12.65625"
     inkscape:window-x="0"
     inkscape:window-y="0"
     inkscape:window-maximized="0"
     inkscape:current-layer="svg2" />
  <path
     style="fill:#000000"
     d="m 5.1959746,12.548994 0,-8.9062504 13.5937504,0 13.59375,0 0,8.9062504 c 0,7.291667 -0.254934,8.90625 -1.40625,8.90625 -1.125,0 -1.40625,-1.40625 -1.40625,-7.03125 l 0,-7.0312504 -10.78125,0 -10.7812504,0 0,7.0312504 c 0,5.625 -0.28125,7.03125 -1.40625,7.03125 -1.1513158,0 -1.40625,-1.614583 -1.40625,-8.90625 z m 7.5000004,2.34375 c 0,-5.9375004 0.178571,-6.5625004 1.875,-6.5625004 1.696429,0 1.875,0.625 1.875,6.5625004 0,5.9375 -0.178571,6.5625 -1.875,6.5625 -1.696429,0 -1.875,-0.625 -1.875,-6.5625 z m 8.4375,0 c 0,-5.9375004 0.178571,-6.5625004 1.875,-6.5625004 1.696429,0 1.875,0.625 1.875,6.5625004 0,5.9375 -0.178571,6.5625 -1.875,6.5625 -1.696429,0 -1.875,-0.625 -1.875,-6.5625 z"
     id="path3338"
     inkscape:connector-curvature="0" />
</svg>
