<?xml version="1.0" encoding="UTF-8" standalone="no"?>
<!-- Created with Inkscape (http://www.inkscape.org/) -->

<svg
   xmlns:dc="http://purl.org/dc/elements/1.1/"
   xmlns:cc="http://creativecommons.org/ns#"
   xmlns:rdf="http://www.w3.org/1999/02/22-rdf-syntax-ns#"
   xmlns:svg="http://www.w3.org/2000/svg"
   xmlns="http://www.w3.org/2000/svg"
   xmlns:sodipodi="http://sodipodi.sourceforge.net/DTD/sodipodi-0.dtd"
   xmlns:inkscape="http://www.inkscape.org/namespaces/inkscape"
   id="svg2"
   version="1.1"
   inkscape:version="0.91 r13725"
   width="53.4375"
   height="30.9375"
   viewBox="0 0 53.4375 30.9375"
   sodipodi:docname="FT_comb_gen_Exe.svg">
  <metadata
     id="metadata8">
    <rdf:RDF>
      <cc:Work
         rdf:about="">
        <dc:format>image/svg+xml</dc:format>
        <dc:type
           rdf:resource="http://purl.org/dc/dcmitype/StillImage" />
        <dc:title></dc:title>
      </cc:Work>
    </rdf:RDF>
  </metadata>
  <defs
     id="defs6" />
  <sodipodi:namedview
     pagecolor="#ffffff"
     bordercolor="#666666"
     borderopacity="1"
     objecttolerance="10"
     gridtolerance="10"
     guidetolerance="10"
     inkscape:pageopacity="0"
     inkscape:pageshadow="2"
     inkscape:window-width="640"
     inkscape:window-height="480"
     id="namedview4"
     showgrid="false"
     inkscape:zoom="7.6282828"
     inkscape:cx="26.71875"
     inkscape:cy="15.46875"
     inkscape:window-x="0"
     inkscape:window-y="0"
     inkscape:window-maximized="0"
     inkscape:current-layer="svg2" />
  <path
     style="fill:#000000"
     d="m 3.376589,15.564089 0,-12.1875 23.4375,0 23.4375,0 0,12.1875 c 0,11.693714 -0.07851,12.1875 -1.937582,12.1875 -1.06567,0 -3.471996,-1.447631 -5.34739,-3.216959 -3.281898,-3.096283 -3.457384,-3.149035 -4.678078,-1.40625 -0.697548,0.99589 -1.982629,1.804249 -2.855735,1.796353 -1.055277,-0.0095 -1.219519,-0.248409 -0.489919,-0.712516 2.030379,-1.291543 2.4924,-5.693612 0.859189,-8.186208 -1.888599,-2.882367 -0.933688,-3.02376 1.973853,-0.292266 l 2.176434,2.044653 1.904884,-2.044653 c 1.047687,-1.12456 2.337055,-2.044654 2.865263,-2.044654 0.528208,0 0.82818,-1.371094 0.666604,-3.046875 L 45.095339,7.595339 28.689089,7.328288 c -17.695618,-0.2880386 -20.625,0.018735 -20.625,2.159912 0,0.763614 -0.421875,1.388389 -0.9375,1.388389 -0.546875,0 -0.9375,3.125 -0.9375,7.5 0,4.375 0.390625,7.5 0.9375,7.5 0.515625,0 0.9375,0.421875 0.9375,0.9375 0,0.515625 -1.0546875,0.9375 -2.34375,0.9375 l -2.34375,0 0,-12.1875 z m 42.1875,4.21875 c 0,-4.538727 -0.766154,-5.272088 -2.540167,-2.431443 -0.864045,1.383555 -0.862042,2.334919 0.0089,4.211437 1.662557,3.582365 2.53126,2.9715 2.53126,-1.779994 z m -35.12862,4.21875 c 0.378931,-1.289063 1.055076,-2.484375 1.502543,-2.65625 1.277892,-0.490846 0.952893,-2.963362 -0.592673,-4.508928 -0.773437,-0.773438 -1.40625,-1.797991 -1.40625,-2.276787 0,-1.370991 1.878325,-1.015221 2.44566,0.463228 0.877522,2.286787 3.08673,2.437243 5.03773,0.343089 1.029495,-1.105033 2.097132,-1.783829 2.372528,-1.508435 0.707778,0.707779 -0.510819,3.581583 -1.51872,3.581583 -1.330199,0 -0.974146,2.669459 0.696044,5.218492 2.108636,3.218185 1.03919,3.831212 -1.77472,1.017303 l -2.31534,-2.315341 -2.567884,2.492898 -2.567885,2.492898 0.688967,-2.34375 z m 11.69112,1.087261 c 0,-0.400891 0.619395,-1.547807 1.376435,-2.548702 1.811251,-2.394689 1.777948,-4.106894 -0.120688,-6.204862 -2.317631,-2.560954 -0.665787,-3.299532 1.928535,-0.862293 l 2.23939,2.103797 1.965764,-2.11 c 1.08117,-1.160501 2.191086,-1.884678 2.466482,-1.609284 0.707778,0.707779 -0.510819,3.581583 -1.51872,3.581583 -1.077294,0 -1.098418,3.493414 -0.02362,3.90625 0.447471,0.171875 1.130387,1.367187 1.517593,2.65625 l 0.704013,2.34375 -2.726635,-2.564588 c -2.664063,-2.505732 -2.756952,-2.522531 -4.047499,-0.731993 -1.417518,1.966703 -3.76105,3.237894 -3.76105,2.040092 z"
     id="path3338"
     inkscape:connector-curvature="0" />
</svg>
