<?xml version="1.0" encoding="UTF-8" standalone="no"?>
<!-- Created with Inkscape (http://www.inkscape.org/) -->

<svg
   xmlns:dc="http://purl.org/dc/elements/1.1/"
   xmlns:cc="http://creativecommons.org/ns#"
   xmlns:rdf="http://www.w3.org/1999/02/22-rdf-syntax-ns#"
   xmlns:svg="http://www.w3.org/2000/svg"
   xmlns="http://www.w3.org/2000/svg"
   xmlns:sodipodi="http://sodipodi.sourceforge.net/DTD/sodipodi-0.dtd"
   xmlns:inkscape="http://www.inkscape.org/namespaces/inkscape"
   id="svg2"
   version="1.1"
   inkscape:version="0.91 r13725"
   width="41.25"
   height="30"
   viewBox="0 0 41.25 30"
   sodipodi:docname="FT_comb_gen_div.svg">
  <metadata
     id="metadata8">
    <rdf:RDF>
      <cc:Work
         rdf:about="">
        <dc:format>image/svg+xml</dc:format>
        <dc:type
           rdf:resource="http://purl.org/dc/dcmitype/StillImage" />
        <dc:title></dc:title>
      </cc:Work>
    </rdf:RDF>
  </metadata>
  <defs
     id="defs6" />
  <sodipodi:namedview
     pagecolor="#ffffff"
     bordercolor="#666666"
     borderopacity="1"
     objecttolerance="10"
     gridtolerance="10"
     guidetolerance="10"
     inkscape:pageopacity="0"
     inkscape:pageshadow="2"
     inkscape:window-width="640"
     inkscape:window-height="480"
     id="namedview4"
     showgrid="false"
     inkscape:zoom="7.8666667"
     inkscape:cx="20.625"
     inkscape:cy="15"
     inkscape:window-x="0"
     inkscape:window-y="0"
     inkscape:window-maximized="0"
     inkscape:current-layer="svg2" />
  <path
     style="fill:#000000"
     d="m 3.2891949,14.772746 0,-12.2081862 L 20.86732,2.819621 38.445445,3.0746822 38.70783,15.027807 c 0.250366,11.405612 0.176719,11.953125 -1.607829,11.953125 -1.7296,0 -1.8903,-0.722484 -2.137384,-9.609375 l -0.267172,-9.6093748 -13.59375,0 -13.5937501,0 -0.2671717,9.6093748 c -0.245689,8.836707 -0.415299,9.609375 -2.109375,9.609375 -1.7369592,0 -1.8422033,-0.697448 -1.8422033,-12.208186 z m 8.9613301,8.370934 2.422351,-3.837251 -2.423892,-3.662749 c -1.66175,-2.511072 -2.02486,-3.662748 -1.154824,-3.662748 0.697988,0 1.749617,1.054688 2.336953,2.34375 0.587336,1.289062 1.507848,2.34375 2.045582,2.34375 0.537734,0 1.458246,-1.054688 2.045582,-2.34375 0.587336,-1.289062 1.648188,-2.34375 2.357449,-2.34375 0.902301,0 0.582409,1.040673 -1.065222,3.46538 l -2.354787,3.46538 2.254992,4.03462 c 1.509332,2.700488 1.86157,4.03462 1.065223,4.03462 -0.654375,0 -1.670319,-1.054688 -2.257655,-2.34375 -0.587336,-1.289063 -1.507848,-2.34375 -2.045582,-2.34375 -0.537734,0 -1.458246,1.054687 -2.045582,2.34375 -0.587336,1.289062 -1.638271,2.34375 -2.335412,2.34375 -0.876942,0 -0.521087,-1.182438 1.154824,-3.837252 z m 12.524708,0.67972 c 2.448655,-3.962006 2.451054,-5.695161 0.01263,-9.119621 -1.066367,-1.497565 -1.497968,-2.722847 -0.959118,-2.722847 0.538848,0 1.670783,1.054688 2.51541,2.34375 1.937028,2.95628 2.95615,2.95628 4.303122,0 0.587336,-1.289062 1.738447,-2.33729 2.558026,-2.329394 0.956334,0.0092 1.117205,0.261091 0.449078,0.703125 -0.572584,0.378823 -1.741079,2.055037 -2.596654,3.724921 -1.507121,2.941548 -1.481619,3.153332 0.818448,6.796875 1.650357,2.614332 1.987658,3.760723 1.106514,3.760723 -0.697141,0 -1.748076,-1.054688 -2.335412,-2.34375 -0.587336,-1.289063 -1.489078,-2.34375 -2.003871,-2.34375 -0.514792,0 -1.627044,1.054687 -2.471671,2.34375 -2.331945,3.558998 -3.631132,2.801925 -1.396502,-0.813782 z"
     id="path3338"
     inkscape:connector-curvature="0" />
</svg>
