<?xml version="1.0" encoding="UTF-8" standalone="no"?>
<!-- Created with Inkscape (http://www.inkscape.org/) -->

<svg
   xmlns:dc="http://purl.org/dc/elements/1.1/"
   xmlns:cc="http://creativecommons.org/ns#"
   xmlns:rdf="http://www.w3.org/1999/02/22-rdf-syntax-ns#"
   xmlns:svg="http://www.w3.org/2000/svg"
   xmlns="http://www.w3.org/2000/svg"
   xmlns:sodipodi="http://sodipodi.sourceforge.net/DTD/sodipodi-0.dtd"
   xmlns:inkscape="http://www.inkscape.org/namespaces/inkscape"
   id="svg2"
   version="1.1"
   inkscape:version="0.91 r13725"
   width="57.1875"
   height="38.4375"
   viewBox="0 0 57.1875 38.4375"
   sodipodi:docname="inf_aeronautica.svg">
  <metadata
     id="metadata8">
    <rdf:RDF>
      <cc:Work
         rdf:about="">
        <dc:format>image/svg+xml</dc:format>
        <dc:type
           rdf:resource="http://purl.org/dc/dcmitype/StillImage" />
        <dc:title></dc:title>
      </cc:Work>
    </rdf:RDF>
  </metadata>
  <defs
     id="defs6" />
  <sodipodi:namedview
     pagecolor="#ffffff"
     bordercolor="#666666"
     borderopacity="1"
     objecttolerance="10"
     gridtolerance="10"
     guidetolerance="10"
     inkscape:pageopacity="0"
     inkscape:pageshadow="2"
     inkscape:window-width="640"
     inkscape:window-height="480"
     id="namedview4"
     showgrid="false"
     inkscape:zoom="6.1398374"
     inkscape:cx="28.59375"
     inkscape:cy="19.21875"
     inkscape:window-x="0"
     inkscape:window-y="0"
     inkscape:window-maximized="0"
     inkscape:current-layer="svg2" />
  <path
     style="fill:#000000"
     d="M 4.7105742,35.859375 C 4.723265,35.472656 7.9927962,32.899246 11.976199,30.140684 15.959602,27.382123 18.375,25.358183 17.34375,25.64304 10.90893,27.420494 10.42572,27.385947 8.015928,24.976155 5.1188326,22.07906 4.9671332,18.901703 7.5680438,15.59518 c 2.0876193,-2.653978 5.4219082,-3.187991 9.7146752,-1.555884 1.322629,0.502863 2.404781,0.766491 2.404781,0.585842 0,-0.18065 -3.269531,-2.561907 -7.265625,-5.2916829 C 8.4257813,6.6036793 4.9804687,4.2306755 4.765625,4.0601132 4.5507813,3.8895509 4.6592492,3.4657508 5.0066648,3.1183351 5.3540806,2.7709194 10.663845,5.9349819 16.806141,10.149585 22.948437,14.364188 28.463798,17.8125 29.0625,17.8125 c 0.598702,0 6.114063,-3.448312 12.256359,-7.662915 6.142296,-4.2146031 11.452061,-7.3786656 11.799476,-7.0312499 0.347416,0.3474157 0.455883,0.7634841 0.24104,0.9245964 -0.214844,0.1611124 -3.34375,2.3346011 -6.953125,4.8299748 -8.189133,5.6616307 -9.117173,6.5016787 -5.798344,5.2485727 6.300038,-2.378736 10.954594,0.1565 10.954594,5.966727 0,4.208846 -3.771606,7.449437 -7.672861,6.592577 C 42.437838,26.361914 41.25,26.295926 41.25,26.534143 c 0,0.238218 2.742187,2.219728 6.09375,4.403357 5.281204,3.44084 7.434421,5.625 5.54531,5.625 -0.301643,0 -5.488518,-3.375 -11.526389,-7.5 -6.037872,-4.125 -11.515108,-7.5 -12.171636,-7.5 -0.656528,0 -6.173273,3.375 -12.259433,7.5 C 5.9608468,36.49812 4.6659797,37.218276 4.7105742,35.859375 Z M 21.379922,22.021153 c 5.075525,-2.074496 5.223238,-2.226592 2.995078,-3.083961 -1.289063,-0.496016 -3.977303,-1.584799 -5.973866,-2.419519 -4.945612,-2.067654 -8.7260674,-1.955087 -9.9306492,0.295695 -1.4043511,2.624053 -1.193337,5.329851 0.5517453,7.074934 1.7829159,1.782915 4.3917239,1.388745 12.3576919,-1.867149 z m 26.834363,1.818132 c 1.871655,-1.871655 1.905278,-6.376121 0.05904,-7.90837 -1.759479,-1.460238 -5.976738,-0.814373 -12.178347,1.865088 -5.304201,2.291727 -5.131847,2.563429 3.626618,5.717057 5.942674,2.139756 6.651924,2.167001 8.492699,0.326225 z"
     id="path3338"
     inkscape:connector-curvature="0" />
</svg>
