<?xml version="1.0" encoding="UTF-8" standalone="no"?>
<!-- Created with Inkscape (http://www.inkscape.org/) -->

<svg
   xmlns:dc="http://purl.org/dc/elements/1.1/"
   xmlns:cc="http://creativecommons.org/ns#"
   xmlns:rdf="http://www.w3.org/1999/02/22-rdf-syntax-ns#"
   xmlns:svg="http://www.w3.org/2000/svg"
   xmlns="http://www.w3.org/2000/svg"
   xmlns:sodipodi="http://sodipodi.sourceforge.net/DTD/sodipodi-0.dtd"
   xmlns:inkscape="http://www.inkscape.org/namespaces/inkscape"
   id="svg2"
   version="1.1"
   inkscape:version="0.91 r13725"
   width="58.125"
   height="37.5"
   viewBox="0 0 58.125 37.5"
   sodipodi:docname="inf_bld.svg">
  <metadata
     id="metadata8">
    <rdf:RDF>
      <cc:Work
         rdf:about="">
        <dc:format>image/svg+xml</dc:format>
        <dc:type
           rdf:resource="http://purl.org/dc/dcmitype/StillImage" />
        <dc:title></dc:title>
      </cc:Work>
    </rdf:RDF>
  </metadata>
  <defs
     id="defs6" />
  <sodipodi:namedview
     pagecolor="#ffffff"
     bordercolor="#666666"
     borderopacity="1"
     objecttolerance="10"
     gridtolerance="10"
     guidetolerance="10"
     inkscape:pageopacity="0"
     inkscape:pageshadow="2"
     inkscape:window-width="640"
     inkscape:window-height="480"
     id="namedview4"
     showgrid="false"
     inkscape:zoom="6.2933333"
     inkscape:cx="29.0625"
     inkscape:cy="18.75"
     inkscape:window-x="0"
     inkscape:window-y="0"
     inkscape:window-maximized="0"
     inkscape:current-layer="svg2" />
  <path
     style="fill:#000000"
     d="m 6.1175847,34.067823 c 0,-0.428216 1.9391187,-2.171145 4.3091533,-3.873174 2.370034,-1.702031 3.909753,-3.355578 3.421598,-3.67455 -3.116646,-2.036493 -4.0070653,-9.959773 -1.631225,-14.515239 0.77026,-1.476908 1.400474,-2.79194 1.400474,-2.9222936 0,-0.1303535 -1.787472,-1.4198998 -3.9721617,-2.8656584 C 7.4607345,4.7711493 6.1754153,3.4208714 6.7891585,3.2162904 7.4029017,3.0117093 9.4992436,3.9276039 11.447696,5.2516116 14.85803,7.5689933 15.509847,7.6588983 28.900672,7.6588983 l 13.910334,0 4.219173,-2.9028669 c 2.320545,-1.5965768 4.505931,-2.6051483 4.856414,-2.2412699 0.350483,0.3638783 -0.394544,1.3537621 -1.655617,2.1997419 -5.903089,3.960038 -6.135544,4.3149404 -4.425405,6.7565076 1.975869,2.820947 2.022183,9.814456 0.08954,13.520933 -1.597377,3.063499 -1.465136,3.282298 4.335862,7.173849 1.261073,0.845979 2.0061,1.835863 1.655617,2.199742 -0.350483,0.363878 -2.559227,-0.660764 -4.90832,-2.276982 l -4.271075,-2.938578 -13.71793,-0.06678 -13.717929,-0.06678 -4.135535,2.914994 C 6.7324598,35.035165 6.1175847,35.296938 6.1175847,34.067823 Z M 38.930085,26.887225 c 0,-0.252546 -2.297783,-1.984816 -5.106184,-3.84949 l -5.106183,-3.390315 -3.096942,2.150055 c -8.553609,5.938353 -8.755056,5.548923 2.870379,5.548923 5.741412,0 10.43893,-0.206628 10.43893,-0.459173 z m 6.5625,-8.952722 c 0,-2.853649 -0.541749,-5.058426 -1.471356,-5.988032 -1.665893,-1.665894 -2.252012,-1.442791 -9.107136,3.466581 l -4.484742,3.211798 5.890992,3.895934 5.890992,3.895934 1.640625,-1.98277 c 1.061108,-1.282398 1.640625,-3.578191 1.640625,-6.499445 z m -23.43967,4.167703 c 2.579318,-1.853056 4.68967,-3.524837 4.68967,-3.715068 0,-0.190232 -2.507577,-2.048738 -5.572394,-4.130017 l -5.572395,-3.78414 -1.458855,2.082808 c -2.702712,3.858661 -1.403168,12.915609 1.853209,12.915609 0.754102,0 3.481446,-1.516136 6.060765,-3.369192 z m 12.772211,-8.818308 5.353302,-3.7499997 -11.092922,0 c -6.101106,0 -10.825067,0.2678541 -10.49769,0.5952307 1.167191,1.167191 9.572996,6.802394 10.222513,6.853114 0.363823,0.02841 3.070482,-1.635845 6.014797,-3.698345 z"
     id="path3338"
     inkscape:connector-curvature="0" />
</svg>
