<?xml version="1.0" encoding="UTF-8" standalone="no"?>
<!-- Created with Inkscape (http://www.inkscape.org/) -->

<svg
   xmlns:dc="http://purl.org/dc/elements/1.1/"
   xmlns:cc="http://creativecommons.org/ns#"
   xmlns:rdf="http://www.w3.org/1999/02/22-rdf-syntax-ns#"
   xmlns:svg="http://www.w3.org/2000/svg"
   xmlns="http://www.w3.org/2000/svg"
   xmlns:sodipodi="http://sodipodi.sourceforge.net/DTD/sodipodi-0.dtd"
   xmlns:inkscape="http://www.inkscape.org/namespaces/inkscape"
   id="svg2"
   version="1.1"
   inkscape:version="0.91 r13725"
   width="41.25"
   height="22.5"
   viewBox="0 0 41.25 22.5"
   sodipodi:docname="motomecanizacao.svg">
  <metadata
     id="metadata8">
    <rdf:RDF>
      <cc:Work
         rdf:about="">
        <dc:format>image/svg+xml</dc:format>
        <dc:type
           rdf:resource="http://purl.org/dc/dcmitype/StillImage" />
        <dc:title></dc:title>
      </cc:Work>
    </rdf:RDF>
  </metadata>
  <defs
     id="defs6" />
  <sodipodi:namedview
     pagecolor="#ffffff"
     bordercolor="#666666"
     borderopacity="1"
     objecttolerance="10"
     gridtolerance="10"
     guidetolerance="10"
     inkscape:pageopacity="0"
     inkscape:pageshadow="2"
     inkscape:window-width="640"
     inkscape:window-height="480"
     id="namedview4"
     showgrid="false"
     inkscape:zoom="10.488889"
     inkscape:cx="20.625"
     inkscape:cy="11.25"
     inkscape:window-x="0"
     inkscape:window-y="0"
     inkscape:window-maximized="0"
     inkscape:current-layer="svg2" />
  <path
     style="fill:#000000"
     d="m 2.8125,11.25 0,-7.5 2.6633158,0 c 2.4733299,0 2.751893,0.3845365 3.9050351,5.390625 L 10.622571,14.53125 12.145682,9.375 c 1.314562,-4.4502391 1.87098,-5.1968678 4.063715,-5.4528959 L 18.75,3.6254581 l 0,7.5622709 c 0,5.981353 -0.284201,7.562271 -1.359465,7.562271 -0.997403,0 -1.434346,-1.43567 -1.640625,-5.390625 L 15.46875,7.96875 14.137765,13.403729 c -1.120701,4.576299 -1.630096,5.390942 -3.224192,5.15625 C 9.5147691,18.354038 8.7195154,17.097612 7.8683226,13.748765 6.248419,7.3755785 5.625,7.2890782 5.625,13.4375 5.625,17.534722 5.3033088,18.75 4.21875,18.75 3.0859375,18.75 2.8125,17.291666 2.8125,11.25 Z m 18.75,0 0,-7.5 2.663316,0 c 2.47333,0 2.751893,0.3845365 3.905035,5.390625 l 1.24172,5.390625 1.523111,-5.15625 c 1.314562,-4.4502391 1.87098,-5.1968678 4.063715,-5.4528959 L 37.5,3.6254581 l 0,7.5622709 c 0,5.981353 -0.284201,7.562271 -1.359465,7.562271 -0.997403,0 -1.434346,-1.43567 -1.640625,-5.390625 L 34.21875,7.96875 32.887765,13.403729 c -1.120701,4.576299 -1.630096,5.390942 -3.224192,5.15625 C 28.264769,18.354038 27.469515,17.097612 26.618322,13.748765 24.998419,7.3755785 24.375,7.2890782 24.375,13.4375 c 0,4.097222 -0.321691,5.3125 -1.40625,5.3125 -1.132812,0 -1.40625,-1.458334 -1.40625,-7.5 z"
     id="path3338"
     inkscape:connector-curvature="0" />
</svg>
