<?xml version="1.0" encoding="UTF-8" standalone="no"?>
<!-- Created with Inkscape (http://www.inkscape.org/) -->

<svg
   xmlns:dc="http://purl.org/dc/elements/1.1/"
   xmlns:cc="http://creativecommons.org/ns#"
   xmlns:rdf="http://www.w3.org/1999/02/22-rdf-syntax-ns#"
   xmlns:svg="http://www.w3.org/2000/svg"
   xmlns="http://www.w3.org/2000/svg"
   xmlns:sodipodi="http://sodipodi.sourceforge.net/DTD/sodipodi-0.dtd"
   xmlns:inkscape="http://www.inkscape.org/namespaces/inkscape"
   id="svg2"
   version="1.1"
   inkscape:version="0.91 r13725"
   width="35.625"
   height="23.4375"
   viewBox="0 0 35.625 23.4375"
   sodipodi:docname="policia_EV.svg">
  <metadata
     id="metadata8">
    <rdf:RDF>
      <cc:Work
         rdf:about="">
        <dc:format>image/svg+xml</dc:format>
        <dc:type
           rdf:resource="http://purl.org/dc/dcmitype/StillImage" />
        <dc:title></dc:title>
      </cc:Work>
    </rdf:RDF>
  </metadata>
  <defs
     id="defs6" />
  <sodipodi:namedview
     pagecolor="#ffffff"
     bordercolor="#666666"
     borderopacity="1"
     objecttolerance="10"
     gridtolerance="10"
     guidetolerance="10"
     inkscape:pageopacity="0"
     inkscape:pageshadow="2"
     inkscape:window-width="640"
     inkscape:window-height="480"
     id="namedview4"
     showgrid="false"
     inkscape:zoom="10.069333"
     inkscape:cx="17.8125"
     inkscape:cy="11.71875"
     inkscape:window-x="0"
     inkscape:window-y="0"
     inkscape:window-maximized="0"
     inkscape:current-layer="svg2" />
  <path
     style="fill:#000000"
     d="m 3.75,11.25 0,-7.5 4.0101504,0 c 2.2055824,0 4.9477696,0.6567345 6.0937506,1.45941 4.288922,3.0040784 1.435902,8.85309 -4.3183457,8.85309 C 6.9892963,14.0625 6.5625,14.398957 6.5625,16.40625 6.5625,17.864584 6.03125,18.75 5.15625,18.75 4.0234375,18.75 3.75,17.291666 3.75,11.25 Z m 7.96875,-2.34375 c 0,-1.3485404 -0.723882,-1.9582918 -2.578125,-2.1716459 C 6.9058219,6.4774616 6.5625,6.7666537 6.5625,8.90625 c 0,2.139596 0.3433219,2.428789 2.578125,2.171646 1.854243,-0.213354 2.578125,-0.823106 2.578125,-2.171646 z m 7.03125,2.299015 0,-7.5447351 5.784967,0.27911 C 31.914633,4.2956902 33.464373,6.5625 26.328125,6.5625 c -4.140625,0 -4.765625,0.2459017 -4.765625,1.875 0,1.597223 0.625,1.875 4.21875,1.875 3.125,0 4.21875,0.364583 4.21875,1.40625 0,1.044837 -1.100995,1.40625 -4.283954,1.40625 -3.906384,0 -4.25755,0.185912 -3.984375,2.109375 0.25205,1.774717 1.043264,2.197561 4.987079,2.665215 4.61817,0.547619 4.593904,0.558019 -1.640625,0.703125 L 18.75,18.75 l 0,-7.544735 z"
     id="path3338"
     inkscape:connector-curvature="0" />
</svg>
