<?xml version="1.0" encoding="UTF-8" standalone="no"?>
<!-- Created with Inkscape (http://www.inkscape.org/) -->

<svg
   xmlns:dc="http://purl.org/dc/elements/1.1/"
   xmlns:cc="http://creativecommons.org/ns#"
   xmlns:rdf="http://www.w3.org/1999/02/22-rdf-syntax-ns#"
   xmlns:svg="http://www.w3.org/2000/svg"
   xmlns="http://www.w3.org/2000/svg"
   xmlns:sodipodi="http://sodipodi.sourceforge.net/DTD/sodipodi-0.dtd"
   xmlns:inkscape="http://www.inkscape.org/namespaces/inkscape"
   id="svg2"
   version="1.1"
   inkscape:version="0.91 r13725"
   width="55.3125"
   height="40.3125"
   viewBox="0 0 55.3125 40.3125"
   sodipodi:docname="prisao.svg">
  <metadata
     id="metadata8">
    <rdf:RDF>
      <cc:Work
         rdf:about="">
        <dc:format>image/svg+xml</dc:format>
        <dc:type
           rdf:resource="http://purl.org/dc/dcmitype/StillImage" />
        <dc:title></dc:title>
      </cc:Work>
    </rdf:RDF>
  </metadata>
  <defs
     id="defs6" />
  <sodipodi:namedview
     pagecolor="#ffffff"
     bordercolor="#666666"
     borderopacity="1"
     objecttolerance="10"
     gridtolerance="10"
     guidetolerance="10"
     inkscape:pageopacity="0"
     inkscape:pageshadow="2"
     inkscape:window-width="640"
     inkscape:window-height="480"
     id="namedview4"
     showgrid="false"
     inkscape:zoom="5.8542636"
     inkscape:cx="27.65625"
     inkscape:cy="20.15625"
     inkscape:window-x="0"
     inkscape:window-y="0"
     inkscape:window-maximized="0"
     inkscape:current-layer="svg2" />
  <path
     style="fill:#000000"
     d="m 4.0916314,21.900159 0,-14.0625001 11.2500006,0 11.25,0 0,-2.34375 c 0,-1.2890625 0.421875,-2.34375 0.9375,-2.34375 0.515625,0 0.9375,1.0546875 0.9375,2.34375 l 0,2.34375 11.25,0 11.25,0 0,14.0625001 0,14.0625 -23.4375,0 -23.4375006,0 0,-14.0625 z m 45.0000006,8.489366 0,-3.698134 -5.390625,2.526259 c -4.88268,2.288216 -6.406516,2.524934 -16.171875,2.512201 -10.928504,-0.01425 -11.529491,-0.156523 -20.8593756,-4.93809 -0.3867188,-0.198194 -0.703125,1.362304 -0.703125,3.467773 l 0,3.828125 21.5625006,0 21.5625,0 0,-3.698134 z m -6.408304,-2.58955 c 8.127611,-3.667878 8.159611,-9.064754 0.07527,-12.693994 -6.168161,-2.769024 -19.51101,-3.376961 -26.909767,-1.226084 -5.427628,1.577855 -9.8821996,4.915802 -9.8821996,7.405038 0,2.574597 3.3531495,5.457049 8.4570146,7.269862 7.081604,2.515275 21.88997,2.119739 28.259682,-0.754822 z m -26.404196,-6.42247 0,-6.147655 3.888895,0.28828 c 4.50218,0.333741 6.587833,2.543292 4.918002,5.210154 -0.564995,0.902344 -2.144868,1.774116 -3.51083,1.937271 -1.924797,0.229905 -2.483567,0.809949 -2.483567,2.578125 0,1.402982 -0.541485,2.281479 -1.40625,2.281479 -1.107034,0 -1.40625,-1.308073 -1.40625,-6.147654 z M 22.665233,19.3328 c -0.470636,-2.443816 -3.573601,-2.71636 -3.573601,-0.313882 0,1.341655 0.602086,1.943741 1.943741,1.943741 1.341656,0 1.846515,-0.504859 1.62986,-1.629859 z m 6.358056,6.158368 c -3.193576,-4.559469 -0.693403,-10.153509 4.537961,-10.153509 1.712314,0 3.646947,0.643008 4.299184,1.428906 1.630557,1.9647 0.313725,2.979786 -1.995076,1.537915 -1.040053,-0.649523 -2.731696,-0.914125 -3.759209,-0.588005 -1.496616,0.475007 -1.811278,1.276375 -1.581987,4.02894 0.233056,2.797774 0.698111,3.494271 2.503722,3.749742 2.796086,0.395611 4.878126,-1.394388 2.626764,-2.258316 -2.372268,-0.910325 -1.86843,-2.274182 0.840132,-2.274182 2.146507,0 2.371776,0.325389 2.109375,3.046875 -0.274556,2.847565 -0.548659,3.065452 -4.190241,3.330859 -3.17714,0.231558 -4.172304,-0.109828 -5.390625,-1.849225 z M 25.284306,10.823161 c 8.888778,-0.400686 16.948443,1.173529 21.594712,4.21788 2.184469,1.431321 2.212614,1.406653 2.212614,-1.93931 l 0,-3.3890721 -21.5625,0 -21.5625006,0 0,3.2293841 0,3.229384 5.3906256,-2.481732 c 4.226872,-1.945964 7.233508,-2.564805 13.927049,-2.866534 z"
     id="path3338"
     inkscape:connector-curvature="0" />
</svg>
