<?xml version="1.0" encoding="UTF-8" standalone="no"?>
<!-- Created with Inkscape (http://www.inkscape.org/) -->

<svg
   xmlns:dc="http://purl.org/dc/elements/1.1/"
   xmlns:cc="http://creativecommons.org/ns#"
   xmlns:rdf="http://www.w3.org/1999/02/22-rdf-syntax-ns#"
   xmlns:svg="http://www.w3.org/2000/svg"
   xmlns="http://www.w3.org/2000/svg"
   xmlns:sodipodi="http://sodipodi.sourceforge.net/DTD/sodipodi-0.dtd"
   xmlns:inkscape="http://www.inkscape.org/namespaces/inkscape"
   id="svg2"
   version="1.1"
   inkscape:version="0.91 r13725"
   width="42.1875"
   height="26.25"
   viewBox="0 0 42.1875 26.25"
   sodipodi:docname="REC.PNG">
  <metadata
     id="metadata8">
    <rdf:RDF>
      <cc:Work
         rdf:about="">
        <dc:format>image/svg+xml</dc:format>
        <dc:type
           rdf:resource="http://purl.org/dc/dcmitype/StillImage" />
        <dc:title></dc:title>
      </cc:Work>
    </rdf:RDF>
  </metadata>
  <defs
     id="defs6" />
  <sodipodi:namedview
     pagecolor="#ffffff"
     bordercolor="#666666"
     borderopacity="1"
     objecttolerance="10"
     gridtolerance="10"
     guidetolerance="10"
     inkscape:pageopacity="0"
     inkscape:pageshadow="2"
     inkscape:window-width="640"
     inkscape:window-height="480"
     id="namedview4"
     showgrid="false"
     inkscape:zoom="8.9904762"
     inkscape:cx="21.09375"
     inkscape:cy="13.125"
     inkscape:window-x="0"
     inkscape:window-y="0"
     inkscape:window-maximized="0"
     inkscape:current-layer="svg2" />
  <path
     style="fill:#000000"
     d="M 4.1410712,18.416881 C 3.8729009,17.71804 3.7806727,14.448509 3.9361194,11.151256 L 4.21875,5.15625 9.2015889,5.1995633 c 6.3507231,0.055204 8.7330231,2.9818959 5.2568271,6.4580927 -1.347113,1.347112 -1.298466,1.771331 0.545212,4.754464 2.832456,4.583011 0.196474,4.466732 -3.511114,-0.154881 C 8.4088589,12.413376 6.5625,12.665456 6.5625,16.930328 c 0,2.82114 -1.5452639,3.769802 -2.4214288,1.486553 z M 12.65625,9.375 c 0,-0.9012772 -1.094107,-1.5117416 -3.046875,-1.7000236 C 6.6716499,7.3917269 5.4682951,8.9057951 7.2305403,10.66804 8.4171208,11.854621 12.65625,10.844363 12.65625,9.375 Z m 6.707801,8.598055 c -0.853354,-0.942944 -1.551551,-2.630444 -1.551551,-3.75 0,-1.954518 2.965807,-5.785555 4.478901,-5.785555 1.726126,0 4.896099,3.069333 4.896099,4.74066 0,1.457103 -0.656915,1.82184 -3.28125,1.82184 -1.804688,0 -3.28125,0.396977 -3.28125,0.882172 0,1.550083 1.912526,2.128768 3.28125,0.992828 0.728264,-0.604405 1.828381,-0.787266 2.444706,-0.406357 0.80696,0.49873 0.637111,1.04609 -0.606868,1.95571 -2.373463,1.735519 -4.539666,1.58229 -6.380037,-0.451298 z M 24.375,12.1875 c 0,-0.515625 -0.84375,-0.9375 -1.875,-0.9375 -1.03125,0 -1.875,0.421875 -1.875,0.9375 0,0.515625 0.84375,0.9375 1.875,0.9375 1.03125,0 1.875,-0.421875 1.875,-0.9375 z m 6.771099,6.04059 c -2.6014,-1.822091 -2.69642,-5.427769 -0.208599,-7.91559 2.126743,-2.1267433 3.1105,-2.2832196 5.686632,-0.904515 2.780165,1.487899 2.157362,2.81384 -1.197144,2.548708 -2.260556,-0.178669 -3.09724,0.181976 -3.358664,1.447719 -0.5596,2.709426 1.485005,4.5468 3.593988,3.229718 2.397577,-1.497311 3.688551,0.06691 1.422655,1.723771 -2.318682,1.695462 -3.365595,1.672579 -5.938868,-0.129811 z"
     id="path3338"
     inkscape:connector-curvature="0" />
</svg>
