<?xml version="1.0" encoding="UTF-8" standalone="no"?>
<!-- Created with Inkscape (http://www.inkscape.org/) -->

<svg
   xmlns:dc="http://purl.org/dc/elements/1.1/"
   xmlns:cc="http://creativecommons.org/ns#"
   xmlns:rdf="http://www.w3.org/1999/02/22-rdf-syntax-ns#"
   xmlns:svg="http://www.w3.org/2000/svg"
   xmlns="http://www.w3.org/2000/svg"
   xmlns:sodipodi="http://sodipodi.sourceforge.net/DTD/sodipodi-0.dtd"
   xmlns:inkscape="http://www.inkscape.org/namespaces/inkscape"
   id="svg2"
   version="1.1"
   inkscape:version="0.91 r13725"
   width="30.9375"
   height="38.4375"
   viewBox="0 0 30.9375 38.4375"
   sodipodi:docname="selva.svg">
  <metadata
     id="metadata8">
    <rdf:RDF>
      <cc:Work
         rdf:about="">
        <dc:format>image/svg+xml</dc:format>
        <dc:type
           rdf:resource="http://purl.org/dc/dcmitype/StillImage" />
        <dc:title></dc:title>
      </cc:Work>
    </rdf:RDF>
  </metadata>
  <defs
     id="defs6" />
  <sodipodi:namedview
     pagecolor="#ffffff"
     bordercolor="#666666"
     borderopacity="1"
     objecttolerance="10"
     gridtolerance="10"
     guidetolerance="10"
     inkscape:pageopacity="0"
     inkscape:pageshadow="2"
     inkscape:window-width="640"
     inkscape:window-height="480"
     id="namedview4"
     showgrid="false"
     inkscape:zoom="6.1398374"
     inkscape:cx="15.46875"
     inkscape:cy="19.21875"
     inkscape:window-x="0"
     inkscape:window-y="0"
     inkscape:window-maximized="0"
     inkscape:current-layer="svg2" />
  <path
     style="fill:#000000"
     d="m 11.696595,33.421943 c 0.874684,-0.966513 1.551551,-3.279327 1.551551,-5.30155 0,-3.415748 -0.0819,-3.512988 -1.714445,-2.035556 -2.3508623,2.127501 -6.0750023,1.94653 -8.1970722,-0.398331 -3.77849204,-4.175187 -1.1937683,-13.050118 3.8006999,-13.050118 1.6905425,0 1.9715216,-0.439874 1.6556637,-2.591949 -0.57017,-3.8848163 2.8150656,-7.7205513 6.8137876,-7.7205513 3.772218,0 6.078866,2.7027211 6.078866,7.1226619 0,2.5374404 0.39999,3.0354614 2.82797,3.5210574 4.702845,0.940569 6.226658,7.752032 2.728986,12.198601 -2.199155,2.795773 -5.099537,3.155002 -8.160857,1.01077 -2.051342,-1.436816 -2.083599,-1.400077 -2.083599,2.373173 0,2.541906 0.473575,4.014312 1.40625,4.372213 2.921203,1.12097 1.22953,2.214024 -3.426551,2.214024 -4.622556,0 -4.765302,-0.07459 -3.28125,-1.714445 z m 0.0632,-9.066805 c 1.194658,-1.289063 2.788474,-2.34375 3.541811,-2.34375 0.753335,0 2.360529,1.054687 3.57154,2.34375 2.71115,2.885887 4.964748,2.974048 7.46348,0.291974 3.868892,-4.152769 0.854895,-11.806677 -4.263966,-10.828146 -2.126688,0.406543 -2.212033,0.241291 -1.659602,-3.213425 C 21.425927,4.271411 15.70144,0.80809341 11.373146,5.1363877 9.2796472,7.2298868 9.0284484,9.0695152 10.468631,11.76052 c 0.848373,1.5852 0.651229,1.813368 -1.566806,1.813368 -3.6397363,0 -5.9661788,2.495453 -5.9661788,6.399607 0,6.280233 4.8381346,8.682617 8.8241438,4.381643 z"
     id="path3338"
     inkscape:connector-curvature="0" />
</svg>
