<?xml version="1.0" encoding="UTF-8" standalone="no"?>
<!-- Created with Inkscape (http://www.inkscape.org/) -->

<svg
   xmlns:dc="http://purl.org/dc/elements/1.1/"
   xmlns:cc="http://creativecommons.org/ns#"
   xmlns:rdf="http://www.w3.org/1999/02/22-rdf-syntax-ns#"
   xmlns:svg="http://www.w3.org/2000/svg"
   xmlns="http://www.w3.org/2000/svg"
   xmlns:sodipodi="http://sodipodi.sourceforge.net/DTD/sodipodi-0.dtd"
   xmlns:inkscape="http://www.inkscape.org/namespaces/inkscape"
   id="svg2"
   version="1.1"
   inkscape:version="0.91 r13725"
   width="46.875"
   height="37.5"
   viewBox="0 0 46.875 37.5"
   sodipodi:docname="suprimento_transporte.svg">
  <metadata
     id="metadata8">
    <rdf:RDF>
      <cc:Work
         rdf:about="">
        <dc:format>image/svg+xml</dc:format>
        <dc:type
           rdf:resource="http://purl.org/dc/dcmitype/StillImage" />
        <dc:title></dc:title>
      </cc:Work>
    </rdf:RDF>
  </metadata>
  <defs
     id="defs6" />
  <sodipodi:namedview
     pagecolor="#ffffff"
     bordercolor="#666666"
     borderopacity="1"
     objecttolerance="10"
     gridtolerance="10"
     guidetolerance="10"
     inkscape:pageopacity="0"
     inkscape:pageshadow="2"
     inkscape:window-width="640"
     inkscape:window-height="480"
     id="namedview4"
     showgrid="false"
     inkscape:zoom="6.2933333"
     inkscape:cx="23.4375"
     inkscape:cy="18.75"
     inkscape:window-x="0"
     inkscape:window-y="0"
     inkscape:window-maximized="0"
     inkscape:current-layer="svg2" />
  <path
     style="fill:#000000"
     d="m 7.7624227,34.334975 c -4.9867445,-2.006578 -2.895344,-9.356161 2.6623933,-9.356161 4.542529,0 6.286114,6.195298 2.491585,8.85309 -2.353523,1.648471 -2.316431,1.64485 -5.1539783,0.503071 z M 12.65625,30.237238 c 0,-3.374163 -2.470908,-5.223032 -4.6089164,-3.448643 -2.9272097,2.429369 -1.0067468,6.963824 2.7229674,6.42927 1.392368,-0.199559 1.885949,-0.979633 1.885949,-2.980627 z m 21.302349,3.594666 C 31.663133,32.224096 31.13527,27.968544 33,26.103814 c 1.47389,-1.47389 5.898212,-1.444481 7.052176,0.04687 2.135719,2.760154 2.089031,4.584645 -0.175258,6.848934 -2.69453,2.69453 -3.165105,2.760706 -5.918319,0.832281 z m 5.439442,-1.849603 c 1.655722,-1.995024 -0.247246,-6.065987 -2.835541,-6.065987 -2.588295,0 -4.491263,4.070963 -2.835541,6.065987 0.654568,0.788707 1.930562,1.434013 2.835541,1.434013 0.904979,0 2.180973,-0.645306 2.835541,-1.434013 z M 5.625,18.885064 c 0,-2.320313 0.3164062,-4.168792 0.703125,-4.10773 0.3867187,0.06106 3.5507813,0.06106 7.03125,0 l 6.328125,-0.11102 0,-5.6250004 0,-5.625 3.75,0 3.75,0 0,5.625 0,5.6250004 6.5625,0 6.5625,0 0,4.21875 0,4.21875 -17.34375,0 -17.34375,0 0,-4.21875 z"
     id="path3338"
     inkscape:connector-curvature="0" />
</svg>
