<?xml version="1.0" encoding="UTF-8" standalone="no"?>
<!-- Created with Inkscape (http://www.inkscape.org/) -->

<svg
   xmlns:dc="http://purl.org/dc/elements/1.1/"
   xmlns:cc="http://creativecommons.org/ns#"
   xmlns:rdf="http://www.w3.org/1999/02/22-rdf-syntax-ns#"
   xmlns:svg="http://www.w3.org/2000/svg"
   xmlns="http://www.w3.org/2000/svg"
   xmlns:sodipodi="http://sodipodi.sourceforge.net/DTD/sodipodi-0.dtd"
   xmlns:inkscape="http://www.inkscape.org/namespaces/inkscape"
   id="svg2"
   version="1.1"
   inkscape:version="0.91 r13725"
   width="32.8125"
   height="32.8125"
   viewBox="0 0 32.8125 32.8125"
   sodipodi:docname="transporte.svg">
  <metadata
     id="metadata8">
    <rdf:RDF>
      <cc:Work
         rdf:about="">
        <dc:format>image/svg+xml</dc:format>
        <dc:type
           rdf:resource="http://purl.org/dc/dcmitype/StillImage" />
        <dc:title></dc:title>
      </cc:Work>
    </rdf:RDF>
  </metadata>
  <defs
     id="defs6" />
  <sodipodi:namedview
     pagecolor="#ffffff"
     bordercolor="#666666"
     borderopacity="1"
     objecttolerance="10"
     gridtolerance="10"
     guidetolerance="10"
     inkscape:pageopacity="0"
     inkscape:pageshadow="2"
     inkscape:window-width="640"
     inkscape:window-height="480"
     id="namedview4"
     showgrid="false"
     inkscape:zoom="7.192381"
     inkscape:cx="16.40625"
     inkscape:cy="16.40625"
     inkscape:window-x="180"
     inkscape:window-y="302"
     inkscape:window-maximized="0"
     inkscape:current-layer="svg2" />
  <path
     style="fill:#000000"
     d="M 10.29822,27.890625 C -2.9181793,21.191634 1.6684864,1.71875 16.462774,1.71875 c 5.767669,0 9.799049,2.5511866 12.452183,7.8801419 1.740027,3.4949331 2.061028,5.2113071 1.545411,8.2632211 -0.82708,4.895439 -5.182966,9.92386 -9.678117,11.172388 -4.830365,1.341632 -5.786118,1.237353 -10.484031,-1.143876 z m 4.529676,-6.861624 -0.296646,-2.408499 -3.208698,3.323215 -3.2086974,3.323214 3.2086974,1.357859 c 3.126299,1.322989 3.216316,1.2995 3.505344,-0.914716 0.163156,-1.249915 0.163156,-3.356399 0,-4.681073 z m 6.221742,6.008016 c 1.313324,-0.59839 2.387862,-1.574149 2.387862,-2.168352 0,-1.144613 -4.80497,-6.118665 -5.910674,-6.118665 -0.358504,0 -0.651826,2.109375 -0.651826,4.6875 0,4.97562 0.399122,5.319758 4.174638,3.599517 z M 13.125,16.691093 c 0,-0.414476 -1.898437,-0.753593 -4.21875,-0.753593 -3.6385034,0 -4.21875,0.266364 -4.21875,1.936632 0,1.065148 0.4608116,2.797668 1.0240258,3.850043 0.9929679,1.855378 1.1209188,1.819497 4.2187498,-1.183039 C 11.687374,18.838089 13.125,17.10557 13.125,16.691093 Z m 14.492723,3.708819 c 0.702465,-1.670673 1.079077,-3.358173 0.836915,-3.75 C 27.900615,15.753484 18.75,15.702642 18.75,16.595993 c 0,0.953182 5.845426,6.841507 6.791663,6.841507 0.439368,0 1.373595,-1.366914 2.07606,-3.037588 z M 13.125,14.341507 c 0,-0.362172 -1.334818,-2.035677 -2.966263,-3.718901 C 7.4314735,7.808785 7.0939595,7.6918835 5.9698024,9.1717248 5.2973333,10.056964 4.7337142,11.730469 4.7173157,12.890625 4.6907504,14.770042 5.1474158,15 8.90625,15 11.226563,15 13.125,14.703678 13.125,14.341507 Z m 15.329638,-0.05392 C 28.876834,13.604461 26.684321,7.5 26.016771,7.5 c -0.17806,0 -1.971543,1.6875 -3.985521,3.75 l -3.661778,3.75 4.822436,0 c 2.652339,0 5.020568,-0.320586 5.26273,-0.712412 z M 14.577342,3.9523419 C 14.283849,3.6588496 12.774196,4.0206013 11.222556,4.7562348 L 8.4013923,6.09375 11.466322,9.8214694 14.53125,13.549189 14.821107,9.0175763 c 0.159422,-2.4923866 0.04973,-4.771742 -0.243765,-5.0652344 z m 6.901294,5.0404339 C 24.481172,5.8949446 24.517053,5.7669937 22.661675,4.7740258 21.6093,4.2108116 19.87678,3.75 18.811632,3.75 17.141364,3.75 16.875,4.3302466 16.875,7.96875 c 0,2.320313 0.339117,4.21875 0.753593,4.21875 0.414477,0 2.146996,-1.437626 3.850043,-3.1947242 z"
     id="path3338"
     inkscape:connector-curvature="0" />
</svg>
